<svg width="40" height="40" viewBox="0 0 40 40" fill="none" xmlns="http://www.w3.org/2000/svg">
<circle cx="20" cy="20" r="20" fill="white"/>
<path fill-rule="evenodd" clip-rule="evenodd" d="M19.9993 1.66602C9.87435 1.66602 1.66602 9.87435 1.66602 19.9993C1.66602 30.1243 9.87435 38.3327 19.9993 38.3327C30.1243 38.3327 38.3327 30.1243 38.3327 19.9993C38.3327 9.87435 30.1243 1.66602 19.9993 1.66602ZM26.1777 16.1777C26.4813 15.8633 26.6493 15.4423 26.6455 15.0053C26.6417 14.5684 26.4664 14.1503 26.1574 13.8413C25.8484 13.5323 25.4303 13.357 24.9934 13.3532C24.5564 13.3494 24.1354 13.5174 23.821 13.821L19.9993 17.6427L16.1777 13.821C16.0239 13.6618 15.84 13.5349 15.6367 13.4475C15.4334 13.3602 15.2147 13.3142 14.9934 13.3123C14.7721 13.3103 14.5526 13.3525 14.3478 13.4363C14.1429 13.5201 13.9568 13.6439 13.8004 13.8004C13.6439 13.9568 13.5201 14.1429 13.4363 14.3478C13.3525 14.5526 13.3103 14.7721 13.3123 14.9934C13.3142 15.2147 13.3602 15.4334 13.4475 15.6367C13.5349 15.84 13.6618 16.0239 13.821 16.1777L17.6427 19.9993L13.821 23.821C13.6618 23.9748 13.5349 24.1587 13.4475 24.362C13.3602 24.5653 13.3142 24.784 13.3123 25.0053C13.3103 25.2266 13.3525 25.4461 13.4363 25.6509C13.5201 25.8558 13.6439 26.0419 13.8004 26.1983C13.9568 26.3548 14.1429 26.4786 14.3478 26.5624C14.5526 26.6462 14.7721 26.6884 14.9934 26.6864C15.2147 26.6845 15.4334 26.6385 15.6367 26.5512C15.84 26.4638 16.0239 26.3369 16.1777 26.1777L19.9993 22.356L23.821 26.1777C24.1354 26.4813 24.5564 26.6493 24.9934 26.6455C25.4303 26.6417 25.8484 26.4664 26.1574 26.1574C26.4664 25.8484 26.6417 25.4303 26.6455 24.9934C26.6493 24.5564 26.4813 24.1354 26.1777 23.821L22.356 19.9993L26.1777 16.1777Z" fill="#0EA44D"/>
</svg>
