<svg width="472" height="403" viewBox="0 0 472 403" fill="none" xmlns="http://www.w3.org/2000/svg">
<g clip-path="url(#clip0_928_5129)">
<path d="M53.0597 325.622C52.2008 322.841 51.3418 319.957 50.5033 317.053L52.5484 316.419C53.3665 319.303 54.2255 322.166 55.0844 324.947L53.0597 325.622ZM417.158 322.023L415.051 321.757C415.399 318.791 415.726 315.805 416.033 312.881L418.139 313.126C417.853 316.071 417.505 319.057 417.158 322.023ZM48.1718 308.422C47.4356 305.559 46.6993 302.635 46.0244 299.731L48.09 299.199C48.7649 302.083 49.4807 304.987 50.217 307.85L48.1718 308.422ZM419.019 304.209L416.912 304.005C417.178 301.019 417.424 298.033 417.649 295.109L419.755 295.293C419.551 298.217 419.285 301.224 419.019 304.209ZM44.0815 290.977C43.468 288.053 42.8749 285.087 42.3431 282.183L44.4292 281.754C44.9609 284.637 45.5336 287.582 46.1471 290.487L44.0815 290.977ZM420.369 286.335L418.242 286.192C418.426 283.226 418.589 280.22 418.712 277.275L420.839 277.377C420.716 280.322 420.553 283.349 420.369 286.335ZM40.8297 273.328C40.3593 270.362 39.9299 267.376 39.5208 264.452L41.6273 264.145C42.0159 267.049 42.4454 270.015 42.9158 272.96L40.8297 273.328ZM421.166 268.419L419.039 268.358C419.121 265.372 419.182 262.366 419.203 259.421L421.33 259.441C421.309 262.386 421.248 265.413 421.166 268.419ZM38.4574 255.555C38.1506 252.569 37.8643 249.563 37.6393 246.618L39.7458 246.434C39.9708 249.359 40.2366 252.344 40.5639 255.31L38.4574 255.555ZM419.223 250.504C419.203 247.518 419.142 244.512 419.06 241.587L421.187 241.526C421.269 244.471 421.33 247.497 421.35 250.504H419.223ZM37.0871 237.64C36.9439 234.633 36.8621 231.607 36.8008 228.662L38.9277 228.621C38.9686 231.545 39.0709 234.552 39.1936 237.517L37.0871 237.64ZM418.712 232.65C418.569 229.664 418.385 226.678 418.18 223.753L420.307 223.59C420.512 226.535 420.696 229.541 420.839 232.547L418.712 232.65ZM38.9482 219.704L36.8212 219.663C36.8826 216.636 36.9848 213.63 37.1689 210.685L39.2959 210.807C39.1118 213.732 39.0095 216.718 38.9482 219.704ZM417.444 214.857C417.158 211.871 416.831 208.885 416.483 206.001L418.589 205.715C418.937 208.64 419.264 211.626 419.551 214.632L417.444 214.857ZM39.9503 201.932L37.8438 201.707C38.1301 198.7 38.4778 195.694 38.8868 192.769L40.9933 193.096C40.5843 196.001 40.2366 198.966 39.9503 201.932ZM415.317 197.166C414.867 194.201 414.397 191.235 413.886 188.372L415.972 187.963C416.483 190.847 416.974 193.833 417.424 196.819L415.317 197.166ZM164.193 196.86C161.248 196.369 159.101 194.958 156.156 192.544L157.506 190.826C160.103 192.953 161.964 194.221 164.439 194.651L164.193 196.86ZM171.556 191.563L169.674 190.56C170.656 188.577 171.515 185.795 172.231 182.339L174.296 182.809C173.519 186.511 172.619 189.374 171.556 191.563ZM149.918 186.163C148.221 184.2 146.421 181.93 144.396 179.23L146.073 177.86C148.077 180.519 149.857 182.748 151.513 184.691L149.918 186.163ZM42.4045 184.343L40.3184 183.914C40.8706 180.948 41.4842 177.983 42.1591 175.12L44.2247 175.651C43.5702 178.494 42.9567 181.398 42.4045 184.343ZM412.147 179.66C411.513 176.715 410.838 173.811 410.122 171.009L412.168 170.436C412.883 173.259 413.558 176.204 414.192 179.169L412.147 179.66ZM175.728 173.872L173.621 173.586C173.949 170.927 174.235 168.023 174.521 164.71L176.628 164.894C176.341 168.248 176.055 171.172 175.728 173.872ZM139.181 172.052C137.463 169.618 135.663 167.041 134.129 164.812L135.847 163.503C137.381 165.732 139.181 168.309 140.899 170.723L139.181 172.052ZM294.633 171.868C292.976 171.868 291.361 171.357 289.806 170.334L290.931 168.452C293.263 169.986 295.533 169.986 298.007 168.759L298.928 170.763C297.476 171.5 296.024 171.868 294.633 171.868ZM46.4948 167.082L44.4701 166.428C45.3086 163.544 46.2494 160.66 47.231 157.899L49.2148 158.677C48.2332 161.417 47.3333 164.239 46.4948 167.082ZM305.881 164.976L304.327 163.462C305.943 161.642 307.66 159.392 309.603 156.57L311.321 157.879C309.337 160.763 307.558 163.074 305.881 164.976ZM283.773 163.442C282.403 161.213 281.033 158.615 279.601 155.445L281.523 154.504C282.914 157.572 284.223 160.108 285.552 162.235L283.773 163.442ZM407.791 162.46C406.932 159.576 406.032 156.754 405.071 154.034L407.075 153.277C408.036 156.018 408.957 158.902 409.816 161.806L407.791 162.46ZM129.098 157.572C127.156 154.791 125.54 152.521 124.006 150.394L125.703 149.044C127.237 151.171 128.873 153.461 130.816 156.263L129.098 157.572ZM177.262 155.916L175.135 155.772C175.298 153.175 175.462 150.251 175.626 146.815L177.753 146.937C177.589 150.373 177.425 153.298 177.262 155.916ZM52.3848 150.435L50.4419 149.535C51.6077 146.774 52.8552 144.054 54.1641 141.395L56.0456 142.418C54.7572 145.056 53.5301 147.715 52.3848 150.435ZM316.189 150.435L314.409 149.208C315.923 146.815 317.477 144.258 319.052 141.681L320.831 142.888C319.256 145.485 317.702 148.021 316.189 150.435ZM276.206 147.162C275.245 144.647 274.243 141.886 273.159 138.736L275.163 137.98C276.247 141.109 277.229 143.829 278.169 146.344L276.206 147.162ZM401.942 145.772C400.797 142.99 399.59 140.291 398.363 137.734L400.265 136.732C401.533 139.329 402.76 142.07 403.905 144.892L401.942 145.772ZM118.75 143.338C116.827 140.843 115.028 138.614 113.269 136.528L114.864 135.055C116.643 137.162 118.464 139.411 120.407 141.947L118.75 143.338ZM178.202 137.98L176.076 137.877C176.219 134.912 176.362 131.946 176.505 128.92L178.632 129.042C178.489 132.028 178.346 135.014 178.202 137.98ZM325.494 135.403L323.715 134.176C325.494 131.374 327.069 128.94 328.562 126.752L330.3 128.04C328.828 130.208 327.253 132.601 325.494 135.403ZM60.2586 134.769L58.4589 133.583C60.1359 130.842 61.8539 128.367 63.5718 126.241L65.1875 127.672C63.5513 129.717 61.8948 132.11 60.2586 134.769ZM270.316 130.249C269.334 127.263 268.394 124.277 267.576 121.741L269.58 121.046C270.377 123.582 271.339 126.547 272.32 129.533L270.316 130.249ZM107.44 130.085C105.272 127.877 103.145 125.913 101.1 124.277L102.389 122.518C104.495 124.216 106.684 126.22 108.913 128.49L107.44 130.085ZM394.232 130.004C392.718 127.406 391.123 124.952 389.487 122.702L391.184 121.353C392.841 123.664 394.477 126.179 396.052 128.838L394.232 130.004ZM71.1797 121.618L69.8913 119.86C72.4273 117.835 75.0655 116.383 77.7447 115.524L78.3582 117.651C75.9245 118.408 73.5112 119.757 71.1797 121.618ZM335.434 120.944L333.777 119.553C335.761 116.976 337.663 114.767 339.544 112.783L341.037 114.358C339.217 116.26 337.376 118.428 335.434 120.944ZM179.123 120.064L176.996 119.941C177.18 116.71 177.364 113.786 177.548 110.963L179.675 111.127C179.491 113.908 179.307 116.833 179.123 120.064ZM94.065 119.594C91.4063 118.224 88.8089 117.324 86.3139 116.976L86.6002 114.767C89.3202 115.156 92.1425 116.117 95.0057 117.59L94.065 119.594ZM384.026 115.994C381.981 113.806 379.875 111.863 377.727 110.247L378.975 108.448C381.204 110.145 383.413 112.17 385.54 114.44L384.026 115.994ZM264.876 113.233C263.812 109.92 262.953 107.221 262.135 104.746L264.14 104.03C264.958 106.525 265.817 109.225 266.88 112.538L264.876 113.233ZM347.398 108.673L346.171 106.852C348.788 104.93 351.427 103.519 354.004 102.639L354.658 104.746C352.286 105.564 349.831 106.873 347.398 108.673ZM370.569 105.953C367.931 104.787 365.272 104.071 362.655 103.826L362.859 101.617C365.702 101.903 368.565 102.66 371.408 103.928L370.569 105.953ZM180.35 102.19L178.243 101.985C178.509 98.856 178.796 95.8496 179.102 93.0273L181.209 93.2727C180.902 96.095 180.616 99.1014 180.35 102.19ZM259.313 96.2995C258.291 93.2931 257.329 90.5526 256.348 87.9144L258.331 87.1168C259.293 89.7755 260.274 92.516 261.297 95.5428L259.313 96.2995ZM182.293 84.4376L180.186 84.1104C180.616 81.0018 181.086 77.9954 181.597 75.214L183.683 75.6231C183.172 78.384 182.702 81.3495 182.293 84.4376ZM253.198 79.6111C252.053 76.7479 250.908 73.9869 249.783 71.4305L251.705 70.4897C252.85 73.0666 253.996 75.848 255.161 78.7317L253.198 79.6111ZM185.483 66.9312L183.418 66.3994C184.154 63.2908 184.972 60.3662 185.851 57.7075L187.856 58.4233C186.997 61.0207 186.199 63.8839 185.483 66.9312ZM246.02 63.4749C244.629 60.7139 243.197 58.137 241.786 55.7851L243.586 54.5989C245.038 56.9917 246.49 59.63 247.901 62.4318L246.02 63.4749ZM191.046 50.2632L189.144 49.2815C190.535 46.3161 192.089 43.7187 193.746 41.5099L195.423 42.8802C193.827 44.9663 192.375 47.4613 191.046 50.2632ZM236.919 48.5657C235.058 46.132 233.156 43.9641 231.233 42.1644L232.665 40.5078C234.669 42.4098 236.673 44.6595 238.596 47.175L236.919 48.5657ZM201.313 37.1333L200.167 35.2518C202.683 33.5748 205.464 32.4704 208.409 32L208.737 34.1883C206.078 34.6178 203.583 35.6199 201.313 37.1333ZM224.525 37.1333C222.05 35.7426 219.474 34.7814 216.876 34.2906L217.244 32.1023C220.067 32.634 222.869 33.6566 225.548 35.17L224.525 37.1333Z" fill="#DCE6FF"/>
<path d="M93.51 337.648C93.51 337.648 41.7882 204.692 79.0099 175.079C103.879 155.281 130.241 198.905 161.716 175.835C189.734 155.281 180.817 92.7817 225.504 84.1307C275.733 74.4162 286.797 191.01 328.027 175.079C378.052 155.731 427.81 194.998 384.821 337.893L93.51 337.648Z" fill="#C2F5D8"/>
<path d="M430.613 291.816C412.984 289.075 415.868 313.781 390.753 313.781C367.786 313.781 360.444 219.704 343.735 246.598C258.084 384.461 307.822 187.963 239.699 185.468C208.899 184.343 188.365 218.722 180.798 279.606C169.836 334.641 144.374 237.619 118.196 246.639C101.549 252.365 103.451 313.76 80.504 313.76C55.3896 313.76 58.2528 289.055 40.6441 291.796C21.6651 294.761 16 338.486 16 338.486H455.257C455.257 338.486 449.592 294.761 430.613 291.816Z" fill="#EEF7FF"/>
<path d="M415.01 318.567C398.792 317.401 401.451 327.954 378.341 327.954C357.214 327.954 357.787 304.312 343.655 299.281C317.62 290.037 296.167 336.85 286.064 313.351C266.901 250.995 210.986 219.725 185.197 313.351C175.094 336.85 151.493 294.925 127.605 299.281C112.88 301.96 114.046 327.933 92.9196 327.933C69.8095 327.933 72.4681 317.38 56.2501 318.546C38.805 319.794 33.5898 338.466 33.5898 338.466H437.691C437.671 338.486 432.476 319.814 415.01 318.567Z" fill="#C2F5D8"/>
<path d="M16.3278 338.486C16.3278 338.486 13.2396 352.127 26.0218 355.543C43.4874 360.206 145.99 372.477 121.08 381.803C107.03 387.059 128.259 394.217 196.73 396.834C265.202 399.473 382.675 389.165 343.184 373.908C303.671 358.652 464.645 370.227 454.849 338.486H16.3278Z" fill="#77B889"/>
<path d="M226.694 232.957C228.984 252.549 199.902 256.456 196.937 236.945C194.646 217.352 223.728 213.446 226.694 232.957Z" fill="#0EA44D"/>
<path d="M152.515 111.148C141.737 75.5009 170.123 41.6946 207.059 45.0691C255.631 50.4069 264.384 113.377 235.998 145.772C222.418 159.72 209.922 183.894 210.638 201.298C210.699 211.606 202.253 210.788 199.165 201.605C188.325 159.066 211.906 147.756 221.927 114.318C229.74 60.2645 170.062 68.6905 160 110.964C158.896 114.584 153.558 114.972 152.515 111.148Z" fill="#0EA44D"/>
<path d="M287.087 163.728C285.41 173.626 270.644 171.376 271.993 161.437C273.67 151.518 288.436 153.768 287.087 163.728Z" fill="#FCB4B4"/>
<path d="M268.271 93.6409C268.107 74.7028 286.8 62.2479 304.347 69.1809C327.314 78.7318 322.59 110.718 304.081 122.498C295.451 127.365 285.9 137.387 283.773 145.997C282.321 151.028 278.333 149.433 278.128 144.504C278.926 122.171 292.035 120.023 301.709 105.135C313.264 79.8566 282.914 75.4391 271.952 94.643C270.909 96.2382 268.23 95.6452 268.271 93.6409Z" fill="#FCB4B4"/>
<path d="M166.687 238.315C169.611 245.064 159.651 249.564 156.502 242.917C153.598 236.188 163.537 231.689 166.687 238.315Z" fill="#FCB4B4"/>
<path d="M127.196 202.852C119.527 191.297 126.031 176.203 139.57 173.463C157.465 170.17 167.322 191.665 160.676 206.267C157.322 212.689 155.46 222.649 157.587 228.784C158.712 232.445 155.624 233.059 153.538 230.114C145.112 216.104 152.311 209.56 152.311 196.553C149.305 176.449 128.935 185.836 129.876 201.993C129.855 203.384 127.974 204.099 127.196 202.852Z" fill="#FCB4B4"/>
<path d="M329.888 183.383C317.822 181.072 320.113 172.911 308.435 176.981C308.435 176.981 297.964 168.617 296.655 188.475C295.591 204.488 303.445 212.219 315.634 218.805C330.113 226.617 352.876 218.109 351.935 200.03C351.281 187.452 341.73 185.653 329.888 183.383Z" fill="#333333"/>
<path d="M299.375 208.21C282.38 219.888 269.823 215.634 256.856 200.848C255.138 197.943 250.905 199.58 252.193 202.831C252.418 203.363 252.848 204.038 253.093 204.57C265.057 226.473 286.225 232.097 306.533 216.902C312.157 212.198 305.081 203.568 299.375 208.21Z" fill="#F99370"/>
<path d="M304.713 205.346C304.713 205.346 299.988 205.653 297.677 207.494C295.366 209.334 288.801 212.545 283.934 213.22C279.067 213.895 271.009 211.359 268.002 208.946C264.996 206.532 262.889 204.058 260.885 205.408C260.885 205.408 259.351 207.555 255.363 208.393C255.363 208.393 253.339 213.874 261.192 220.583C268.861 227.127 285.57 234.755 304.57 225.123L304.713 205.346Z" fill="#0EA44D"/>
<path d="M304.367 202.832L304.715 205.348C306.003 209.54 311.566 206.248 312.486 204.591C312.486 204.591 311.975 202.219 311.893 201.094L304.367 202.832Z" fill="#F99370"/>
<path d="M355.168 360.533L366.826 346.238C366.274 345.379 362.224 343.252 361.079 342.086C360.24 341.493 350.935 332.024 349.953 331.062L343.266 339.284L354.923 346.565C356.314 347.424 356.866 349.142 356.293 350.675C355.148 354.132 352.203 356.75 352.898 360.124C353.226 361.106 354.514 361.351 355.168 360.533Z" fill="#F99370"/>
<path d="M365.821 344.683C366.25 345.133 366.618 345.645 366.843 346.238L355.084 360.656C354.511 361.351 353.407 361.31 352.936 360.533C351.832 358.733 351.137 354.991 356.209 348.058C356.209 348.058 358.724 346.34 361.076 342.086C361.076 342.086 364.042 342.843 365.821 344.683Z" fill="#333333"/>
<path d="M352.162 356.094C352.837 356.258 353.287 355.338 355.496 355.972C355.7 356.033 355.905 355.931 355.966 355.726C355.823 354.315 350.792 355.235 352.162 356.094Z" fill="#E8C0A6"/>
<path d="M353.019 353.456C353.122 353.517 353.244 353.517 353.347 353.476C353.367 353.476 355.146 352.72 357.028 353.476C357.478 353.66 357.764 352.945 357.314 352.781C355.126 351.902 353.142 352.74 353.06 352.781C352.774 352.883 352.753 353.313 353.019 353.456Z" fill="#E8C0A6"/>
<path d="M354.617 350.45C355.108 350.634 356.437 349.816 358.83 350.655C359.28 350.839 359.546 350.103 359.096 349.939C356.662 349.162 353.737 349.469 354.617 350.45Z" fill="#E8C0A6"/>
<path d="M352.918 360.492L365.823 344.662C366.252 345.112 366.62 345.623 366.845 346.216L355.086 360.655C354.513 361.371 353.368 361.289 352.918 360.492Z" fill="#395B96"/>
<path d="M297.656 363.416L316.083 363.211C316.39 362.229 315.428 357.771 315.592 356.135C315.592 355.439 315.776 351.656 315.837 350.961L314.467 340.551L306.348 340.633L308.209 354.253C308.434 355.869 307.473 357.403 305.918 357.935C302.523 359.264 298.658 358.691 296.49 361.35C295.918 362.27 296.592 363.436 297.656 363.416Z" fill="#F99370"/>
<path d="M316.615 361.432C316.554 362.066 316.39 362.659 316.083 363.211L297.472 363.415C296.572 363.415 295.897 362.536 296.184 361.677C296.859 359.673 299.292 356.748 307.862 356.217C307.862 356.217 310.786 357.055 315.572 356.135C315.592 356.135 316.901 358.896 316.615 361.432Z" fill="#333333"/>
<path d="M301.667 360.963C301.933 360.963 302.117 360.676 302.014 360.431C301.176 358.447 299.662 357.854 299.601 357.813C299.151 357.629 298.865 358.345 299.335 358.509C299.397 358.529 300.624 359.04 301.319 360.697C301.38 360.881 301.524 360.963 301.667 360.963Z" fill="#E8C0A6"/>
<path d="M304.589 360.594C304.835 360.594 305.039 360.349 304.957 360.104C304.262 357.609 300.99 355.747 301.89 357.506C301.91 357.527 303.628 358.406 304.242 360.329C304.283 360.492 304.426 360.594 304.589 360.594Z" fill="#E8C0A6"/>
<path d="M307.926 360.145C308.171 360.145 308.375 359.879 308.273 359.633C307.455 357.363 305.676 356.197 305.594 356.136C305.185 355.87 304.776 356.504 305.185 356.77C305.206 356.791 306.842 357.874 307.557 359.879C307.619 360.042 307.762 360.145 307.926 360.145Z" fill="#E8C0A6"/>
<path d="M296.205 361.659L316.615 361.434C316.554 362.068 316.391 362.661 316.084 363.213L297.473 363.417C296.553 363.438 295.878 362.518 296.205 361.659Z" fill="#395B96"/>
<path d="M311.71 193.157C311.71 193.3 311.689 193.423 311.689 193.566C311.505 193.464 311.566 198.331 311.996 201.808C308.908 203.689 305.165 203.464 304.49 203.403C303.897 199.006 303.815 194.936 304.163 192.318C304.961 187.901 311.853 188.658 311.71 193.157Z" fill="#E57D61"/>
<path d="M316.72 190.499C316.127 193.935 314.899 197.78 312.159 200.009C311.055 200.909 309.705 201.461 308.294 201.727C300.318 203.915 290.93 194.324 297.332 187.697C299.643 185.632 300.174 181.91 302.015 179.844C304.715 176.06 310.502 176.326 313.591 179.496C316.352 182.36 317.272 186.266 316.72 190.499Z" fill="#F99370"/>
<path d="M303.63 188.189C303.323 187.596 304.284 187.125 304.571 187.739C304.878 188.332 303.916 188.802 303.63 188.189Z" fill="#C16256"/>
<path d="M299.275 187.39C298.968 186.797 299.929 186.327 300.215 186.94C300.502 187.533 299.561 188.004 299.275 187.39Z" fill="#C16256"/>
<path d="M307.311 353.498C313.589 354.705 318.13 351.003 318.13 351.003C317.761 349.715 317.414 348.447 317.066 347.158C305.511 303.188 317.618 280.057 317.618 280.057C320.175 302.779 326.249 325.05 348.173 344.684C349.093 345.502 350.054 346.34 351.036 347.158C355.985 346.054 360.566 337.914 360.566 337.914C359.789 337.014 359.053 336.094 358.358 335.194C334.102 303.965 346.373 270.527 335.288 249.871C329.398 238.868 306.043 245.76 297.167 256.026C282.217 302.82 299.478 338.61 307.311 353.498Z" fill="#333333"/>
<path d="M300.542 191.91C300.869 191.91 301.565 192.054 301.544 191.604C301.503 191.501 301.401 191.44 301.299 191.481C300.644 191.685 299.703 191.338 299.581 191.031C299.54 190.929 299.683 190.826 299.806 190.765C300.91 190.233 302.383 187.145 301.38 187.861C301.38 187.881 300.624 189.906 299.622 190.417C298.538 191.174 299.683 191.788 300.542 191.91Z" fill="#C16256"/>
<path d="M353.593 342.801L354.309 342.126C354.125 341.921 335.044 321.552 329.644 303.575C324.245 285.557 324.838 255.923 324.838 255.616L323.857 255.596C323.857 255.902 323.243 285.68 328.704 303.861C334.164 322.084 353.389 342.596 353.593 342.801Z" fill="#1E1C20"/>
<path d="M316.717 190.5C316.124 193.936 314.897 197.781 312.156 200.01C313.69 198.169 314.692 193.997 314.692 193.997L314.017 192.136C302.135 188.107 303.301 178.556 303.301 178.556C310.97 173.198 318.394 182.647 316.717 190.5Z" fill="#E57D61"/>
<path d="M304.548 177.716C304.548 177.716 303.444 187.144 314.079 191.173L317.944 189.108C321.789 181.847 315.163 170.988 304.548 177.716Z" fill="#333333"/>
<path d="M317.065 174.977C314.468 183.935 304.017 181.072 306.348 172.032C308.946 163.095 319.396 165.958 317.065 174.977Z" fill="#333333"/>
<path d="M318.866 192.258C318.027 196.124 313.16 195.019 314.08 191.174C314.919 187.309 319.786 188.413 318.866 192.258Z" fill="#F99370"/>
<path d="M317.598 193.055C318.416 192.217 318.129 190.499 317.7 190.213C316.923 189.579 315.532 189.906 315.634 190.294C315.88 190.683 316.677 189.865 317.434 190.499C318.211 191.072 317.127 192.728 317.598 193.055Z" fill="#C16256"/>
<path d="M315.759 192.749C316.168 192.729 316.331 191.277 317.886 191.134C317.988 191.134 318.07 191.031 318.07 190.929C316.986 190.111 315.023 192.831 315.759 192.749Z" fill="#C16256"/>
<path d="M316.7 194.037C316.7 194.61 315.8 194.59 315.821 194.017C315.8 193.444 316.721 193.465 316.7 194.037Z" fill="#F4D4BE"/>
<path d="M318.13 351.002C318.13 351.002 313.59 354.724 307.311 353.497C307.311 353.497 306.616 352.352 305.512 350.204C305.512 350.204 313.038 350.92 317.087 347.137C317.394 348.405 317.742 349.693 318.13 351.002Z" fill="#1E1C20"/>
<path d="M317.065 347.138C317.188 347.587 317.29 348.037 317.413 348.487H315.163C307.31 324.927 305.919 286.151 317.597 280.057C317.597 280.057 305.51 303.167 317.065 347.138Z" fill="#1E1C20"/>
<path d="M309.705 352.168C303.529 338.098 299.418 324.354 297.475 311.327C295.921 300.896 295.736 290.896 296.943 281.611C298.988 265.761 304.469 257.355 304.51 257.273L305.226 257.744C305.165 257.826 299.806 266.108 297.782 281.774C295.921 296.234 296.616 320.141 310.502 351.8L309.705 352.168Z" fill="#1E1C20"/>
<path d="M295.183 233.242C296.819 238.028 299.294 243.039 296.226 252.508C295.878 255.023 297.105 255.984 297.105 255.984C308.906 259.931 325.738 256.332 335.841 251.505C341.628 246.802 333.734 237.844 333.264 234.776C328.335 202.033 317.598 203.444 312.24 203.444C310.481 205.49 306.125 208.864 304.632 205.285C300.991 206.839 299.253 214.979 297.228 218.149C295.142 221.442 294.263 224.08 294.058 226.411C293.874 228.927 294.447 231.054 295.183 233.242Z" fill="#33C470"/>
<path d="M301.279 193.383C300.931 193.383 300.706 193.281 300.686 193.281C300.563 193.219 300.502 193.097 300.563 192.974C300.624 192.851 300.747 192.79 300.87 192.851C300.911 192.872 301.627 193.158 302.363 192.442C302.465 192.36 302.608 192.36 302.711 192.442C302.792 192.544 302.792 192.688 302.711 192.79C302.179 193.26 301.668 193.383 301.279 193.383Z" fill="#C16256"/>
<path d="M306.145 186.347C306.125 186.347 306.084 186.347 306.063 186.326L303.834 185.426C303.712 185.385 303.65 185.242 303.712 185.119C303.752 184.997 303.896 184.935 304.018 184.997L306.248 185.897C306.37 185.937 306.432 186.081 306.37 186.203C306.329 186.285 306.248 186.347 306.145 186.347Z" fill="#C16256"/>
<path d="M301.726 185.161H299.722C299.599 185.161 299.477 185.059 299.477 184.915C299.477 184.793 299.579 184.67 299.722 184.67H301.726C301.849 184.67 301.972 184.772 301.972 184.915C301.972 185.059 301.869 185.161 301.726 185.161Z" fill="#C16256"/>
<path d="M325.391 210.153C327.333 218.988 328.765 228.703 325.104 237.354C318.785 249.993 302.342 250.361 290.316 247.457C288.414 247.109 286.103 246.414 286.696 243.98C287.494 241.26 290.705 242.487 292.77 242.303C314.96 241.587 318.56 234.49 312.261 214.039C309.766 205.408 322.834 201.584 325.391 210.153Z" fill="#F99370"/>
<path d="M289.682 247.416C289.682 247.416 291.032 245.412 289.621 242.16C289.621 242.16 290.419 241.833 291.155 242.263C291.155 242.263 292.668 244.717 291.114 247.784C291.114 247.764 290.439 247.969 289.682 247.416Z" fill="#10325B"/>
<path d="M309.642 210.685C309.417 212.873 310.501 215.614 312.117 219.131C313.732 222.67 315 226.985 313.528 230.564C312.055 234.143 309.438 237.395 304.754 238.233C300.459 238.99 296.001 239.931 295.531 242.139C295.531 242.139 296.103 245.596 294.59 248.295C294.59 248.295 296.349 253.858 310.89 252.058C325.431 250.259 332.262 234.491 333.08 227.701C334.348 217.209 328.58 207.351 320.747 204.222C312.894 201.114 309.99 207.311 309.642 210.685Z" fill="#0EA44D"/>
<path d="M348.152 344.683C349.073 345.501 350.034 346.339 351.016 347.158C355.965 346.053 360.546 337.913 360.546 337.913C359.769 337.014 359.033 336.093 358.337 335.193C358.317 335.173 354.288 342.679 348.152 344.683Z" fill="#1E1C20"/>
<path d="M240.445 176.97L235.156 180.539L293.606 267.148L298.895 263.579L240.445 176.97Z" fill="#EB5648"/>
<path d="M268.297 218.235L263.008 221.805L293.6 267.135L298.889 263.566L268.297 218.235Z" fill="#CE3932"/>
<path opacity="0.4" d="M237.79 178.749C255.246 166.755 259.673 142.883 247.68 125.428C235.687 107.973 211.814 103.545 194.359 115.538C176.904 127.531 172.476 151.404 184.47 168.859C196.463 186.314 220.335 190.742 237.79 178.749Z" fill="white"/>
<path opacity="0.4" d="M174.54 146.998C174.519 151.027 175.071 155.076 176.258 159.024L179.182 157.653L182.107 156.283L244.75 126.833L250.599 124.092C250.496 123.949 250.394 123.786 250.292 123.642C248.042 120.37 245.384 117.507 242.459 115.094L239.248 116.607L235.935 118.161L181.064 143.93L177.75 145.485L174.54 146.998Z" fill="white"/>
<path opacity="0.4" d="M178.344 164.525C179.325 166.631 180.491 168.697 181.841 170.66C184.172 174.035 186.913 176.98 189.94 179.434L193.171 177.92L196.505 176.346L251.049 150.699L254.362 149.145L257.614 147.611C257.696 141.21 256.305 134.931 253.523 129.164L247.756 131.884L184.111 161.805L181.227 163.154L178.344 164.525Z" fill="white"/>
<path d="M189.939 179.436C212.702 199.233 252.357 185.039 256.918 154.71C264.035 119.206 222.661 91.801 192.557 112.887C169.61 128.102 168.751 162.931 189.939 179.436ZM247.755 131.906C263.258 164.015 225.729 196.083 196.484 176.368C186.012 169.578 179.713 156.387 181.063 143.932C184.151 108.796 232.519 100.043 247.755 131.906Z" fill="#CE3932"/>
<path d="M282.175 238.806L283.914 241.403C282.237 241.914 280.457 241.935 280.457 241.935C278.985 241.771 276.449 241.751 276.449 241.751C273.729 243.264 278.964 243.407 279.721 243.755C279.721 243.775 279.721 243.775 279.721 243.796C279.721 243.796 279.905 243.878 277.635 243.673C274.567 245.289 279.087 245.514 279.946 245.616V245.637L279.169 245.8C276.224 247.702 279.946 247.682 280.805 247.498C280.805 247.498 280.805 247.518 280.826 247.518C280.805 247.498 280.539 247.804 280.539 247.804C279.21 249.134 281.419 249.4 282.196 249.154C282.809 249.256 285.897 248.52 289.395 246.802C290.54 246.25 289.824 242.773 288.781 242.058C287.82 241.403 286.47 240.524 285.938 240.299C285.345 240.033 283.832 238.458 282.175 238.806Z" fill="#F99370"/>
<path d="M251.008 202.953C248.575 204.303 247.204 201.01 250.252 201.194L250.211 201.215C251.54 200.499 252.276 202.319 251.008 202.953Z" fill="#F99370"/>
<path d="M249.701 201.605C246.674 202.627 246.531 198.721 249.128 199.703C249.067 199.703 249.394 199.682 249.333 199.682C250.785 199.253 250.989 201.257 249.701 201.605Z" fill="#F99370"/>
<path d="M248.269 200.254L247.205 200.275C245.712 200.254 246.285 198.168 247.512 198.229L248.575 198.209C250.068 198.229 249.516 200.315 248.269 200.254Z" fill="#F99370"/>
<path d="M247.226 198.864L246.162 198.884C244.669 198.864 245.242 196.777 246.469 196.839L247.532 196.818C249.025 196.839 248.473 198.925 247.226 198.864Z" fill="#F99370"/>
<path d="M256.857 200.848C256.857 200.848 257.266 196.083 252.46 194.774C249.863 194.058 250.293 196.022 251.949 196.574C253.606 197.126 255.937 199.948 255.937 199.948L256.857 200.848Z" fill="#F99370"/>
<path d="M262.994 363.377H146.809C146.809 363.377 145.848 357.098 151.963 342.476C155.726 333.477 176.116 322.638 176.484 344.5C181.863 320.736 212.295 315.132 203.153 352.865C203.235 352.681 209.697 338.672 221.191 343.232C232.767 347.813 231.171 357.855 238.575 357.364C245.958 356.914 260.049 347.834 262.994 363.377Z" fill="#9AB1E8"/>
<path d="M250.048 363.396H154.438C154.438 363.396 155.071 343.108 164.356 336.216C173.437 329.488 184.051 338.977 187.242 351.78C191.414 362.231 200.924 345.992 207.55 345.522C208.716 345.256 209.902 345.235 211.109 345.522C217.142 346.994 216.712 358.263 225.466 358.263C235.037 358.263 234.791 353.027 241.52 352.884C249.271 352.741 250.048 363.396 250.048 363.396Z" fill="#ABC1EF"/>
<path d="M157.258 302.574C155.479 300.692 135.682 315.499 133.984 318.649C133.636 315.397 132.88 311.572 131.489 307.38C134.25 307.216 153.024 287.767 151.184 285.885C149.118 284.331 131.959 302.635 130.998 305.948C129.832 302.697 128.258 299.22 126.172 295.579C128.544 295.968 144.414 272.04 142.103 270.731C139.833 269.401 125.333 291.898 125.681 294.741C124.188 292.225 122.449 289.628 120.404 286.99C123.104 285.783 135.927 262.652 133.698 261.241C131.284 260.28 119.566 282.204 119.423 285.722C117.664 283.533 115.598 281.202 113.492 279.034C115.987 277.296 125.067 252.713 122.674 251.65C120.179 251.097 112.04 274.064 112.285 277.766C110.097 275.455 108.072 273.246 106.19 271.119C108.706 269.136 117.623 244.982 115.25 243.878C112.776 243.346 104.82 265.761 104.902 269.647C102.652 267.09 100.628 264.677 98.8075 262.407C101.303 260.546 110.322 236.168 107.929 235.084C105.454 234.552 97.4781 257.008 97.5804 260.873C95.5557 258.337 93.7968 255.985 92.263 253.838C94.7172 252.733 104.166 227.128 101.691 226.187C99.1756 225.615 90.9541 248.909 91.2813 252.468C89.2157 249.523 87.6 246.987 86.3525 244.86C88.684 243.551 95.2694 216.984 92.7334 216.33C90.2383 216.064 84.7982 239.011 85.2686 242.937C81.2192 236.168 83.1007 233.939 80.033 224.776C74.6133 206.288 70.6253 207.474 76.1268 225.922C78.9286 235.432 80.4011 236.986 83.2848 242.794C80.4011 239.522 61.8721 227.394 60.3586 229.255C58.743 231.362 82.9371 247.048 84.9004 245.678C86.1071 247.723 87.6205 250.116 89.5429 252.877C86.4343 250.218 65.0625 241.403 63.8763 243.571C62.7106 245.944 89.318 256.66 91.0768 255.024C92.5698 257.09 94.2877 259.36 96.2101 261.794C92.4675 259.83 70.2163 255.576 69.48 257.908C69.1323 260.526 95.3716 265.291 97.9076 263.9C99.6664 266.047 101.589 268.338 103.716 270.751C100.178 269.177 76.3926 267.806 75.9631 270.301C75.9018 272.94 103.143 274.167 105.107 272.346C106.988 274.473 109.033 276.682 111.222 278.993C107.233 278.114 84.2255 280.425 84.1846 282.899C84.6959 285.456 110.24 282.634 112.817 280.67C114.903 282.838 116.846 285.047 118.523 287.194C115.823 285.722 89.8293 288.196 89.8906 290.835C90.0338 293.473 118.359 290.385 119.239 288.135C121.161 290.63 122.818 293.105 124.249 295.498C121.284 294.127 95.8215 296.582 95.842 299.179C96.1897 301.797 123.227 298.79 124.944 296.684C126.969 300.263 128.503 303.678 129.628 306.889C127.01 305.212 100.975 305.601 100.832 308.218C100.975 310.857 128.135 310.039 130.037 308.075C131.366 312.145 132.082 315.826 132.409 318.976C129.239 317.278 104.616 315.826 104.186 318.362C104.35 320.96 129.444 322.105 132.573 320.673C133.248 330.04 130.957 336.114 130.916 336.196L132.45 336.789C132.552 336.523 134.945 330.204 134.189 320.285C136.909 320.571 158.73 304.762 157.258 302.574Z" fill="#9358E0"/>
<path d="M153.842 317.831C154.865 316.747 166.379 325.255 167.381 327.075C167.586 325.194 167.995 322.985 168.792 320.551C167.197 320.47 156.256 309.242 157.319 308.158C158.526 307.258 168.506 317.811 169.079 319.713C169.754 317.811 170.654 315.807 171.84 313.7C170.469 313.925 161.205 300.12 162.534 299.343C163.843 298.566 172.31 311.553 172.126 313.209C172.985 311.737 173.987 310.244 175.153 308.71C173.578 308.015 166.093 294.66 167.381 293.842C168.772 293.29 175.623 305.949 175.726 307.994C176.728 306.726 177.934 305.376 179.141 304.108C177.689 303.106 172.351 288.892 173.742 288.258C175.194 287.931 179.959 301.225 179.836 303.352C181.084 302.002 182.27 300.713 183.354 299.486C181.902 298.341 176.666 284.373 178.037 283.718C179.468 283.391 184.152 296.378 184.111 298.627C185.399 297.134 186.565 295.744 187.628 294.414C186.176 293.351 180.879 279.239 182.27 278.605C183.702 278.278 188.385 291.265 188.344 293.514C189.51 292.042 190.512 290.672 191.412 289.424C189.98 288.79 184.438 273.983 185.869 273.431C187.322 273.104 192.169 286.561 191.964 288.627C193.15 286.909 194.071 285.436 194.807 284.209C193.457 283.452 189.551 268.073 191.023 267.684C192.475 267.521 195.686 280.814 195.42 283.084C197.752 279.158 196.647 277.869 198.406 272.552C201.494 261.835 203.805 262.49 200.676 273.206C199.081 278.728 198.222 279.628 196.586 283.002C198.243 281.1 208.959 274.024 209.818 275.088C210.759 276.294 196.791 285.457 195.645 284.679C194.95 285.866 194.071 287.256 192.966 288.872C194.766 287.318 207.119 282.164 207.814 283.411C208.489 284.782 193.109 291.081 192.087 290.12C191.228 291.326 190.246 292.635 189.121 294.046C191.289 292.901 204.174 290.365 204.583 291.715C204.787 293.228 189.612 296.071 188.14 295.273C187.137 296.521 186.013 297.85 184.806 299.261C186.851 298.341 200.615 297.482 200.881 298.914C200.922 300.448 185.154 301.245 183.988 300.182C182.904 301.409 181.718 302.697 180.47 304.047C182.781 303.515 196.116 304.804 196.136 306.235C195.85 307.728 181.043 306.154 179.55 305.029C178.343 306.297 177.239 307.585 176.257 308.833C177.812 307.974 192.884 309.344 192.864 310.857C192.803 312.391 176.36 310.673 175.848 309.364C174.744 310.816 173.783 312.248 172.965 313.639C174.682 312.841 189.428 314.191 189.428 315.684C189.224 317.197 173.558 315.541 172.556 314.314C171.39 316.4 170.51 318.384 169.876 320.245C171.39 319.263 186.463 319.427 186.565 320.94C186.483 322.474 170.756 322.065 169.651 320.94C168.895 323.312 168.486 325.439 168.302 327.259C170.122 326.278 184.397 325.357 184.663 326.83C184.581 328.323 170.04 329.059 168.22 328.241C167.852 333.681 169.201 337.178 169.222 337.219L168.343 337.567C168.281 337.403 166.87 333.763 167.279 328.016C165.684 328.2 152.983 319.099 153.842 317.831Z" fill="#677CC1"/>
<path d="M149.938 363.336C149.938 363.336 166.687 337.873 201.169 335.869C201.169 335.849 181.678 359.654 149.938 363.336Z" fill="#F49F9F"/>
<path d="M150.324 363.274C150.324 363.274 155.253 338.426 190.798 319.283C190.798 319.283 182.188 346.013 150.324 363.274Z" fill="#F9C0C0"/>
<path d="M150.327 363.275C150.327 363.275 148.874 332.843 175.543 310.898C175.564 310.898 173.825 341.617 150.327 363.275Z" fill="#F49F9F"/>
<path d="M150.326 363.273C150.326 363.273 140.939 332.35 160.04 303.207C160.04 303.207 170.982 343.967 150.326 363.273Z" fill="#F9C0C0"/>
<path d="M150.326 363.275C150.326 363.275 134.292 329.407 143.72 303.781C143.72 303.802 158.445 335.542 150.326 363.275Z" fill="#F49F9F"/>
<path d="M150.528 363.295C150.528 363.295 112.673 366.056 93.1211 346.974C93.1211 346.974 128.523 344.561 150.528 363.295Z" fill="#F49F9F"/>
<path d="M150.528 363.294C150.528 363.294 118.46 359.265 99.6445 329.938C99.6445 329.938 141.325 336.564 150.528 363.294Z" fill="#F9C0C0"/>
<path d="M150.529 363.295C150.529 363.295 121.713 349.858 112.551 316.543C112.551 316.543 140.324 333.027 150.529 363.295Z" fill="#F49F9F"/>
<path d="M150.53 363.294C150.53 363.294 129.853 348.651 126.867 308.402C126.867 308.402 147.769 327.156 150.53 363.294Z" fill="#F9C0C0"/>
</g>
<defs>
<clipPath id="clip0_928_5129">
<rect width="439.257" height="365.243" fill="white" transform="translate(16 32)"/>
</clipPath>
</defs>
</svg>
