<svg width="373" height="325" viewBox="0 0 373 325" fill="none" xmlns="http://www.w3.org/2000/svg">
<g clip-path="url(#clip0_963_2274)">
<path d="M359.376 165.064H325.062C322.68 165.064 320.752 163.135 320.752 160.753V113.225C320.752 110.842 322.68 108.914 325.062 108.914H346.842L363.687 126.269V160.697C363.687 163.135 361.758 165.064 359.376 165.064Z" fill="#EBEBEB"/>
<path d="M346.842 108.971V122.356C346.842 124.568 348.657 126.326 350.812 126.326H363.687L346.842 108.971Z" fill="#F5F5F5"/>
<path d="M347.012 123.49C347.012 123.49 346.842 126.723 350.528 127.801C350.642 127.857 350.812 127.857 350.925 127.914C352.627 128.198 363.63 130.183 363.63 129.899C363.63 129.616 363.63 126.326 363.63 126.326H350.755C350.812 126.326 347.636 126.213 347.012 123.49Z" fill="#E0E0E0"/>
<path d="M359.376 165.065C359.376 165.065 359.66 165.065 360.114 164.951C360.567 164.838 361.305 164.668 362.042 164.044C362.779 163.42 363.517 162.399 363.573 161.038C363.573 159.676 363.573 158.032 363.573 156.273C363.573 149.07 363.517 138.805 363.517 126.384L363.573 126.497C358.469 121.222 352.797 115.381 346.728 109.142L346.842 109.198C342.815 109.198 338.618 109.198 334.307 109.198C332.152 109.198 329.94 109.198 327.728 109.198C327.161 109.198 326.594 109.198 326.083 109.198C325.516 109.198 324.949 109.142 324.439 109.255C323.361 109.425 322.397 110.049 321.773 110.957C321.319 111.58 321.036 112.318 321.036 113.055C320.979 113.792 321.036 114.586 321.036 115.381C321.036 116.912 321.036 118.5 321.036 120.031C321.036 123.094 321.036 126.1 321.036 129.106C321.036 135.061 321.036 140.79 321.036 146.235C321.036 148.957 321.036 151.623 321.036 154.232C321.036 155.536 321.036 156.784 321.036 158.032C321.036 158.656 321.036 159.279 321.036 159.903C321.036 160.527 320.979 161.151 321.092 161.718C321.319 162.853 322.057 163.873 323.021 164.497C323.531 164.781 324.042 165.008 324.609 165.065C325.176 165.121 325.743 165.121 326.31 165.121C328.579 165.121 330.734 165.121 332.776 165.121C341 165.121 347.693 165.178 352.343 165.178C354.669 165.178 356.427 165.178 357.675 165.178C358.299 165.178 358.752 165.178 359.036 165.178C359.206 165.065 359.376 165.065 359.376 165.065C359.376 165.065 359.206 165.065 358.923 165.065C358.582 165.065 358.129 165.065 357.561 165.065C356.314 165.065 354.555 165.065 352.23 165.065C347.579 165.065 340.943 165.065 332.663 165.121C330.621 165.121 328.409 165.121 326.197 165.121C325.63 165.121 325.063 165.178 324.495 165.065C323.928 165.008 323.361 164.781 322.794 164.497C321.773 163.873 320.979 162.796 320.752 161.605C320.639 160.981 320.695 160.357 320.639 159.733C320.639 159.109 320.639 158.485 320.639 157.861C320.639 156.614 320.639 155.309 320.639 154.061C320.639 151.452 320.639 148.787 320.639 146.064C320.639 140.62 320.639 134.891 320.639 128.936C320.639 125.987 320.639 122.924 320.639 119.861C320.639 118.33 320.639 116.798 320.639 115.21C320.639 114.416 320.639 113.679 320.639 112.885C320.695 112.091 320.979 111.297 321.433 110.616C322.113 109.652 323.191 109.028 324.325 108.801C324.892 108.688 325.46 108.745 326.027 108.745C326.594 108.745 327.161 108.745 327.672 108.745C329.884 108.745 332.095 108.745 334.251 108.745C338.561 108.745 342.758 108.745 346.785 108.745H346.842L346.899 108.801C352.967 115.04 358.639 120.939 363.744 126.157L363.8 126.213V126.27C363.8 138.691 363.744 149.014 363.744 156.16C363.744 157.975 363.743 159.563 363.687 160.981C363.573 162.399 362.836 163.476 362.099 164.044C361.361 164.668 360.567 164.838 360.114 164.951C359.887 165.008 359.66 165.008 359.546 165.008C359.433 165.065 359.376 165.065 359.376 165.065Z" fill="#E0E0E0"/>
<path d="M363.687 126.326C363.687 126.326 363.573 126.326 363.346 126.383C363.12 126.383 362.779 126.383 362.382 126.383C361.531 126.383 360.34 126.383 358.923 126.44C357.448 126.44 355.69 126.44 353.761 126.496C352.797 126.496 351.776 126.496 350.699 126.496C349.621 126.496 348.487 125.986 347.693 125.078C347.296 124.625 347.012 124.114 346.842 123.604C346.672 123.093 346.615 122.469 346.672 121.959C346.672 120.881 346.672 119.86 346.672 118.896C346.672 116.968 346.672 115.21 346.728 113.735C346.728 112.317 346.785 111.126 346.785 110.275C346.785 109.878 346.785 109.595 346.785 109.311C346.785 109.084 346.785 108.971 346.842 108.971C346.842 108.971 346.842 109.084 346.899 109.311C346.899 109.538 346.899 109.878 346.899 110.275C346.899 111.126 346.899 112.317 346.955 113.735C346.955 115.21 346.955 116.968 347.012 118.896C347.012 119.86 347.012 120.881 347.012 121.959C346.955 122.98 347.239 124.057 347.976 124.908C348.713 125.702 349.734 126.213 350.755 126.213C351.833 126.213 352.854 126.213 353.818 126.213C355.746 126.213 357.505 126.213 358.979 126.269C360.397 126.269 361.588 126.326 362.439 126.326C362.836 126.326 363.12 126.326 363.403 126.326C363.573 126.326 363.687 126.326 363.687 126.326Z" fill="#E0E0E0"/>
<path d="M337.143 121.053C342.155 121.053 346.218 120.977 346.218 120.883C346.218 120.789 342.155 120.713 337.143 120.713C332.131 120.713 328.068 120.789 328.068 120.883C328.068 120.977 332.131 121.053 337.143 121.053Z" fill="#E0E0E0"/>
<path d="M341.397 127.745C348.758 127.745 354.725 127.668 354.725 127.574C354.725 127.48 348.758 127.404 341.397 127.404C334.036 127.404 328.068 127.48 328.068 127.574C328.068 127.668 334.036 127.745 341.397 127.745Z" fill="#E0E0E0"/>
<path d="M341.397 134.438C348.758 134.438 354.725 134.362 354.725 134.268C354.725 134.174 348.758 134.098 341.397 134.098C334.036 134.098 328.068 134.174 328.068 134.268C328.068 134.362 334.036 134.438 341.397 134.438Z" fill="#E0E0E0"/>
<path d="M341.397 141.073C348.758 141.073 354.725 140.997 354.725 140.903C354.725 140.809 348.758 140.732 341.397 140.732C334.036 140.732 328.068 140.809 328.068 140.903C328.068 140.997 334.036 141.073 341.397 141.073Z" fill="#E0E0E0"/>
<path d="M341.397 147.766C348.758 147.766 354.725 147.69 354.725 147.596C354.725 147.502 348.758 147.426 341.397 147.426C334.036 147.426 328.068 147.502 328.068 147.596C328.068 147.69 334.036 147.766 341.397 147.766Z" fill="#E0E0E0"/>
<path d="M341.397 155.991C348.758 155.991 354.725 155.915 354.725 155.821C354.725 155.727 348.758 155.65 341.397 155.65C334.036 155.65 328.068 155.727 328.068 155.821C328.068 155.915 334.036 155.991 341.397 155.991Z" fill="#E0E0E0"/>
<path d="M339.809 155.82H315.421C314.116 155.82 313.039 154.743 313.039 153.438V145.101C313.039 143.796 314.116 142.719 315.421 142.719H339.809C341.113 142.719 342.191 143.796 342.191 145.101V153.438C342.248 154.743 341.17 155.82 339.809 155.82Z" fill="#E0E0E0"/>
<path d="M316.441 146.973H318.71C320.355 146.973 321.432 147.937 321.432 149.468C321.432 150.943 320.298 151.964 318.71 151.964H316.441V146.973ZM318.653 151C319.618 151 320.298 150.432 320.298 149.468C320.298 148.504 319.674 147.937 318.653 147.937H317.632V151H318.653Z" fill="white"/>
<path d="M322 149.468C322 147.994 323.134 146.916 324.722 146.916C326.253 146.916 327.444 147.994 327.444 149.468C327.444 150.943 326.31 152.021 324.722 152.021C323.134 152.021 322 150.943 322 149.468ZM326.253 149.468C326.253 148.504 325.573 147.88 324.722 147.88C323.871 147.88 323.191 148.504 323.191 149.468C323.191 150.432 323.871 151.056 324.722 151.056C325.573 151.056 326.253 150.376 326.253 149.468Z" fill="white"/>
<path d="M327.955 149.468C327.955 147.994 329.089 146.916 330.621 146.916C331.472 146.916 332.209 147.2 332.663 147.767L331.925 148.447C331.585 148.05 331.188 147.88 330.678 147.88C329.77 147.88 329.089 148.504 329.089 149.468C329.089 150.376 329.77 151.056 330.678 151.056C331.188 151.056 331.585 150.886 331.925 150.489L332.663 151.17C332.209 151.737 331.472 152.077 330.621 152.077C329.089 152.021 327.955 150.943 327.955 149.468Z" fill="white"/>
<path d="M336.462 151.907L335.271 150.206L334.08 151.907H332.776L334.591 149.411L332.833 146.973H334.137L335.271 148.561L336.406 146.973H337.654L335.952 149.355L337.824 151.907H336.462Z" fill="white"/>
<path d="M294.152 111.523H260.632C258.307 111.523 256.435 109.651 256.435 107.326V60.9314C256.435 58.606 258.307 56.7344 260.632 56.7344H281.901L298.349 73.6927V107.326C298.349 109.651 296.477 111.523 294.152 111.523Z" fill="#EBEBEB"/>
<path d="M281.901 56.7344V69.7793C281.901 71.9345 283.659 73.6927 285.814 73.6927H298.349L281.901 56.7344Z" fill="#F5F5F5"/>
<path d="M282.071 70.9707C282.071 70.9707 281.901 74.1469 285.531 75.1678C285.644 75.2245 285.814 75.2245 285.928 75.2812C287.573 75.5648 298.349 77.4931 298.349 77.2663C298.349 76.9827 298.349 73.7498 298.349 73.7498H285.814C285.814 73.6931 282.638 73.6364 282.071 70.9707Z" fill="#E0E0E0"/>
<path d="M294.152 111.524C294.152 111.524 294.379 111.524 294.889 111.41C295.343 111.297 296.08 111.127 296.817 110.503C297.498 109.936 298.235 108.915 298.292 107.553C298.292 106.192 298.292 104.604 298.292 102.903C298.292 95.8698 298.235 85.8309 298.235 73.6935L298.292 73.8069C293.301 68.7024 287.743 62.974 281.844 56.8485L281.958 56.9053C277.987 56.9053 273.904 56.9053 269.707 56.9053C267.608 56.9053 265.453 56.9053 263.298 56.9053C262.731 56.9053 262.22 56.9053 261.653 56.9053C261.086 56.9053 260.575 56.9053 260.065 56.962C259.044 57.1321 258.08 57.756 257.456 58.6068C257.002 59.2307 256.775 59.9113 256.719 60.6486C256.662 61.3859 256.719 62.1799 256.719 62.9173C256.719 64.4486 256.719 65.9232 256.719 67.4546C256.719 70.4606 256.719 73.4099 256.719 76.3024C256.719 82.0876 256.719 87.7025 256.719 93.0339C256.719 95.6996 256.719 98.3086 256.719 100.804C256.719 102.052 256.719 103.3 256.719 104.547C256.719 105.171 256.719 105.795 256.719 106.362C256.719 106.986 256.662 107.553 256.775 108.121C257.002 109.255 257.739 110.219 258.647 110.843C259.101 111.127 259.668 111.297 260.178 111.41C260.689 111.467 261.256 111.467 261.823 111.467C264.035 111.467 266.134 111.467 268.175 111.467C276.229 111.467 282.752 111.524 287.289 111.524C289.558 111.524 291.259 111.524 292.507 111.524C293.074 111.524 293.528 111.524 293.868 111.524C293.982 111.524 294.152 111.524 294.152 111.524C294.152 111.524 293.982 111.524 293.698 111.524C293.358 111.524 292.961 111.524 292.337 111.524C291.146 111.524 289.387 111.524 287.119 111.524C282.581 111.524 276.059 111.524 268.005 111.58C265.963 111.58 263.865 111.58 261.653 111.58C261.086 111.58 260.575 111.58 259.951 111.524C259.384 111.467 258.817 111.24 258.307 110.956C257.286 110.333 256.548 109.312 256.265 108.121C256.151 107.497 256.208 106.93 256.151 106.306C256.151 105.682 256.151 105.115 256.151 104.491C256.151 103.243 256.151 101.995 256.151 100.747C256.151 98.1952 256.151 95.6429 256.151 92.9772C256.151 87.6458 256.151 82.0308 256.151 76.2457C256.151 73.3532 256.151 70.4039 256.151 67.3979C256.151 65.9232 256.151 64.3919 256.151 62.8605C256.151 62.1232 256.151 61.3292 256.151 60.5919C256.208 59.7978 256.492 59.0038 256.945 58.3799C257.626 57.4724 258.647 56.7918 259.781 56.6217C260.348 56.5082 260.916 56.565 261.426 56.565C261.993 56.565 262.504 56.565 263.071 56.565C265.226 56.565 267.381 56.565 269.48 56.565C273.677 56.565 277.817 56.565 281.731 56.565H281.787L281.844 56.6217C287.743 62.7471 293.301 68.4755 298.292 73.58L298.349 73.6367V73.6935C298.349 85.8309 298.292 95.8698 298.292 102.903C298.292 104.661 298.292 106.192 298.235 107.61C298.179 109.028 297.385 110.049 296.647 110.616C295.91 111.183 295.173 111.41 294.719 111.467C294.492 111.524 294.322 111.524 294.152 111.524C294.152 111.524 294.208 111.58 294.152 111.524Z" fill="#E0E0E0"/>
<path d="M298.349 73.6927C298.349 73.6927 298.235 73.6927 298.008 73.7494C297.781 73.7494 297.441 73.7494 297.101 73.7494C296.25 73.7494 295.116 73.7494 293.698 73.8062C292.223 73.8062 290.522 73.8062 288.65 73.8629C287.686 73.8629 286.722 73.8629 285.644 73.8629C284.566 73.8629 283.489 73.3524 282.751 72.5017C282.354 72.0479 282.071 71.5942 281.901 71.027C281.73 70.5166 281.73 69.9494 281.73 69.439C281.73 68.4181 281.73 67.3972 281.73 66.433C281.73 64.5613 281.73 62.8598 281.787 61.3852C281.787 59.9672 281.844 58.8329 281.844 57.9821C281.844 57.5851 281.844 57.3015 281.844 57.0747C281.844 56.8478 281.844 56.7344 281.901 56.7344C281.901 56.7344 281.901 56.8478 281.957 57.0747C281.957 57.3015 281.957 57.6418 281.957 57.9821C281.957 58.8329 281.957 59.9672 282.014 61.3852C282.014 62.8598 282.014 64.5613 282.071 66.433C282.071 67.3972 282.071 68.3613 282.071 69.439C282.014 70.4599 282.298 71.4808 283.035 72.2748C283.716 73.0688 284.736 73.5226 285.757 73.5226C286.778 73.5226 287.799 73.5226 288.707 73.5226C290.578 73.5226 292.28 73.5226 293.754 73.5793C295.172 73.5793 296.307 73.636 297.157 73.636C297.554 73.636 297.838 73.636 298.065 73.636C298.235 73.6927 298.349 73.6927 298.349 73.6927Z" fill="#E0E0E0"/>
<path d="M272.429 68.5883C277.315 68.5883 281.277 68.5122 281.277 68.4182C281.277 68.3242 277.315 68.248 272.429 68.248C267.542 68.248 263.581 68.3242 263.581 68.4182C263.581 68.5122 267.542 68.5883 272.429 68.5883Z" fill="#E0E0E0"/>
<path d="M276.626 75.1118C283.83 75.1118 289.671 75.0356 289.671 74.9416C289.671 74.8477 283.83 74.7715 276.626 74.7715C269.421 74.7715 263.581 74.8477 263.581 74.9416C263.581 75.0356 269.421 75.1118 276.626 75.1118Z" fill="#E0E0E0"/>
<path d="M276.626 81.6333C283.83 81.6333 289.671 81.5571 289.671 81.4631C289.671 81.3691 283.83 81.293 276.626 81.293C269.421 81.293 263.581 81.3691 263.581 81.4631C263.581 81.5571 269.421 81.6333 276.626 81.6333Z" fill="#E0E0E0"/>
<path d="M276.626 88.1001C283.83 88.1001 289.671 88.0239 289.671 87.9299C289.671 87.8359 283.83 87.7598 276.626 87.7598C269.421 87.7598 263.581 87.8359 263.581 87.9299C263.581 88.0239 269.421 88.1001 276.626 88.1001Z" fill="#E0E0E0"/>
<path d="M276.626 94.6216C283.83 94.6216 289.671 94.5454 289.671 94.4514C289.671 94.3574 283.83 94.2812 276.626 94.2812C269.421 94.2812 263.581 94.3574 263.581 94.4514C263.581 94.5454 269.421 94.6216 276.626 94.6216Z" fill="#E0E0E0"/>
<path d="M276.626 102.676C283.83 102.676 289.671 102.6 289.671 102.506C289.671 102.412 283.83 102.336 276.626 102.336C269.421 102.336 263.581 102.412 263.581 102.506C263.581 102.6 269.421 102.676 276.626 102.676Z" fill="#E0E0E0"/>
<path d="M274.981 102.505H251.274C249.969 102.505 248.892 101.428 248.892 100.123V92.1263C248.892 90.8218 249.969 89.7441 251.274 89.7441H274.981C276.286 89.7441 277.363 90.8218 277.363 92.1263V100.123C277.42 101.428 276.343 102.505 274.981 102.505Z" fill="#E0E0E0"/>
<path d="M260.065 95.6423C260.065 96.7199 259.271 97.4005 257.966 97.4005H257.002V98.7617H255.868V93.9408H257.966C259.214 93.8841 260.065 94.5647 260.065 95.6423ZM258.93 95.6423C258.93 95.1318 258.59 94.7915 257.909 94.7915H257.002V96.4931H257.909C258.59 96.4931 258.93 96.1528 258.93 95.6423Z" fill="white"/>
<path d="M260.859 93.8848H263.071C264.659 93.8848 265.737 94.849 265.737 96.3236C265.737 97.7982 264.659 98.7624 263.071 98.7624H260.859V93.8848ZM262.957 97.7982C263.922 97.7982 264.545 97.2311 264.545 96.3236C264.545 95.4161 263.922 94.849 262.957 94.849H261.937V97.8549H262.957V97.7982Z" fill="white"/>
<path d="M267.665 94.7922V96.0966H269.877V97.0041H267.665V98.7623H266.53V93.9414H270.16V94.8489H267.665V94.7922Z" fill="white"/>
<path d="M124.849 91.1855H142.942V59.9913H124.849V91.1855Z" fill="#EBEBEB"/>
<path d="M74.3133 91.6895H88.606V52.7249H74.3133V91.6895Z" fill="#EBEBEB"/>
<path d="M81.4063 55.7701C85.4471 55.7701 88.7228 55.6686 88.7228 55.5433C88.7228 55.418 85.4471 55.3164 81.4063 55.3164C77.3655 55.3164 74.0898 55.418 74.0898 55.5433C74.0898 55.6686 77.3655 55.7701 81.4063 55.7701Z" fill="#FAFAFA"/>
<path d="M81.8032 57.6412C85.6248 57.6412 88.7227 57.5397 88.7227 57.4144C88.7227 57.2891 85.6248 57.1875 81.8032 57.1875C77.9817 57.1875 74.8838 57.2891 74.8838 57.4144C74.8838 57.5397 77.9817 57.6412 81.8032 57.6412Z" fill="#FAFAFA"/>
<path d="M81.0091 84.0134C81.1344 84.0134 81.236 78.8586 81.236 72.4999C81.236 66.1411 81.1344 60.9863 81.0091 60.9863C80.8838 60.9863 80.7822 66.1411 80.7822 72.4999C80.7822 78.8586 80.8838 84.0134 81.0091 84.0134Z" fill="#FAFAFA"/>
<path d="M81.2931 87.8151C85.1459 87.8151 88.2692 87.7135 88.2692 87.5882C88.2692 87.4629 85.1459 87.3613 81.2931 87.3613C77.4402 87.3613 74.3169 87.4629 74.3169 87.5882C74.3169 87.7135 77.4402 87.8151 81.2931 87.8151Z" fill="#FAFAFA"/>
<path d="M81.4628 89.5162C85.4409 89.5162 88.6659 89.4147 88.6659 89.2894C88.6659 89.1641 85.4409 89.0625 81.4628 89.0625C77.4847 89.0625 74.2598 89.1641 74.2598 89.2894C74.2598 89.4147 77.4847 89.5162 81.4628 89.5162Z" fill="#FAFAFA"/>
<path d="M88.5763 91.7285H100.09V48.567H88.5763V91.7285Z" fill="#E0E0E0"/>
<path d="M88.4962 68.3598C88.553 68.303 89.2336 68.8135 90.2545 69.6075C91.4455 70.515 92.8634 71.5926 94.3948 72.727C95.9262 73.918 97.3441 74.9956 98.5351 75.9031C99.6128 76.6971 100.237 77.2643 100.18 77.2643C100.123 77.321 99.4426 76.8673 98.365 76.13C97.2874 75.3927 95.756 74.315 94.1679 73.0673C92.5231 71.8195 91.1052 70.6852 90.0843 69.8344C89.0634 68.9836 88.4395 68.4165 88.4962 68.3598Z" fill="#FAFAFA"/>
<path d="M99.8822 71.424C99.9638 71.3288 97.4655 69.0541 94.3022 66.3432C91.1389 63.6324 88.5084 61.5119 88.4269 61.607C88.3454 61.7022 90.8437 63.9769 94.007 66.6878C97.1703 69.3986 99.8007 71.5191 99.8822 71.424Z" fill="#FAFAFA"/>
<path d="M38.6293 91.7344H44.1309L44.1309 50.6146H38.6293L38.6293 91.7344Z" fill="#EBEBEB"/>
<path d="M41.4209 56.5047C42.8305 56.5047 43.9732 56.3777 43.9732 56.2211C43.9732 56.0645 42.8305 55.9375 41.4209 55.9375C40.0113 55.9375 38.8687 56.0645 38.8687 56.2211C38.8687 56.3777 40.0113 56.5047 41.4209 56.5047Z" fill="#FAFAFA"/>
<path d="M41.3076 55.5965C42.7172 55.5965 43.8599 55.4695 43.8599 55.3129C43.8599 55.1563 42.7172 55.0293 41.3076 55.0293C39.8981 55.0293 38.7554 55.1563 38.7554 55.3129C38.7554 55.4695 39.8981 55.5965 41.3076 55.5965Z" fill="#FAFAFA"/>
<path d="M41.4209 88.8328C42.8305 88.8328 43.9732 88.7058 43.9732 88.5492C43.9732 88.3926 42.8305 88.2656 41.4209 88.2656C40.0113 88.2656 38.8687 88.3926 38.8687 88.5492C38.8687 88.7058 40.0113 88.8328 41.4209 88.8328Z" fill="#FAFAFA"/>
<path d="M41.3076 87.9265C42.7172 87.9265 43.8599 87.7996 43.8599 87.643C43.8599 87.4863 42.7172 87.3594 41.3076 87.3594C39.8981 87.3594 38.7554 87.4863 38.7554 87.643C38.7554 87.7996 39.8981 87.9265 41.3076 87.9265Z" fill="#FAFAFA"/>
<path d="M41.5346 82.3116C41.6912 82.3116 41.8181 77.5885 41.8181 71.7622C41.8181 65.936 41.6912 61.2129 41.5346 61.2129C41.3779 61.2129 41.251 65.936 41.251 71.7622C41.251 77.5885 41.3779 82.3116 41.5346 82.3116Z" fill="#FAFAFA"/>
<path d="M63.2665 91.4902H74.2695V50.3705H63.2665L63.2665 91.4902Z" fill="#E0E0E0"/>
<path d="M71.1407 92.009C71.1407 92.009 71.1974 91.9523 71.2542 91.7822C71.3109 91.612 71.4243 91.3851 71.5945 91.1016C71.8213 90.4777 72.2184 89.5702 72.3885 88.3224C72.5587 87.0747 72.6154 85.4299 71.7646 83.7851C71.3109 82.991 70.687 82.197 69.8362 81.6298C68.9855 81.0627 67.8512 80.7224 66.6601 80.8925C66.0929 81.006 65.5258 81.2328 65.0153 81.6298C64.5616 82.0269 64.1645 82.6507 64.2213 83.3881C64.278 84.0687 64.675 84.6926 65.1855 85.1463C65.6959 85.6 66.3765 85.8836 67.0571 85.9403C68.475 86.1105 69.893 85.5433 70.9706 84.5224C72.0482 83.5582 72.7288 82.0836 72.899 80.5522C73.0691 79.0209 72.8422 77.4328 72.3318 75.9581C71.8213 74.4835 70.9706 73.0089 69.6094 71.9313C68.9288 71.4208 68.1347 71.0238 67.2273 71.0238C66.3765 70.9671 65.4123 71.2506 64.7317 71.8745C64.3914 72.2148 64.1646 72.6686 64.1646 73.179C64.1646 73.6895 64.278 74.1432 64.5616 74.5402C65.072 75.3343 65.9228 75.8447 66.7735 76.0716C68.5885 76.4686 70.4601 75.7313 71.5945 74.4268C72.7855 73.1223 73.296 71.4208 73.4661 69.776C73.6363 68.1312 73.5228 66.4864 73.0124 64.9551C72.5019 63.4237 71.5377 62.0625 70.1765 61.3252C68.8721 60.5312 67.2273 60.2476 65.8093 60.8715C65.1287 61.155 64.5049 61.7789 64.3914 62.573C64.278 63.3103 64.4481 64.0476 64.9019 64.6715C65.8093 65.8058 67.3974 66.0327 68.5885 65.6357C69.8362 65.2387 70.8004 64.4446 71.5377 63.5371C73.0124 61.7789 73.693 59.6804 73.7497 57.9222C73.8064 56.1072 73.296 54.5759 72.7288 53.4415C72.1616 52.3072 71.481 51.5699 71.0273 51.1161C70.8004 50.8893 70.5736 50.7191 70.4601 50.6057C70.3467 50.4923 70.2333 50.4355 70.2333 50.4355C70.1765 50.4923 71.4243 51.2863 72.5587 53.4983C73.0691 54.6326 73.5796 56.1072 73.4661 57.8655C73.3527 59.6237 72.7288 61.6088 71.3109 63.2536C70.5736 64.0476 69.6661 64.8416 68.5318 65.1819C67.4541 65.5222 66.0362 65.2954 65.2989 64.3312C64.9586 63.8775 64.7884 63.1968 64.9019 62.6297C65.0153 62.0058 65.469 61.5521 66.0929 61.2685C67.3407 60.758 68.8153 60.9849 70.0064 61.7222C71.2542 62.4595 72.1616 63.7073 72.6154 65.1252C73.0691 66.5431 73.2393 68.1312 73.0691 69.7193C72.899 71.2506 72.3885 72.8954 71.3109 74.0865C70.29 75.2775 68.5318 75.9014 66.9437 75.5611C66.1496 75.391 65.469 74.9372 65.072 74.2566C64.6183 73.6328 64.675 72.782 65.1855 72.2716C65.6959 71.7611 66.4899 71.4775 67.2273 71.5342C67.9646 71.591 68.7019 71.8745 69.3258 72.385C70.5736 73.3492 71.3676 74.7104 71.878 76.1283C72.3885 77.5462 72.6154 79.0776 72.4452 80.4955C72.2751 81.9134 71.7079 83.2746 70.687 84.1821C69.7228 85.0896 68.4183 85.6567 67.1705 85.4866C65.9795 85.3732 64.7884 84.4657 64.7317 83.3313C64.675 82.7642 64.9586 82.2537 65.3556 81.9134C65.7526 81.5731 66.2631 81.3463 66.7735 81.2328C67.8511 81.0627 68.8721 81.3463 69.7228 81.9134C70.5168 82.4239 71.1974 83.1612 71.5945 83.8985C72.4452 85.4299 72.4452 87.0747 72.2751 88.2657C72.1049 89.5135 71.8213 90.421 71.5945 91.0448C71.3109 91.6687 71.1407 92.009 71.1407 92.009Z" fill="#FAFAFA"/>
<path d="M44.0764 91.5137H63.1333L63.1333 54.0238H44.0764V91.5137Z" fill="#FAFAFA"/>
<path d="M53.9553 60.532C59.0611 60.532 63.2002 60.405 63.2002 60.2484C63.2002 60.0918 59.0611 59.9648 53.9553 59.9648C48.8495 59.9648 44.7104 60.0918 44.7104 60.2484C44.7104 60.405 48.8495 60.532 53.9553 60.532Z" fill="#E0E0E0"/>
<path d="M53.5587 63.368C58.6018 63.368 62.6901 63.241 62.6901 63.0844C62.6901 62.9277 58.6018 62.8008 53.5587 62.8008C48.5155 62.8008 44.4272 62.9277 44.4272 63.0844C44.4272 63.241 48.5155 63.368 53.5587 63.368Z" fill="#E0E0E0"/>
<path d="M53.445 87.5301C58.7388 87.5301 63.0302 87.4031 63.0302 87.2465C63.0302 87.0899 58.7388 86.9629 53.445 86.9629C48.1513 86.9629 43.8599 87.0899 43.8599 87.2465C43.8599 87.4031 48.1513 87.5301 53.445 87.5301Z" fill="#E0E0E0"/>
<path d="M53.4452 84.1824C58.6136 84.1824 62.8035 84.0554 62.8035 83.8988C62.8035 83.7422 58.6136 83.6152 53.4452 83.6152C48.2768 83.6152 44.0869 83.7422 44.0869 83.8988C44.0869 84.0554 48.2768 84.1824 53.4452 84.1824Z" fill="#E0E0E0"/>
<path d="M100.037 91.1895H111.041V50.0697H100.037V91.1895Z" fill="#EBEBEB"/>
<path d="M107.95 91.7258C107.95 91.7258 108.007 91.6691 108.063 91.499C108.12 91.3288 108.233 91.1019 108.404 90.8184C108.63 90.1945 109.027 89.287 109.198 88.0392C109.368 86.7915 109.424 85.1467 108.574 83.5019C108.12 82.7078 107.496 81.9138 106.645 81.3466C105.795 80.7795 104.66 80.4392 103.469 80.6093C102.902 80.7227 102.335 80.9496 101.824 81.3466C101.371 81.7437 100.974 82.3675 101.03 83.1049C101.087 83.7855 101.484 84.4093 101.995 84.8631C102.505 85.3168 103.186 85.6004 103.866 85.6571C105.284 85.8273 106.702 85.2601 107.78 84.2392C108.857 83.275 109.538 81.8004 109.708 80.269C109.878 78.7377 109.651 77.1496 109.141 75.6749C108.63 74.2003 107.78 72.7257 106.418 71.648C105.738 71.1376 104.944 70.7406 104.036 70.7406C103.186 70.6839 102.221 70.9674 101.541 71.5913C101.201 71.9316 100.974 72.3854 100.974 72.8958C100.974 73.4063 101.087 73.86 101.371 74.257C101.881 75.0511 102.732 75.5615 103.583 75.7884C105.398 76.1854 107.269 75.4481 108.404 74.1436C109.595 72.8391 110.105 71.1376 110.275 69.4928C110.445 67.848 110.332 66.2032 109.821 64.6719C109.311 63.1405 108.347 61.7793 106.986 61.042C105.681 60.248 104.036 59.9644 102.618 60.5883C101.938 60.8718 101.314 61.4957 101.201 62.2898C101.087 63.0271 101.257 63.7644 101.711 64.3883C102.618 65.5226 104.206 65.7495 105.398 65.3525C106.645 64.9555 107.61 64.1614 108.29 63.2539C109.765 61.4957 110.445 59.3972 110.502 57.639C110.559 55.824 110.048 54.2927 109.481 53.1583C108.914 52.024 108.233 51.2867 107.78 50.8329C107.553 50.6061 107.326 50.4359 107.212 50.3225C107.099 50.2091 106.986 50.1523 106.986 50.1523C106.929 50.2091 108.177 51.0031 109.311 53.2151C109.821 54.3494 110.332 55.824 110.218 57.5823C110.105 59.3405 109.481 61.3256 108.063 62.9704C107.326 63.7644 106.418 64.5584 105.284 64.8987C104.206 65.239 102.789 65.0122 102.051 64.048C101.711 63.5942 101.541 62.9136 101.654 62.3465C101.768 61.7226 102.221 61.2689 102.845 60.9853C104.093 60.4748 105.568 60.7017 106.759 61.439C108.007 62.1763 108.914 63.4241 109.368 64.842C109.821 66.2599 109.992 67.848 109.821 69.4361C109.651 70.9674 109.141 72.6122 108.063 73.8033C107.042 74.9943 105.284 75.6182 103.696 75.2779C102.902 75.1078 102.221 74.654 101.824 73.9734C101.371 73.3496 101.427 72.4988 101.938 71.9883C102.448 71.4779 103.242 71.1943 103.98 71.251C104.717 71.3077 105.454 71.5913 106.078 72.1018C107.326 73.066 108.12 74.4272 108.63 75.8451C109.141 77.263 109.368 78.7944 109.198 80.2123C109.027 81.6302 108.46 82.9914 107.439 83.8989C106.475 84.8064 105.171 85.3735 103.923 85.2034C102.732 85.09 101.541 84.1825 101.484 83.0481C101.427 82.481 101.711 81.9705 102.108 81.6302C102.505 81.2899 103.015 81.0631 103.526 80.9496C104.604 80.7795 105.624 81.0631 106.475 81.6302C107.269 82.1407 107.95 82.878 108.347 83.6153C109.198 85.1467 109.198 86.7915 109.027 87.9825C108.857 89.2303 108.574 90.1378 108.347 90.7616C108.063 91.3855 107.95 91.7258 107.95 91.7258Z" fill="#FAFAFA"/>
<path d="M23.3608 91.2148H38.6177L38.6177 47.9966H23.3608L23.3608 91.2148Z" fill="#E0E0E0"/>
<path d="M111.022 91.1895H125.314V52.7354H111.022V91.1895Z" fill="#E0E0E0"/>
<path d="M125.702 71.9341C125.759 71.8774 126.439 72.7849 127.971 73.5222C128.708 73.9192 129.729 74.2028 130.863 74.3162C131.998 74.4297 133.245 74.2028 134.437 73.6924C135.628 73.1819 136.762 72.5013 137.84 72.1043C138.974 71.7073 140.052 71.5938 140.959 71.8207C141.866 72.0476 142.434 72.5013 142.774 72.8983C143.114 73.2953 143.171 73.5789 143.114 73.5789C143.058 73.5789 142.944 73.3521 142.66 73.0118C142.32 72.6715 141.753 72.2744 140.902 72.1043C140.108 71.9341 139.031 72.0476 138.01 72.4446C136.932 72.8416 135.854 73.5222 134.607 74.0327C133.359 74.5998 131.998 74.77 130.863 74.6565C129.672 74.5431 128.651 74.1461 127.857 73.7491C127.063 73.2953 126.553 72.8416 126.213 72.5013C125.816 72.161 125.702 71.9341 125.702 71.9341Z" fill="#FAFAFA"/>
<path d="M125.362 75.733C125.419 75.6763 126.099 76.5837 127.63 77.321C128.368 77.7181 129.389 78.0016 130.523 78.1151C131.657 78.2285 132.905 78.0016 134.096 77.4912C135.287 76.9807 136.422 76.3001 137.499 75.9031C138.634 75.5061 139.711 75.3927 140.619 75.6195C141.526 75.8464 142.093 76.3001 142.434 76.6972C142.774 77.0942 142.831 77.3778 142.774 77.3778C142.717 77.3778 142.604 77.1509 142.32 76.8106C141.98 76.4703 141.413 76.0733 140.562 75.9031C139.711 75.733 138.69 75.8464 137.669 76.2434C136.592 76.6404 135.514 77.321 134.266 77.8315C133.019 78.3987 131.657 78.5688 130.523 78.4554C129.332 78.3419 128.311 77.9449 127.517 77.5479C126.723 77.0942 126.213 76.6404 125.872 76.3001C125.475 75.9598 125.362 75.733 125.362 75.733Z" fill="#FAFAFA"/>
<path d="M134.38 63.653C139.235 63.653 143.171 63.5514 143.171 63.4261C143.171 63.3008 139.235 63.1992 134.38 63.1992C129.525 63.1992 125.589 63.3008 125.589 63.4261C125.589 63.5514 129.525 63.653 134.38 63.653Z" fill="#FAFAFA"/>
<path d="M119.123 58.9447C119.066 59.0015 118.669 58.6044 117.875 58.8313C117.535 58.9447 117.081 59.1716 116.911 59.6253C116.741 60.0791 116.854 60.6462 117.251 61.0433C117.648 61.4403 118.215 61.5537 118.669 61.3268C119.123 61.1 119.35 60.703 119.406 60.3059C119.576 59.5119 119.179 59.1149 119.236 59.0582C119.236 59.0582 119.35 59.1149 119.52 59.3418C119.633 59.5686 119.747 59.9089 119.69 60.3627C119.633 60.8164 119.35 61.3268 118.782 61.6671C118.215 62.0074 117.421 61.7806 116.911 61.3268C116.4 60.8731 116.173 60.0224 116.457 59.4552C116.741 58.888 117.308 58.6044 117.705 58.491C118.159 58.4343 118.556 58.491 118.726 58.6044C119.066 58.7746 119.179 58.9447 119.123 58.9447Z" fill="#FAFAFA"/>
<path d="M118.216 87.3605C118.341 87.3605 118.443 81.9771 118.443 75.3365C118.443 68.6958 118.341 63.3125 118.216 63.3125C118.09 63.3125 117.989 68.6958 117.989 75.3365C117.989 81.9771 118.09 87.3605 118.216 87.3605Z" fill="#FAFAFA"/>
<path d="M157.861 90.9902H10V99.441H157.861V90.9902Z" fill="#EBEBEB"/>
<path d="M157.861 90.9902H144.93V99.441H157.861V90.9902Z" fill="#E0E0E0"/>
<path d="M165.291 90.3687L164.554 148.447C164.44 158.316 166.255 172.835 181.909 172.325C195.408 170.85 199.037 158.032 199.151 148.844C199.208 144.477 199.264 140.847 199.264 140.393C199.264 140.393 214.067 139.202 215.315 124.569C215.939 117.479 215.996 102.846 215.882 89.5746C215.769 75.3387 204.709 63.5983 190.53 62.5207L189.112 62.4073C173.798 62.1804 165.064 75.0551 165.291 90.3687Z" fill="#FFBE9D"/>
<path d="M199.264 140.392C199.264 140.392 190.019 140.279 180.604 133.359C180.604 133.359 184.461 144.362 199.151 144.136L199.264 140.392Z" fill="#EB996E"/>
<path d="M190.871 95.5293C190.587 95.8129 188.885 94.4517 186.447 94.395C184.008 94.2815 182.193 95.5293 181.909 95.189C181.796 95.0756 182.079 94.5084 182.873 93.9412C183.667 93.3741 184.972 92.8636 186.503 92.9203C188.035 92.9771 189.282 93.6009 190.02 94.2248C190.757 94.8487 191.041 95.4159 190.871 95.5293Z" fill="#333333"/>
<path d="M190.36 100.633C190.303 101.654 189.396 102.505 188.318 102.505C187.24 102.505 186.39 101.598 186.39 100.577C186.446 99.5558 187.354 98.7051 188.431 98.7051C189.566 98.7051 190.417 99.5558 190.36 100.633Z" fill="#333333"/>
<path d="M196.996 112.602C196.996 112.489 198.414 112.318 200.683 112.205C201.25 112.205 201.817 112.092 201.93 111.751C202.101 111.354 201.874 110.73 201.647 109.993C201.193 108.575 200.739 107.044 200.286 105.512C198.357 99.1033 197.053 93.8854 197.28 93.772C197.563 93.7152 199.265 98.8198 201.193 105.229C201.647 106.817 202.101 108.291 202.498 109.766C202.668 110.447 203.008 111.184 202.611 112.035C202.441 112.432 201.987 112.715 201.59 112.829C201.193 112.942 200.91 112.886 200.626 112.886C198.414 112.829 196.996 112.715 196.996 112.602Z" fill="#333333"/>
<path d="M189.849 86.3408C189.623 86.9079 187.637 86.4542 185.312 86.5676C182.987 86.6243 181.058 87.1915 180.775 86.6811C180.661 86.4542 181.002 85.9437 181.796 85.4333C182.59 84.9228 183.837 84.5258 185.255 84.4691C186.673 84.4124 187.921 84.7527 188.772 85.1497C189.509 85.6034 189.963 86.0572 189.849 86.3408Z" fill="#333333"/>
<path d="M213.103 90.8789C212.82 91.3327 210.948 90.8222 208.623 90.7655C206.297 90.6521 204.369 90.9924 204.142 90.5386C204.029 90.3117 204.426 89.9147 205.22 89.5744C206.014 89.2341 207.262 88.9505 208.623 89.0073C209.984 89.064 211.232 89.4043 212.026 89.858C212.82 90.255 213.217 90.6521 213.103 90.8789Z" fill="#333333"/>
<path d="M165.688 101.258C165.461 101.145 155.876 97.5716 155.422 107.554C155.025 117.593 165.177 115.948 165.177 115.664C165.177 115.381 165.688 101.258 165.688 101.258Z" fill="#FFBE9D"/>
<path d="M162.285 111.75C162.228 111.693 162.115 111.863 161.831 111.977C161.548 112.09 161.037 112.147 160.527 111.977C159.506 111.523 158.655 109.821 158.712 108.007C158.712 107.099 158.939 106.248 159.279 105.511C159.619 104.774 160.13 104.32 160.64 104.206C161.151 104.093 161.548 104.433 161.661 104.717C161.775 105.001 161.718 105.227 161.775 105.227C161.775 105.227 162.001 105.057 161.945 104.66C161.888 104.433 161.831 104.206 161.604 104.036C161.378 103.809 161.037 103.696 160.64 103.753C159.846 103.753 159.166 104.433 158.769 105.227C158.315 106.021 158.088 106.986 158.031 108.007C158.031 110.048 158.995 111.977 160.413 112.43C161.094 112.657 161.718 112.43 162.001 112.204C162.285 111.977 162.342 111.75 162.285 111.75Z" fill="#EB996E"/>
<path d="M194.67 119.521C194.784 119.294 192.799 118.67 191.438 116.856C190.757 115.948 190.36 114.984 190.076 114.247C189.793 113.509 189.566 113.055 189.452 113.112C189.339 113.169 189.396 113.623 189.509 114.417C189.679 115.211 190.02 116.345 190.814 117.366C191.608 118.387 192.629 119.011 193.366 119.351C194.103 119.578 194.614 119.635 194.67 119.521Z" fill="#333333"/>
<path d="M235.28 76.4157C235.109 75.8485 234.712 75.3381 234.145 75.0545C233.011 74.3739 231.706 74.4873 230.402 74.4306C226.545 74.3739 222.688 73.1828 219.399 71.0843C217.867 68.8723 216.166 66.8305 214.294 64.9022C209.87 60.3081 206.24 57.2454 202.44 55.714C197.563 53.7289 189.396 52.9349 184.291 54.2961C179.187 55.6573 174.649 59.7409 173.912 64.9589C171.076 62.52 166.766 62.5768 163.306 63.938L163.192 63.8813C159.336 65.2425 157.124 69.3261 155.989 73.2963C154.855 77.2664 154.345 81.4635 152.246 84.9799C151.792 85.7173 151.282 86.6247 151.679 87.362C151.962 87.9292 152.756 88.2128 153.38 88.0994C154.061 87.9859 154.628 87.6456 155.195 87.3053C154.742 88.3262 154.345 89.3471 153.891 90.4248C155.309 90.6516 156.727 90.5382 158.088 90.1412C158.939 93.8278 159.903 98.0248 160.867 100.52C162.512 100.52 163.986 100.634 164.951 101.541C166.312 102.732 166.936 105.058 169.148 104.207C170.282 103.753 171.36 101.371 171.7 100.18C174.252 92.4099 175.103 84.1292 174.195 76.0187C175.784 74.3172 177.712 72.8992 179.867 71.9351L179.697 72.1052C183.781 70.6873 188.431 69.2694 192.288 71.1977C195.294 72.6724 197.052 75.7918 199.321 78.2873C203.575 82.9948 209.303 85.5471 215.655 85.8307C215.882 89.971 215.542 95.7561 215.769 99.8965L219.229 93.3173V93.374C219.512 92.8636 219.739 92.4099 219.966 91.8994L220.023 91.7292C220.363 90.9352 220.703 90.1412 221.157 89.4039C221.157 89.4039 221.157 89.4039 221.214 89.4606C223.426 91.4457 226.715 88.4397 224.957 86.0008C224.617 85.5471 224.163 85.0934 223.709 84.7531C224.73 85.7173 226.262 86.171 227.566 85.774C228.927 85.377 229.948 84.0157 229.835 82.5978C229.778 81.6336 229.097 80.7829 228.19 80.4426C230.005 80.556 231.82 80.2157 233.408 79.3082C234.656 78.6844 235.62 77.7202 235.28 76.4157Z" fill="#333333"/>
<path d="M178.563 66.6035C178.619 66.6602 177.939 67.0005 177.088 67.9647C176.237 68.9289 175.273 70.5737 174.819 72.8424C174.592 73.9767 174.422 75.2245 174.422 76.5857C174.422 77.9469 174.536 79.3648 174.649 80.8962C174.762 82.4275 174.876 84.0156 174.762 85.7171C174.706 86.5679 174.592 87.4186 174.422 88.2694C174.252 89.1201 174.025 90.0276 173.401 90.7082C172.891 91.2754 172.04 91.559 171.359 91.3888C170.622 91.2754 169.998 90.8783 169.488 90.3679C168.524 89.2903 168.297 87.8724 168.07 86.6246L168.353 86.6813C167.843 87.7589 167.333 88.8933 166.595 89.744C165.858 90.5948 164.78 91.2187 163.759 91.2754C163.249 91.3321 162.682 91.2187 162.228 90.9918C161.774 90.7649 161.434 90.3679 161.207 89.9709C160.98 89.5739 160.867 89.1201 160.924 88.6664C160.924 88.2127 161.094 87.8156 161.377 87.532L161.547 87.6455C160.413 88.95 159.222 89.6306 158.428 90.0276C158.031 90.1977 157.691 90.3112 157.464 90.4246C157.237 90.4813 157.124 90.538 157.124 90.538C157.124 90.538 157.237 90.4813 157.464 90.4246C157.691 90.3112 158.031 90.1977 158.428 90.0276C159.222 89.6306 160.356 88.8933 161.434 87.6455L161.604 87.7589C161.094 88.2694 161.094 89.1768 161.491 89.9142C161.718 90.2545 162.001 90.5948 162.398 90.8216C162.795 90.9918 163.306 91.1052 163.759 91.0485C164.724 90.9351 165.688 90.4246 166.425 89.5739C167.162 88.7231 167.616 87.7022 168.127 86.5679L168.353 86.1141L168.467 86.6246C168.694 87.8724 168.977 89.1768 169.828 90.1977C170.282 90.6515 170.849 91.0485 171.473 91.1619C172.097 91.2754 172.777 91.0485 173.231 90.5948C173.798 89.9709 174.025 89.1201 174.195 88.3261C174.365 87.4753 174.479 86.6813 174.536 85.8305C174.649 84.1858 174.536 82.5977 174.422 81.0663C174.309 79.535 174.252 78.117 174.252 76.7558C174.252 75.3946 174.422 74.1469 174.649 73.0125C175.16 70.7438 176.124 69.0423 177.031 68.1349C177.939 66.9438 178.563 66.6035 178.563 66.6035Z" fill="#02344D"/>
<path d="M223.823 80.8388C223.823 80.8388 223.766 80.8955 223.709 80.9522C223.596 81.0089 223.483 81.1224 223.369 81.2358C223.199 81.3492 223.029 81.5194 222.745 81.6328C222.518 81.803 222.178 81.9731 221.838 82.0866C220.477 82.7105 218.321 83.3911 215.599 83.2209C212.877 83.0508 209.644 82.0866 206.751 79.988C203.802 77.8895 201.25 74.7701 199.151 71.2536C198.073 69.4954 197.223 67.6805 196.258 65.979C195.294 64.2775 194.273 62.7461 192.969 61.4983C191.721 60.2506 190.246 59.3431 188.772 58.9461C188.035 58.7192 187.297 58.6625 186.56 58.6625C185.823 58.7192 185.142 58.8326 184.518 59.0595C183.27 59.4565 182.249 60.1938 181.455 60.8745C180.661 61.6118 180.151 62.3491 179.811 63.0297C179.13 64.3909 179.13 65.2417 179.073 65.2417C179.073 65.2417 179.073 65.1849 179.073 65.0715C179.073 64.9581 179.13 64.7879 179.13 64.6178C179.187 64.2207 179.357 63.6536 179.697 62.973C180.037 62.2924 180.548 61.4983 181.342 60.761C182.136 60.0237 183.157 59.2864 184.461 58.8326C185.085 58.6058 185.823 58.4356 186.56 58.3789C187.297 58.3789 188.091 58.3789 188.885 58.6058C190.473 59.0028 191.948 59.967 193.252 61.2148C194.557 62.4625 195.635 64.0506 196.599 65.7521C197.563 67.4536 198.414 69.2685 199.491 71.0268C201.59 74.5432 204.085 77.6059 206.978 79.7045C209.814 81.8597 212.99 82.7672 215.656 82.994C218.321 83.1642 220.477 82.597 221.838 81.9731C223.142 81.3493 223.823 80.8388 223.823 80.8388Z" fill="#02344D"/>
<path d="M225.184 74.4306C225.184 74.4306 225.014 74.6008 224.673 74.7709C224.333 74.9978 223.823 75.2814 223.142 75.5649C222.461 75.8485 221.611 76.1321 220.703 76.359C219.739 76.5858 218.661 76.756 217.584 76.756C216.449 76.8127 215.372 76.6993 214.408 76.5291C213.443 76.359 212.593 76.1321 211.912 75.9052C211.231 75.6784 210.664 75.3948 210.324 75.2246C209.984 75.0545 209.757 74.9411 209.757 74.8843C209.757 74.8276 210.608 75.2246 211.969 75.6784C212.649 75.9052 213.5 76.0754 214.464 76.2455C215.429 76.359 216.449 76.4724 217.584 76.4157C218.661 76.359 219.739 76.2455 220.646 76.0187C221.554 75.7918 222.405 75.5649 223.085 75.2814C224.333 74.8276 225.127 74.3739 225.184 74.4306Z" fill="#02344D"/>
<path d="M213.217 96.4942C212.933 96.7777 211.232 95.4165 208.793 95.3598C206.354 95.2464 204.539 96.4942 204.255 96.1539C204.142 96.0404 204.426 95.4732 205.22 94.9061C206.014 94.3389 207.318 93.8285 208.85 93.8852C210.381 93.9419 211.629 94.5658 212.366 95.1897C213.103 95.8136 213.33 96.324 213.217 96.4942Z" fill="#333333"/>
<path d="M210.721 101.315C210.664 102.336 209.757 103.187 208.679 103.187C207.602 103.187 206.751 102.279 206.751 101.258C206.808 100.237 207.715 99.3867 208.793 99.3867C209.87 99.4434 210.721 100.294 210.721 101.315Z" fill="#333333"/>
<path d="M302.092 154.799C302.092 150.545 298.009 150.545 298.009 150.545C296.477 148.504 294.719 149.241 294.719 149.241L288.14 153.665C287.176 155.31 280.767 161.605 280.767 161.605C279.008 160.301 279.008 157.749 276.967 154.572C274.868 151.453 270.161 151.793 270.161 151.793C270.161 151.793 273.847 160.131 274.244 165.292C274.641 170.453 271.408 184.916 271.408 184.916L290.012 190.134C290.012 190.134 291.203 182.194 293.244 181.57C295.74 180.776 297.158 177.089 297.158 177.089C299.88 171.587 305.382 163.647 306.119 159.563C306.913 155.537 302.092 154.799 302.092 154.799Z" fill="#FFBE9D"/>
<path d="M163.873 145.609C175.727 153.039 187.637 155.818 199.718 151.054L217.867 155.705L235.733 275.094L130.977 276.002L136.138 248.267L149.126 148.615L163.873 145.609Z" fill="#02344D"/>
<path d="M217.867 155.705C217.867 155.705 231.99 161.547 237.378 171.869C242.766 182.135 251.444 211.004 251.444 211.004L267.381 181.681L296.987 189.281C296.987 189.281 274.924 250.082 269.423 255.64C263.354 261.709 246.85 267.834 238.739 263.07C230.628 258.363 228.984 240.44 228.984 240.44L217.867 155.705Z" fill="#02344D"/>
<path d="M218.888 205.616C218.982 205.616 219.059 200.309 219.059 193.762C219.059 187.215 218.982 181.908 218.888 181.908C218.794 181.908 218.718 187.215 218.718 193.762C218.718 200.309 218.794 205.616 218.888 205.616Z" fill="#333333"/>
<path d="M224.39 162.512C224.447 162.512 224.163 163.249 223.709 164.44C223.255 165.631 222.688 167.276 222.121 169.148C221.554 171.019 221.1 172.721 220.76 173.969C220.476 175.216 220.25 175.954 220.25 175.954C220.25 175.954 220.249 175.727 220.306 175.386C220.363 175.046 220.476 174.536 220.59 173.912C220.873 172.664 221.27 170.906 221.838 169.034C222.405 167.163 223.029 165.518 223.539 164.327C223.766 163.759 223.993 163.249 224.163 162.965C224.276 162.682 224.39 162.512 224.39 162.512Z" fill="#333333"/>
<path d="M147.198 193.309L150.488 148.332C150.488 148.332 125.816 150.601 117.649 168.013C110.786 182.646 91.7858 226.771 89.744 232.84C83.7887 250.536 93.0903 274.867 131.488 273.506L135.855 249.458L147.198 193.309Z" fill="#02344D"/>
<path d="M119.634 254.448C119.634 254.448 119.691 254.278 119.861 253.995C120.031 253.711 120.201 253.314 120.485 252.804C121.052 251.726 121.846 250.251 122.81 248.38C123.037 247.926 123.32 247.416 123.604 246.905C123.888 246.395 124.228 245.827 124.738 245.43C125.249 245.033 125.929 244.863 126.61 244.863C127.291 244.863 127.971 245.033 128.652 245.204C130.013 245.544 131.431 246.054 132.792 246.792C133.473 247.132 134.153 247.529 134.777 248.039L135.004 248.21C135.117 248.266 135.174 248.436 135.174 248.493C135.231 248.72 135.288 248.89 135.288 249.117C135.344 249.514 135.344 249.911 135.288 250.365C135.231 252.01 135.004 253.541 134.834 255.072C134.607 256.604 134.38 258.022 134.153 259.44C133.7 262.219 133.246 264.657 132.849 266.756C132.452 268.798 132.112 270.499 131.885 271.69C131.771 272.258 131.714 272.711 131.601 273.052C131.544 273.335 131.488 273.505 131.488 273.505C131.488 273.505 131.488 273.335 131.544 273.052C131.601 272.768 131.658 272.314 131.771 271.69C131.998 270.499 132.282 268.798 132.622 266.756C133.019 264.657 133.416 262.219 133.87 259.44C134.097 258.078 134.323 256.604 134.494 255.129C134.664 253.598 134.891 252.066 134.947 250.478C134.947 250.081 134.947 249.684 134.947 249.287C134.947 249.117 134.891 248.89 134.834 248.72C134.777 248.607 134.777 248.607 134.72 248.55L134.494 248.38C133.926 247.869 133.246 247.472 132.565 247.132C131.204 246.451 129.843 245.941 128.482 245.601C127.801 245.43 127.12 245.26 126.497 245.26C125.873 245.26 125.249 245.374 124.738 245.771C124.285 246.111 123.944 246.622 123.661 247.132C123.377 247.642 123.094 248.096 122.867 248.607C121.846 250.422 120.995 251.953 120.428 252.974C120.144 253.484 119.917 253.881 119.747 254.165C119.691 254.278 119.634 254.448 119.634 254.448Z" fill="#333333"/>
<path d="M101.768 233.066C101.768 233.066 101.882 233.066 102.052 233.066C102.279 233.066 102.562 233.066 102.902 233.123C103.64 233.18 104.661 233.237 105.965 233.35C107.27 233.463 108.744 233.634 110.446 233.974C112.091 234.314 113.905 234.881 115.72 235.732C117.479 236.583 119.067 237.66 120.371 238.795C121.619 239.929 122.64 241.177 123.207 242.368C123.774 243.559 124.001 244.58 124.058 245.317C124.115 245.658 124.058 245.941 124.058 246.168C124.058 246.338 124.058 246.452 124.058 246.452C124.001 246.452 124.058 246.055 123.944 245.317C123.888 244.637 123.604 243.616 123.037 242.481C122.47 241.347 121.506 240.156 120.201 239.022C118.953 237.887 117.365 236.866 115.607 236.016C113.849 235.165 112.091 234.654 110.389 234.257C108.744 233.917 107.213 233.69 105.965 233.52C104.717 233.35 103.64 233.293 102.959 233.237C102.619 233.18 102.335 233.18 102.108 233.123C101.881 233.066 101.768 233.066 101.768 233.066Z" fill="#333333"/>
<path d="M128.141 230.798C128.198 230.798 127.971 231.479 127.517 232.556C127.12 233.634 126.44 235.109 125.759 236.697C125.079 238.285 124.398 239.703 123.888 240.837C123.434 241.915 123.094 242.539 123.094 242.539C123.037 242.539 123.264 241.858 123.717 240.78C124.114 239.703 124.795 238.228 125.476 236.64C126.156 235.052 126.837 233.634 127.347 232.5C127.858 231.422 128.141 230.741 128.141 230.798Z" fill="#333333"/>
<path d="M141.81 195.351C141.904 195.351 141.98 192.507 141.98 188.999C141.98 185.491 141.904 182.646 141.81 182.646C141.716 182.646 141.64 185.491 141.64 188.999C141.64 192.507 141.716 195.351 141.81 195.351Z" fill="#333333"/>
<g opacity="0.3">
<path d="M124.001 246.338C117.535 248.607 113.111 254.505 111.353 261.141C111.183 261.822 111.069 262.672 111.523 263.183C111.977 263.75 112.941 263.75 113.565 263.353C114.189 262.956 114.643 262.332 114.983 261.708C118.102 256.717 121.165 252.066 124.001 246.338Z" fill="black"/>
</g>
<g opacity="0.3">
<path d="M115.947 233.521C112.544 231.65 108.631 230.799 104.774 230.572C103.242 230.459 101.768 230.629 100.236 230.969C98.1947 231.423 95.8693 232.444 95.4155 233.862C100.066 232.387 106.929 233.351 111.693 234.429C116.514 235.506 120.428 238.229 123.093 242.483C121.959 238.909 119.237 235.393 115.947 233.521Z" fill="black"/>
</g>
<path d="M138.18 176.237C138.18 176.237 138.067 176.011 137.953 175.5C137.84 175.046 137.613 174.366 137.386 173.572C136.876 171.927 135.968 169.772 134.664 167.503C133.359 165.234 131.885 163.419 130.694 162.172C130.126 161.548 129.616 161.037 129.276 160.697C128.935 160.357 128.765 160.187 128.765 160.13C128.765 160.073 128.992 160.3 129.332 160.584C129.729 160.867 130.183 161.378 130.807 162.002C131.998 163.249 133.529 165.064 134.891 167.333C136.195 169.602 137.103 171.814 137.556 173.458C137.783 174.309 137.953 174.933 138.067 175.443C138.18 175.954 138.18 176.237 138.18 176.237Z" fill="#333333"/>
<path d="M147.255 275.946L119.747 209.644C118.5 206.638 120.088 204.143 123.264 204.143H128.765C131.034 204.143 132.565 202.895 132.679 200.967L132.849 198.528C133.019 196.599 134.551 195.352 136.819 195.352H163.136C165.178 195.352 167.503 196.372 169.205 198.017L171.36 200.059C173.061 201.704 175.387 202.725 177.429 202.725H210.891C214.068 202.725 217.641 205.164 218.889 208.226L246.113 275.89H147.255V275.946Z" fill="#0EA44D"/>
<g opacity="0.3">
<path d="M147.255 275.946L119.747 209.644C118.5 206.638 120.088 204.143 123.264 204.143H128.765C131.034 204.143 132.565 202.895 132.679 200.967L132.849 198.528C133.019 196.599 134.551 195.352 136.819 195.352H163.136C165.178 195.352 167.503 196.372 169.205 198.017L171.36 200.059C173.061 201.704 175.387 202.725 177.429 202.725H210.891C214.068 202.725 217.641 205.164 218.889 208.226L246.113 275.89H147.255V275.946Z" fill="black"/>
</g>
<path d="M142.718 253.43L132.339 213.388C131.658 210.722 133.359 208.113 135.798 208.113H217.017C218.605 208.113 220.023 209.304 220.477 211.119L235.563 271.409C236.244 274.075 235.166 275.663 232.784 275.606H151.055C149.467 275.606 148.106 274.359 147.652 272.657L142.718 253.43Z" fill="#E0E0E0"/>
<path d="M148.333 274.131L143.909 211.006C143.739 208.794 145.554 206.865 147.766 206.865H231.934V274.131H148.333Z" fill="#EBEBEB"/>
<path d="M147.369 275.606L157.408 210.552C157.861 208.453 159.79 206.922 162.002 206.922H247.134C250.48 206.922 252.749 210.325 251.444 213.331L233.068 272.884L147.369 275.606Z" fill="#FAFAFA"/>
<path d="M147.255 275.947L167.9 215.033C168.751 212.481 171.076 210.779 173.628 210.779H261.426C264.262 210.779 266.247 213.672 265.339 216.451L246.112 275.947H147.255Z" fill="#0EA44D"/>
<g opacity="0.3">
<path d="M189.679 265.736C189.679 265.736 186.39 265.906 184.858 266.02C177.599 266.53 170.169 265.226 163.533 262.22C161.491 261.312 159.279 260.008 158.655 257.853C157.975 255.414 159.506 252.862 161.434 251.217C163.363 249.572 165.688 248.381 167.39 246.509C169.034 244.581 169.828 241.518 168.184 239.59L167.73 239.93C166.539 242.936 163.249 244.411 160.47 246.112C155.366 249.288 151.509 254.393 149.751 260.121C148.786 263.298 148.503 266.927 150.431 269.65C151.792 271.578 154.004 272.656 156.216 273.45C162.852 275.889 169.942 276.002 177.031 276.002C179.243 276.002 186.163 275.889 186.163 275.889C188.318 275.321 189.055 274.187 190.36 272.372C191.551 270.671 191.267 267.041 189.679 265.736Z" fill="black"/>
</g>
<path d="M189.679 265.736L166.765 262.277L157.861 257.172C156.67 256.491 155.876 255.3 155.819 253.939V253.883C155.762 252.181 156.783 250.65 158.315 250.026C161.15 248.835 165.574 247.247 167.503 243.9C170.225 239.079 167.503 238.115 167.503 238.115L148.389 245.772L134.834 254.96L132.111 270.33L150.998 276.513C150.998 276.513 172.04 277.704 177.825 277.023C183.61 276.399 183.61 273.677 183.61 273.677C184.688 273.336 186.843 271.408 186.843 269.65C189.792 266.984 189.679 265.736 189.679 265.736Z" fill="#FFBE9D"/>
<path d="M160.413 272.316C160.413 272.316 160.753 272.373 161.377 272.487C162.001 272.657 162.852 272.827 163.93 273.054C166.085 273.507 169.091 273.961 172.437 274.075C175.783 274.188 178.846 273.961 181.001 273.734C182.079 273.621 182.986 273.507 183.61 273.394C184.234 273.281 184.574 273.281 184.574 273.281C184.574 273.281 184.234 273.394 183.667 273.564C183.043 273.734 182.192 273.848 181.115 274.018C178.903 274.358 175.897 274.585 172.494 274.472C169.091 274.358 166.085 273.848 163.93 273.337C162.852 273.11 162.001 272.827 161.377 272.657C160.697 272.487 160.413 272.373 160.413 272.316Z" fill="#EB996E"/>
<path d="M162.512 268.799C162.512 268.799 162.852 268.856 163.476 268.969C164.1 269.139 164.951 269.309 166.085 269.536C168.297 269.99 171.36 270.387 174.763 270.5C178.166 270.614 181.228 270.387 183.44 270.103C184.575 269.99 185.425 269.82 186.049 269.763C186.673 269.65 187.013 269.65 187.013 269.65C187.013 269.65 186.673 269.763 186.049 269.933C185.425 270.103 184.575 270.273 183.44 270.444C181.228 270.784 178.109 271.068 174.706 270.954C171.303 270.841 168.183 270.387 166.028 269.876C164.951 269.65 164.043 269.423 163.476 269.196C162.795 268.912 162.512 268.799 162.512 268.799Z" fill="#EB996E"/>
<path d="M297.498 184.121L256.832 192.174C253.997 192.742 251.274 190.927 250.764 188.091L239.647 131.771C239.08 128.935 240.895 126.213 243.731 125.702L269.537 120.598L293.585 137.216L301.639 178.052C302.149 180.831 300.334 183.553 297.498 184.121Z" fill="#EBEBEB"/>
<path d="M269.48 120.598L272.6 136.422C273.11 139.031 275.663 140.732 278.272 140.222L293.528 137.216L269.48 120.598Z" fill="#F5F5F5"/>
<path d="M273.11 137.782C273.11 137.782 273.678 141.639 278.272 142.036C278.442 142.036 278.612 142.036 278.782 142.036C280.824 141.979 294.379 141.752 294.322 141.469C294.266 141.128 293.472 137.215 293.472 137.215L278.215 140.221C278.328 140.221 274.472 140.845 273.11 137.782Z" fill="#E0E0E0"/>
<path d="M297.498 184.121C297.498 184.121 297.555 184.121 297.725 184.064C297.895 184.007 298.065 183.951 298.349 183.837C298.916 183.61 299.71 183.213 300.448 182.306C301.185 181.455 301.809 180.037 301.582 178.336C301.298 176.691 300.901 174.763 300.448 172.664C298.746 164.156 296.307 151.962 293.415 137.216L293.471 137.273C286.212 132.225 278.101 126.61 269.423 120.655H269.537C264.773 121.619 259.782 122.583 254.677 123.604C252.125 124.114 249.516 124.625 246.907 125.135C246.226 125.249 245.602 125.419 244.922 125.532C244.241 125.646 243.56 125.759 242.993 125.986C241.746 126.44 240.725 127.404 240.157 128.595C239.76 129.446 239.647 130.353 239.76 131.317C239.931 132.225 240.101 133.189 240.271 134.097C240.611 135.911 241.008 137.783 241.349 139.598C242.086 143.228 242.766 146.801 243.447 150.318C244.808 157.35 246.169 164.156 247.474 170.622C248.098 173.855 248.722 177.031 249.346 180.094C249.629 181.625 249.97 183.157 250.253 184.631C250.423 185.369 250.537 186.106 250.707 186.843C250.877 187.581 250.934 188.318 251.217 188.998C251.784 190.303 252.862 191.381 254.167 191.834C254.79 192.061 255.528 192.175 256.208 192.118C256.889 192.061 257.57 191.891 258.25 191.778C260.916 191.267 263.468 190.757 265.907 190.246C275.662 188.318 283.603 186.787 289.104 185.709C291.827 185.198 293.982 184.745 295.4 184.518C296.137 184.404 296.648 184.291 297.045 184.234C297.328 184.121 297.498 184.121 297.498 184.121C297.498 184.121 297.328 184.178 296.931 184.234C296.534 184.291 296.024 184.404 295.286 184.575C293.868 184.858 291.713 185.312 288.991 185.822C283.489 186.9 275.606 188.488 265.85 190.416C263.411 190.927 260.859 191.437 258.193 191.948C257.513 192.061 256.889 192.231 256.152 192.288C255.471 192.345 254.734 192.231 254.053 192.004C252.692 191.494 251.501 190.416 250.934 189.055C250.65 188.375 250.537 187.581 250.423 186.9C250.253 186.163 250.14 185.425 249.97 184.688C249.686 183.213 249.402 181.682 249.062 180.151C248.438 177.088 247.814 173.912 247.19 170.679C245.886 164.213 244.581 157.407 243.163 150.374C242.483 146.858 241.746 143.285 241.065 139.655C240.725 137.84 240.328 136.025 239.987 134.153C239.817 133.246 239.59 132.338 239.477 131.374C239.363 130.41 239.534 129.389 239.931 128.538C240.498 127.234 241.632 126.213 242.937 125.759C243.617 125.532 244.298 125.419 244.922 125.305C245.602 125.192 246.226 125.022 246.907 124.908C249.516 124.398 252.125 123.887 254.677 123.377C259.782 122.356 264.773 121.392 269.537 120.428H269.594L269.65 120.484C278.328 126.496 286.382 132.111 293.698 137.159L293.755 137.216V137.273C296.648 152.019 299.03 164.213 300.731 172.721C301.128 174.876 301.525 176.748 301.809 178.392C302.036 180.094 301.355 181.512 300.618 182.419C299.88 183.327 299.03 183.724 298.462 183.951C298.179 184.064 297.952 184.121 297.839 184.121C297.612 184.121 297.498 184.121 297.498 184.121Z" fill="#333333"/>
<path d="M293.528 137.216C293.528 137.216 293.415 137.272 293.131 137.329C292.848 137.386 292.45 137.499 291.997 137.556C290.976 137.783 289.615 138.066 287.856 138.407C286.098 138.747 284.056 139.201 281.731 139.655C280.597 139.881 279.349 140.108 278.101 140.392C276.797 140.619 275.379 140.278 274.244 139.428C273.677 139.031 273.223 138.463 272.883 137.896C272.543 137.329 272.373 136.649 272.259 136.025C272.032 134.777 271.806 133.586 271.579 132.395C271.125 130.069 270.728 128.028 270.388 126.269C270.047 124.568 269.82 123.15 269.594 122.129C269.537 121.675 269.423 121.278 269.423 120.995C269.367 120.711 269.367 120.598 269.367 120.598C269.367 120.598 269.423 120.711 269.48 120.995C269.537 121.278 269.65 121.675 269.707 122.129C269.934 123.15 270.217 124.511 270.558 126.269C270.898 128.028 271.352 130.069 271.806 132.395C272.032 133.529 272.259 134.777 272.543 136.025C272.656 136.649 272.826 137.272 273.11 137.84C273.394 138.407 273.847 138.917 274.358 139.314C275.379 140.108 276.74 140.449 277.988 140.222C279.235 139.995 280.426 139.768 281.618 139.541C283.943 139.087 285.985 138.69 287.743 138.35C289.444 138.01 290.862 137.783 291.883 137.556C292.337 137.499 292.734 137.386 293.018 137.386C293.415 137.216 293.528 137.216 293.528 137.216Z" fill="#333333"/>
<path d="M260.827 137.142C266.757 135.97 271.55 134.946 271.532 134.854C271.514 134.762 266.691 135.637 260.761 136.808C254.83 137.98 250.037 139.004 250.055 139.097C250.074 139.189 254.896 138.314 260.827 137.142Z" fill="#333333"/>
<path d="M267.467 144.066C276.194 142.342 283.254 140.869 283.236 140.777C283.217 140.685 276.128 142.008 267.401 143.732C258.674 145.456 251.614 146.928 251.633 147.02C251.651 147.113 258.74 145.79 267.467 144.066Z" fill="#333333"/>
<path d="M269.051 151.945C277.778 150.221 284.837 148.748 284.819 148.656C284.801 148.564 277.712 149.887 268.985 151.611C260.258 153.335 253.198 154.807 253.216 154.899C253.234 154.992 260.324 153.669 269.051 151.945Z" fill="#333333"/>
<path d="M270.578 159.833C279.305 158.109 286.365 156.637 286.347 156.545C286.329 156.453 279.239 157.775 270.512 159.499C261.786 161.223 254.726 162.696 254.744 162.788C254.762 162.88 261.851 161.557 270.578 159.833Z" fill="#333333"/>
<path d="M272.173 167.767C280.9 166.043 287.96 164.57 287.942 164.478C287.924 164.386 280.834 165.709 272.107 167.433C263.38 169.157 256.32 170.629 256.339 170.722C256.357 170.814 263.446 169.491 272.173 167.767Z" fill="#333333"/>
<path d="M273.701 175.657C282.428 173.933 289.488 172.461 289.47 172.369C289.452 172.277 282.362 173.6 273.636 175.324C264.909 177.048 257.849 178.52 257.867 178.612C257.885 178.704 264.975 177.382 273.701 175.657Z" fill="#333333"/>
<path d="M272.656 177.599L242.823 183.497C241.519 183.781 240.271 182.93 239.987 181.626L237.832 170.793C237.548 169.488 238.399 168.241 239.704 167.957L269.537 162.058C270.841 161.775 272.089 162.626 272.373 163.93L274.528 174.763C274.811 176.124 273.961 177.372 272.656 177.599Z" fill="#0EA44D"/>
<path d="M246.85 171.814L249.516 171.303C251.444 170.906 252.976 171.814 253.316 173.572C253.656 175.33 252.578 176.748 250.65 177.145L247.984 177.656L246.85 171.814ZM250.423 176.067C251.614 175.841 252.238 174.99 252.011 173.855C251.784 172.721 250.877 172.211 249.743 172.438L248.495 172.664L249.232 176.294L250.423 176.067Z" fill="white"/>
<path d="M253.996 173.459C253.656 171.701 254.734 170.17 256.605 169.773C258.477 169.433 260.065 170.397 260.405 172.155C260.746 173.913 259.611 175.445 257.796 175.842C255.925 176.239 254.337 175.218 253.996 173.459ZM259.044 172.495C258.817 171.361 257.91 170.794 256.832 170.964C255.811 171.191 255.131 172.098 255.358 173.176C255.585 174.31 256.492 174.877 257.57 174.707C258.591 174.537 259.271 173.573 259.044 172.495Z" fill="white"/>
<path d="M261.086 172.098C260.746 170.34 261.823 168.808 263.695 168.411C264.716 168.184 265.623 168.411 266.304 168.978L265.566 169.943C265.056 169.545 264.546 169.432 263.978 169.545C262.901 169.772 262.277 170.68 262.447 171.814C262.674 172.949 263.581 173.516 264.716 173.346C265.283 173.232 265.737 172.892 266.077 172.381L267.098 173.005C266.701 173.799 265.907 174.31 264.886 174.537C263.014 174.82 261.426 173.856 261.086 172.098Z" fill="white"/>
<path d="M291.146 142.207C291.146 142.207 294.152 138.406 296.477 140.505C298.802 142.604 298.122 143.738 295.91 147.084C295.91 147.084 300.844 146.801 299.256 151.848C299.256 151.848 304.134 151.281 303.68 155.422C303.68 155.422 307.367 159.051 305.438 161.377C303.51 163.702 296.534 167.899 294.775 167.219C293.017 166.481 293.017 163.986 293.017 163.986C293.017 163.986 290.919 163.022 290.351 161.944C289.784 160.866 290.749 159.278 290.749 159.278C290.749 159.278 288.99 157.463 288.537 156.953C288.083 156.442 288.763 154.117 288.763 154.117L291.599 151.395C291.599 151.395 287.743 153.096 286.892 152.416C286.098 151.792 285.19 151.225 286.041 150.033C286.892 148.842 290.011 146.233 290.011 146.233L291.146 142.207Z" fill="#FFBE9D"/>
<path d="M293.357 164.326C293.301 164.269 293.811 163.702 294.605 162.794C295.399 161.887 296.533 160.526 298.178 159.505C299.823 158.541 301.298 157.69 302.205 156.896C303.169 156.102 303.51 155.421 303.566 155.478C303.623 155.478 303.339 156.272 302.432 157.123C301.525 158.03 299.993 158.881 298.405 159.845C296.817 160.809 295.683 162.057 294.832 162.965C294.038 163.929 293.414 164.382 293.357 164.326Z" fill="#EB996E"/>
<path d="M290.635 160.073C290.521 159.959 292.336 158.031 294.662 155.706C295.796 154.571 296.817 153.437 297.668 152.813C298.519 152.132 299.142 151.849 299.199 151.905C299.256 151.962 298.689 152.303 297.895 153.04C297.101 153.777 296.193 154.911 295.002 156.046C292.677 158.371 290.748 160.186 290.635 160.073Z" fill="#EB996E"/>
<path d="M291.599 151.451C291.486 151.338 292.62 150.43 293.868 149.296C295.116 148.105 295.739 146.857 295.853 146.914C295.966 146.971 295.513 148.389 294.208 149.636C292.904 150.827 291.656 151.565 291.599 151.451Z" fill="#EB996E"/>
<path d="M291.146 142.207C291.146 142.207 291.146 142.32 291.089 142.491C291.032 142.718 290.975 142.944 290.919 143.285C290.749 144.022 290.465 145.043 290.125 146.347V146.404C289.557 146.915 288.934 147.482 288.253 148.106C287.572 148.786 286.778 149.467 286.154 150.318C286.041 150.544 285.928 150.771 285.928 151.055C285.928 151.282 286.098 151.509 286.325 151.735C286.551 151.962 286.778 152.133 287.005 152.303C287.232 152.473 287.459 152.473 287.799 152.473C289.047 152.303 290.295 151.849 291.599 151.282L292.507 150.885L291.826 151.565C290.919 152.416 290.011 153.38 288.99 154.288L289.047 154.231C288.707 155.082 288.48 156.216 288.877 157.067C289.387 157.918 290.238 158.655 291.089 159.336L291.259 159.506L291.089 159.676C290.465 160.413 290.068 161.548 290.862 162.228C291.599 162.965 292.563 163.533 293.528 164.043L293.187 164.213V164.156C293.244 164.213 293.074 163.986 293.301 164.383C293.925 164.1 293.471 164.27 293.641 164.213V164.327V164.554C293.641 164.724 293.641 164.837 293.698 165.007C293.755 165.291 293.811 165.631 293.925 165.915C294.038 166.198 294.208 166.425 294.435 166.652C294.662 166.879 294.889 167.049 295.172 167.049C295.74 167.106 296.42 166.879 297.044 166.709C297.668 166.482 298.292 166.198 298.916 165.858C300.05 165.291 301.184 164.61 302.205 163.873C303.226 163.136 304.247 162.398 305.098 161.491C305.552 161.037 305.778 160.583 305.835 160.016C305.892 159.449 305.722 158.882 305.552 158.371C305.098 157.294 304.361 156.386 303.623 155.592L303.567 155.536V155.422C303.567 154.855 303.623 154.288 303.396 153.834C303.226 153.324 302.829 152.927 302.432 152.643C301.525 152.076 300.39 152.019 299.426 152.076H299.143L299.199 151.792C299.256 151.509 299.369 151.168 299.426 150.885C299.426 150.601 299.54 150.261 299.483 149.977C299.483 149.353 299.313 148.843 298.972 148.389C298.292 147.538 297.044 147.255 296.023 147.255H295.683L295.853 146.971C296.42 146.064 296.987 145.213 297.441 144.419C297.668 144.022 297.781 143.568 297.838 143.115C297.895 142.718 297.781 142.264 297.611 141.923C297.214 141.243 296.647 140.619 296.08 140.222C295.456 139.882 294.775 139.882 294.265 140.052C293.131 140.392 292.45 141.073 291.996 141.47C291.769 141.697 291.599 141.867 291.486 141.98C291.202 142.15 291.146 142.207 291.146 142.207C291.146 142.207 291.202 142.15 291.259 141.98C291.372 141.867 291.543 141.64 291.713 141.47C291.94 141.243 292.223 140.959 292.62 140.676C293.017 140.392 293.471 140.109 294.038 139.938C294.605 139.768 295.399 139.712 296.023 140.109C296.193 140.222 296.307 140.335 296.477 140.449C296.59 140.562 296.761 140.732 296.874 140.846C297.158 141.129 297.441 141.47 297.668 141.867C297.895 142.264 298.008 142.718 297.952 143.228C297.895 143.682 297.725 144.192 297.555 144.589C297.101 145.497 296.534 146.347 295.966 147.198L295.796 146.915C296.364 146.915 296.931 146.971 297.498 147.141C298.065 147.312 298.632 147.652 299.029 148.162C299.426 148.673 299.653 149.353 299.653 149.977C299.71 150.318 299.596 150.601 299.596 150.941C299.54 151.282 299.426 151.565 299.37 151.906L299.143 151.622C300.22 151.565 301.411 151.622 302.432 152.246C302.943 152.53 303.396 153.04 303.623 153.607C303.85 154.174 303.85 154.798 303.85 155.422L303.793 155.252C304.587 156.103 305.325 157.067 305.835 158.201C306.062 158.768 306.232 159.392 306.176 160.073C306.176 160.413 306.062 160.697 305.892 161.037C305.722 161.321 305.552 161.604 305.325 161.831C304.474 162.739 303.453 163.533 302.375 164.27C301.298 165.007 300.22 165.688 299.029 166.312C298.405 166.652 297.781 166.936 297.158 167.162C296.477 167.389 295.853 167.616 295.059 167.56C294.265 167.389 293.755 166.765 293.471 166.142C293.358 165.801 293.244 165.461 293.187 165.121C293.187 164.951 293.131 164.78 293.131 164.61V164.327V164.213C293.244 164.156 292.847 164.327 293.471 164.043C293.755 164.383 293.528 164.156 293.584 164.27V164.327V164.383L293.528 164.724L293.244 164.554C292.223 164.043 291.259 163.476 290.465 162.625C290.295 162.398 290.068 162.171 290.011 161.888C289.898 161.604 289.898 161.264 289.955 160.98C290.068 160.413 290.352 159.903 290.749 159.506L290.805 159.846C289.898 159.165 289.047 158.428 288.48 157.407C288.196 156.897 288.14 156.273 288.196 155.762C288.253 155.195 288.423 154.685 288.593 154.231V154.174H288.65C289.614 153.21 290.578 152.303 291.486 151.452L291.713 151.735C290.408 152.246 289.104 152.756 287.799 152.927C287.459 152.927 287.062 152.927 286.778 152.7C286.551 152.53 286.268 152.303 286.041 152.076C285.814 151.849 285.587 151.565 285.587 151.225C285.531 150.885 285.701 150.601 285.871 150.318C286.551 149.353 287.346 148.729 288.026 148.049C288.707 147.425 289.387 146.858 289.955 146.347L289.898 146.404C290.295 145.1 290.578 144.079 290.805 143.341C290.919 143.001 290.975 142.774 291.032 142.547C291.089 142.264 291.089 142.207 291.146 142.207Z" fill="#EB996E"/>
<path d="M84.5822 172.776H49.5879C47.1491 172.776 45.2207 170.791 45.2207 168.409V119.973C45.2207 117.534 47.2058 115.605 49.5879 115.605H71.7642L88.9494 133.301V168.409C88.9494 170.848 86.9643 172.776 84.5822 172.776Z" fill="#EBEBEB"/>
<path d="M71.7642 115.605V129.218C71.7642 131.486 73.5791 133.301 75.8478 133.301H88.9494L71.7642 115.605Z" fill="#F5F5F5"/>
<path d="M71.9343 130.408C71.9343 130.408 71.7641 133.698 75.5075 134.775C75.6209 134.832 75.791 134.832 75.9612 134.889C77.6627 135.172 88.9494 137.214 88.9494 136.931C88.9494 136.647 88.9494 133.244 88.9494 133.244H75.8478C75.8478 133.301 72.5582 133.187 71.9343 130.408Z" fill="#E0E0E0"/>
<path d="M84.5824 172.777C84.5824 172.777 84.866 172.777 85.3197 172.663C85.8302 172.55 86.5675 172.38 87.3048 171.756C88.0421 171.132 88.7794 170.111 88.8929 168.693C88.8929 167.275 88.8929 165.631 88.8929 163.816C88.8929 156.499 88.8361 146.007 88.8361 133.302L88.8929 133.415C83.6749 128.084 77.8898 122.072 71.7076 115.72L71.8211 115.776C67.6807 115.776 63.427 115.776 59.0031 115.776C56.7911 115.776 54.5791 115.776 52.3105 115.776C51.7433 115.776 51.1761 115.776 50.609 115.776C50.0418 115.776 49.4746 115.72 48.9075 115.833C47.8298 116.003 46.8089 116.627 46.185 117.535C45.7313 118.159 45.4477 118.896 45.391 119.69C45.3343 120.484 45.391 121.278 45.391 122.072C45.391 123.66 45.391 125.248 45.391 126.78C45.391 129.899 45.391 132.962 45.391 136.024C45.391 142.093 45.391 147.935 45.391 153.493C45.391 156.272 45.391 158.995 45.391 161.604C45.391 162.908 45.391 164.213 45.391 165.517C45.391 166.141 45.391 166.765 45.391 167.446C45.391 168.069 45.3343 168.693 45.4477 169.26C45.6746 170.452 46.4119 171.472 47.4328 172.096C47.9433 172.38 48.5104 172.607 49.0209 172.663C49.5881 172.72 50.1552 172.72 50.7224 172.72C52.9911 172.72 55.203 172.72 57.3016 172.72C65.6957 172.72 72.5017 172.777 77.2092 172.777C79.5346 172.777 81.4062 172.777 82.654 172.777C83.2779 172.777 83.7316 172.777 84.0719 172.777C84.4122 172.777 84.5824 172.777 84.5824 172.777C84.5824 172.777 84.4122 172.777 84.1286 172.777C83.7883 172.777 83.3346 172.777 82.7107 172.777C81.4629 172.777 79.648 172.777 77.2659 172.777C72.5584 172.777 65.7524 172.777 57.3583 172.834C55.2597 172.834 53.0478 172.834 50.7791 172.834C50.2119 172.834 49.6448 172.89 49.0209 172.777C48.397 172.72 47.8298 172.493 47.3194 172.153C46.2418 171.529 45.4477 170.452 45.2209 169.204C45.1074 168.58 45.1641 167.956 45.1074 167.332C45.1074 166.708 45.1074 166.084 45.1074 165.404C45.1074 164.099 45.1074 162.851 45.1074 161.49C45.1074 158.881 45.1074 156.159 45.1074 153.38C45.1074 147.821 45.1074 141.98 45.1074 135.911C45.1074 132.905 45.1074 129.786 45.1074 126.666C45.1074 125.078 45.1074 123.547 45.1074 121.959C45.1074 121.165 45.1074 120.37 45.1074 119.576C45.1641 118.726 45.4477 117.932 45.9582 117.251C46.6388 116.287 47.7164 115.606 48.9075 115.436C49.4746 115.323 50.0985 115.379 50.609 115.379C51.1761 115.379 51.7433 115.379 52.3105 115.379C54.5791 115.379 56.7911 115.379 59.0031 115.379C63.427 115.379 67.6807 115.379 71.8211 115.379H71.8778L71.9345 115.436C78.1167 121.788 83.9018 127.8 89.1197 133.132L89.1765 133.189V133.245C89.1765 145.95 89.1197 156.442 89.1197 163.759C89.1197 165.574 89.1197 167.219 89.063 168.637C88.9496 170.111 88.2123 171.189 87.4182 171.756C86.6242 172.38 85.8869 172.607 85.3764 172.663C85.1495 172.72 84.9227 172.72 84.8092 172.72C84.6391 172.834 84.5824 172.777 84.5824 172.777Z" fill="#333333"/>
<path d="M88.9494 133.301C88.9494 133.301 88.836 133.301 88.6091 133.358C88.3822 133.358 88.0419 133.358 87.6449 133.358C86.7941 133.358 85.5464 133.358 84.0717 133.415C82.5404 133.415 80.7822 133.415 78.7971 133.471C77.7762 133.471 76.7553 133.471 75.6776 133.471C74.5433 133.471 73.409 132.961 72.6149 132.053C72.2179 131.6 71.9343 131.089 71.7642 130.522C71.594 129.955 71.5373 129.388 71.594 128.877C71.594 127.8 71.594 126.779 71.594 125.758C71.594 123.773 71.594 122.014 71.6507 120.483C71.6507 119.008 71.7075 117.817 71.7075 116.91C71.7075 116.513 71.7075 116.173 71.7075 115.946C71.7075 115.719 71.7075 115.605 71.7642 115.605C71.8209 115.605 71.7642 115.719 71.8209 115.946C71.8209 116.173 71.8209 116.513 71.8209 116.91C71.8209 117.761 71.8209 119.008 71.8776 120.483C71.8776 122.014 71.8776 123.773 71.9343 125.758C71.9343 126.722 71.9343 127.8 71.9343 128.877C71.9343 129.444 71.9343 129.955 72.1045 130.465C72.2746 130.976 72.5582 131.486 72.8985 131.883C73.6358 132.734 74.7135 133.188 75.7344 133.244C76.812 133.244 77.8329 133.244 78.8538 133.244C80.8389 133.244 82.5971 133.244 84.1285 133.301C85.6031 133.301 86.7942 133.358 87.7016 133.358C88.0986 133.358 88.4389 133.358 88.6658 133.358C88.836 133.301 88.9494 133.301 88.9494 133.301Z" fill="#333333"/>
<path d="M61.8391 127.915C66.9449 127.915 71.0839 127.838 71.0839 127.744C71.0839 127.65 66.9449 127.574 61.8391 127.574C56.7333 127.574 52.5942 127.65 52.5942 127.744C52.5942 127.838 56.7333 127.915 61.8391 127.915Z" fill="#333333"/>
<path d="M66.2629 134.719C73.7807 134.719 79.875 134.643 79.875 134.549C79.875 134.455 73.7807 134.379 66.2629 134.379C58.7452 134.379 52.6509 134.455 52.6509 134.549C52.6509 134.643 58.7452 134.719 66.2629 134.719Z" fill="#333333"/>
<path d="M66.2629 141.526C73.7807 141.526 79.875 141.45 79.875 141.356C79.875 141.262 73.7807 141.186 66.2629 141.186C58.7452 141.186 52.6509 141.262 52.6509 141.356C52.6509 141.45 58.7452 141.526 66.2629 141.526Z" fill="#333333"/>
<path d="M66.2629 148.332C73.7807 148.332 79.875 148.256 79.875 148.162C79.875 148.068 73.7807 147.992 66.2629 147.992C58.7452 147.992 52.6509 148.068 52.6509 148.162C52.6509 148.256 58.7452 148.332 66.2629 148.332Z" fill="#333333"/>
<path d="M66.2629 155.137C73.7807 155.137 79.875 155.061 79.875 154.967C79.875 154.873 73.7807 154.797 66.2629 154.797C58.7452 154.797 52.6509 154.873 52.6509 154.967C52.6509 155.061 58.7452 155.137 66.2629 155.137Z" fill="#333333"/>
<path d="M66.2629 161.944C73.7807 161.944 79.875 161.868 79.875 161.774C79.875 161.68 73.7807 161.604 66.2629 161.604C58.7452 161.604 52.6509 161.68 52.6509 161.774C52.6509 161.868 58.7452 161.944 66.2629 161.944Z" fill="#333333"/>
<path d="M64.6749 163.362H39.7195C38.415 163.362 37.3374 162.284 37.3374 160.98V152.415C37.3374 151.111 38.415 150.033 39.7195 150.033H64.6749C65.9794 150.033 67.0571 151.111 67.0571 152.415V160.98C67.0571 162.284 65.9794 163.362 64.6749 163.362Z" fill="#0EA44D"/>
<path d="M48.9644 156.159C48.9644 157.293 48.1136 157.974 46.7524 157.974H45.7315V159.392H44.5972V154.344H46.8091C48.1136 154.344 48.9644 155.024 48.9644 156.159ZM47.7733 156.159C47.7733 155.592 47.433 155.251 46.6957 155.251H45.7315V157.009H46.6957C47.433 157.066 47.7733 156.726 47.7733 156.159Z" fill="white"/>
<path d="M49.8149 154.344H52.0836C53.7284 154.344 54.8627 155.365 54.8627 156.839C54.8627 158.371 53.7284 159.335 52.0836 159.335H49.8149V154.344ZM52.0269 158.427C53.0478 158.427 53.6717 157.803 53.6717 156.839C53.6717 155.875 52.9911 155.251 52.0269 155.251H50.9493V158.371H52.0269V158.427Z" fill="white"/>
<path d="M56.9049 155.308V156.669H59.2303V157.633H56.9049V159.448H55.7139V154.4H59.5139V155.365H56.9049V155.308Z" fill="white"/>
<path d="M62.293 252.635H27.6957C25.3136 252.635 23.3853 250.706 23.3853 248.324V200.398C23.3853 198.016 25.3136 196.088 27.6957 196.088H49.6452L66.6602 213.613V248.324C66.6035 250.706 64.6752 252.635 62.293 252.635Z" fill="#EBEBEB"/>
<path d="M49.5884 196.031V209.53C49.5884 211.742 51.4033 213.557 53.6153 213.557H66.6034L49.5884 196.031Z" fill="#F5F5F5"/>
<path d="M49.7585 210.721C49.7585 210.721 49.5884 214.01 53.3317 215.088C53.4451 215.145 53.6153 215.145 53.7854 215.201C55.4869 215.485 66.6034 217.47 66.6034 217.243C66.6034 216.96 66.6034 213.613 66.6034 213.613H53.6153C53.6153 213.557 50.3824 213.443 49.7585 210.721Z" fill="#E0E0E0"/>
<path d="M62.2929 252.635C62.2929 252.635 62.5765 252.635 63.0303 252.522C63.5407 252.409 64.2213 252.238 65.0154 251.615C65.7527 250.991 66.49 249.97 66.5467 248.552C66.5467 247.134 66.5467 245.546 66.5467 243.731C66.5467 236.471 66.49 226.092 66.49 213.558L66.5467 213.671C61.3855 208.396 55.6571 202.441 49.5316 196.145L49.6451 196.202C45.5615 196.202 41.3077 196.202 36.9972 196.202C34.842 196.202 32.63 196.202 30.3613 196.202C29.7942 196.202 29.227 196.202 28.6598 196.202C28.0926 196.202 27.5255 196.145 27.015 196.259C25.9374 196.429 24.9165 197.053 24.2926 197.96C23.8389 198.584 23.5553 199.322 23.4986 200.116C23.4419 200.91 23.4986 201.704 23.4986 202.441C23.4986 204.029 23.4986 205.56 23.4986 207.092C23.4986 210.211 23.4986 213.217 23.4986 216.223C23.4986 222.235 23.4986 228.02 23.4986 233.522C23.4986 236.301 23.4986 238.967 23.4986 241.576C23.4986 242.88 23.4986 244.185 23.4986 245.432C23.4986 246.056 23.4986 246.68 23.4986 247.304C23.4986 247.928 23.4419 248.552 23.5553 249.119C23.7822 250.31 24.5195 251.331 25.5404 251.898C26.0508 252.182 26.5613 252.409 27.1285 252.465C27.6956 252.522 28.2628 252.522 28.83 252.522C31.0986 252.522 33.3106 252.522 35.3524 252.522C43.6898 252.522 50.3824 252.579 55.0899 252.579C57.4153 252.579 59.2302 252.579 60.478 252.579C61.1019 252.579 61.5556 252.579 61.8959 252.579C62.1228 252.635 62.2929 252.635 62.2929 252.635C62.2929 252.635 62.1228 252.635 61.8392 252.635C61.4989 252.635 61.0452 252.635 60.4213 252.635C59.1735 252.635 57.3586 252.635 55.0332 252.635C50.3824 252.635 43.6331 252.635 35.2957 252.692C33.1972 252.692 31.0419 252.692 28.7733 252.692C28.2061 252.692 27.6389 252.749 27.015 252.635C26.4479 252.579 25.824 252.352 25.3135 252.068C24.2926 251.444 23.4986 250.367 23.215 249.119C23.1016 248.495 23.1583 247.871 23.1016 247.247C23.1016 246.623 23.1016 246 23.1016 245.376C23.1016 244.128 23.1016 242.823 23.1016 241.519C23.1016 238.91 23.1016 236.244 23.1016 233.465C23.1016 227.964 23.1016 222.178 23.1016 216.166C23.1016 213.16 23.1016 210.098 23.1016 207.035C23.1016 205.504 23.1016 203.916 23.1016 202.384C23.1016 201.59 23.1016 200.796 23.1016 200.002C23.1583 199.208 23.4419 198.414 23.8956 197.733C24.5762 196.769 25.6538 196.089 26.7882 195.919C27.3553 195.805 27.9225 195.862 28.4897 195.862C29.0568 195.862 29.624 195.862 30.1912 195.862C32.4031 195.862 34.6151 195.862 36.8271 195.862C41.1943 195.862 45.448 195.862 49.4749 195.862H49.5316L49.5884 195.919C55.7138 202.214 61.4422 208.169 66.5467 213.444L66.6034 213.501V213.558C66.6034 226.092 66.5467 236.471 66.5467 243.731C66.5467 245.546 66.5467 247.134 66.49 248.552C66.3766 249.97 65.6392 251.047 64.9019 251.671C64.1079 252.295 63.3706 252.465 62.9168 252.579C62.69 252.635 62.4631 252.635 62.3497 252.635H62.2929Z" fill="#333333"/>
<path d="M66.6034 213.557C66.6034 213.557 66.4899 213.557 66.2631 213.613C66.0362 213.613 65.6959 213.613 65.2989 213.613C64.4481 213.613 63.2571 213.613 61.7824 213.67C60.3078 213.67 58.5496 213.67 56.5645 213.727C55.6003 213.727 54.5794 213.727 53.5018 213.727C52.4242 213.727 51.2898 213.216 50.4958 212.309C50.0988 211.855 49.8152 211.345 49.645 210.834C49.4749 210.267 49.4182 209.7 49.4749 209.189C49.4749 208.112 49.4749 207.091 49.4749 206.127C49.4749 204.198 49.4749 202.44 49.5316 200.909C49.5316 199.434 49.5883 198.243 49.5883 197.392C49.5883 196.995 49.5883 196.712 49.5883 196.428C49.5883 196.201 49.5883 196.088 49.645 196.088C49.7018 196.088 49.645 196.201 49.7018 196.428C49.7018 196.655 49.7018 196.995 49.7018 197.392C49.7018 198.243 49.7017 199.434 49.7585 200.909C49.7585 202.383 49.7585 204.142 49.8152 206.127C49.8152 207.091 49.8152 208.112 49.8152 209.189C49.8152 209.757 49.8152 210.267 49.9853 210.778C50.1555 211.288 50.4391 211.742 50.7794 212.195C51.5167 213.046 52.5376 213.5 53.5585 213.5C54.6361 213.5 55.657 213.5 56.6212 213.5C58.5496 213.5 60.3078 213.5 61.8392 213.557C63.3138 213.557 64.5049 213.613 65.3556 213.613C65.7526 213.613 66.0362 213.613 66.3198 213.613C66.49 213.557 66.6034 213.557 66.6034 213.557Z" fill="#333333"/>
<path d="M39.8331 208.227C44.8762 208.227 48.9645 208.151 48.9645 208.057C48.9645 207.963 44.8762 207.887 39.8331 207.887C34.7899 207.887 30.7017 207.963 30.7017 208.057C30.7017 208.151 34.7899 208.227 39.8331 208.227Z" fill="#333333"/>
<path d="M44.1436 214.975C51.5673 214.975 57.5855 214.899 57.5855 214.805C57.5855 214.711 51.5673 214.635 44.1436 214.635C36.7198 214.635 30.7017 214.711 30.7017 214.805C30.7017 214.899 36.7198 214.975 44.1436 214.975Z" fill="#333333"/>
<path d="M44.1436 221.668C51.5673 221.668 57.5855 221.592 57.5855 221.498C57.5855 221.404 51.5673 221.328 44.1436 221.328C36.7198 221.328 30.7017 221.404 30.7017 221.498C30.7017 221.592 36.7198 221.668 44.1436 221.668Z" fill="#333333"/>
<path d="M44.1436 228.416C51.5673 228.416 57.5855 228.34 57.5855 228.246C57.5855 228.152 51.5673 228.076 44.1436 228.076C36.7198 228.076 30.7017 228.152 30.7017 228.246C30.7017 228.34 36.7198 228.416 44.1436 228.416Z" fill="#333333"/>
<path d="M44.1436 235.166C51.5673 235.166 57.5855 235.09 57.5855 234.996C57.5855 234.902 51.5673 234.826 44.1436 234.826C36.7198 234.826 30.7017 234.902 30.7017 234.996C30.7017 235.09 36.7198 235.166 44.1436 235.166Z" fill="#333333"/>
<path d="M44.1436 241.86C51.5673 241.86 57.5855 241.784 57.5855 241.69C57.5855 241.596 51.5673 241.52 44.1436 241.52C36.7198 241.52 30.7017 241.596 30.7017 241.69C30.7017 241.784 36.7198 241.86 44.1436 241.86Z" fill="#333333"/>
<path d="M42.5553 243.278H17.9402C16.6357 243.278 15.5581 242.2 15.5581 240.895V232.445C15.5581 231.14 16.6357 230.062 17.9402 230.062H42.5553C43.8598 230.062 44.9375 231.14 44.9375 232.445V240.895C44.9375 242.2 43.8598 243.278 42.5553 243.278Z" fill="#0EA44D"/>
<path d="M27.0717 236.188C27.0717 237.322 26.221 238.003 24.9165 238.003H23.8956V239.364H22.7612V234.373H24.9165C26.221 234.373 27.0717 235.054 27.0717 236.188ZM25.8807 236.188C25.8807 235.621 25.5404 235.337 24.803 235.337H23.8389V237.095H24.803C25.5404 237.039 25.8807 236.698 25.8807 236.188Z" fill="white"/>
<path d="M32.2328 236.188C32.2328 237.322 31.3821 238.003 30.0776 238.003H29.0567V239.364H27.9224V234.373H30.0776C31.3821 234.373 32.2328 235.054 32.2328 236.188ZM31.0418 236.188C31.0418 235.621 30.7015 235.337 29.9642 235.337H29V237.095H29.9642C30.7015 237.039 31.0418 236.698 31.0418 236.188Z" fill="white"/>
<path d="M33.9343 235.337H32.3462V234.373H36.6567V235.337H35.0686V239.364H33.9343V235.337Z" fill="white"/>
<path d="M130.353 115.718H95.9262C93.5441 115.718 91.6157 113.79 91.6157 111.408V63.7656C91.6157 61.3835 93.5441 59.4551 95.9262 59.4551H117.762L134.664 76.9239V111.464C134.664 113.79 132.735 115.718 130.353 115.718Z" fill="#EBEBEB"/>
<path d="M117.762 59.5117V72.8969C117.762 75.1089 119.577 76.9238 121.789 76.9238H134.664L117.762 59.5117Z" fill="#F5F5F5"/>
<path d="M117.932 74.0879C117.932 74.0879 117.762 77.3208 121.449 78.3984C121.562 78.4551 121.732 78.4551 121.846 78.5118C123.547 78.7954 134.607 80.7805 134.607 80.5536C134.607 80.27 134.607 76.9805 134.607 76.9805H121.732C121.789 76.9237 118.556 76.8103 117.932 74.0879Z" fill="#E0E0E0"/>
<path d="M130.353 115.719C130.353 115.719 130.637 115.719 131.091 115.606C131.544 115.492 132.282 115.322 133.019 114.698C133.756 114.074 134.494 113.053 134.55 111.636C134.55 110.274 134.55 108.63 134.55 106.815C134.55 99.6115 134.494 89.2891 134.494 76.8113L134.55 76.9248C129.446 71.6501 123.717 65.8083 117.649 59.5127L117.762 59.5694C113.735 59.5694 109.482 59.5694 105.171 59.5694C103.016 59.5694 100.804 59.5694 98.5919 59.5694C98.0247 59.5694 97.4576 59.5694 96.9471 59.5694C96.3799 59.5694 95.8128 59.5127 95.3023 59.6261C94.2247 59.7963 93.2605 60.4202 92.5799 61.3276C92.1262 61.9515 91.8426 62.6888 91.8426 63.4261C91.7859 64.1635 91.8426 65.0142 91.8426 65.7515C91.8426 67.2829 91.8426 68.871 91.8426 70.4023C91.8426 73.465 91.8426 76.5278 91.8426 79.477C91.8426 85.4323 91.8426 91.1607 91.8426 96.6623C91.8426 99.3847 91.8426 102.05 91.8426 104.659C91.8426 105.964 91.8426 107.212 91.8426 108.516C91.8426 109.14 91.8426 109.764 91.8426 110.388C91.8426 111.012 91.7859 111.636 91.8993 112.203C92.1262 113.394 92.8635 114.358 93.8277 114.982C94.3381 115.265 94.8486 115.492 95.4158 115.549C95.9829 115.606 96.5501 115.606 97.1173 115.606C99.3859 115.606 101.541 115.606 103.583 115.606C111.864 115.606 118.556 115.662 123.15 115.662C125.476 115.662 127.234 115.662 128.482 115.662C129.106 115.662 129.559 115.662 129.843 115.662C130.183 115.719 130.353 115.719 130.353 115.719C130.353 115.719 130.183 115.719 129.9 115.719C129.559 115.719 129.106 115.719 128.538 115.719C127.291 115.719 125.532 115.719 123.207 115.719C118.556 115.719 111.864 115.719 103.64 115.776C101.598 115.776 99.3859 115.776 97.174 115.776C96.6068 115.776 96.0396 115.833 95.4725 115.719C94.9053 115.662 94.3381 115.436 93.771 115.152C92.7501 114.528 91.956 113.45 91.7292 112.203C91.6157 111.579 91.6724 110.955 91.6157 110.331C91.6157 109.707 91.6157 109.083 91.6157 108.459C91.6157 107.212 91.6157 105.907 91.6157 104.603C91.6157 101.994 91.6157 99.3279 91.6157 96.6055C91.6157 91.1607 91.6157 85.3756 91.6157 79.4203C91.6157 76.471 91.6157 73.4083 91.6157 70.3456C91.6157 68.8143 91.6157 67.2829 91.6157 65.6948C91.6157 64.9008 91.6157 64.1635 91.6157 63.3127C91.6724 62.5187 91.956 61.7246 92.4098 61.044C93.0904 60.0799 94.168 59.3992 95.3023 59.2291C95.8695 59.1157 96.4367 59.1724 97.0038 59.1724C97.571 59.1724 98.1382 59.1724 98.6486 59.1724C100.861 59.1724 103.073 59.1724 105.228 59.1724C109.538 59.1724 113.792 59.1724 117.819 59.1724H117.876L117.932 59.2291C124.001 65.5247 129.729 71.3665 134.834 76.6412L134.891 76.6979V76.7546C134.891 89.2323 134.834 99.5548 134.834 106.758C134.834 108.573 134.834 110.161 134.777 111.579C134.664 112.997 133.927 114.074 133.189 114.642C132.452 115.265 131.658 115.436 131.204 115.549C130.977 115.606 130.75 115.606 130.637 115.606C130.41 115.719 130.353 115.719 130.353 115.719Z" fill="#333333"/>
<path d="M134.664 76.9238C134.664 76.9238 134.55 76.9238 134.324 76.9805C134.097 76.9805 133.756 76.9805 133.359 76.9805C132.509 76.9805 131.318 76.9805 129.843 77.0372C128.368 77.0372 126.61 77.0372 124.682 77.094C123.717 77.094 122.697 77.094 121.619 77.094C120.541 77.094 119.407 76.5835 118.613 75.676C118.216 75.2223 117.932 74.7118 117.762 74.2014C117.592 73.6909 117.535 73.0671 117.592 72.5566C117.592 71.479 117.592 70.4581 117.592 69.4939C117.592 67.5655 117.592 65.8073 117.649 64.3327C117.649 62.9147 117.706 61.7237 117.706 60.8162C117.706 60.4192 117.706 60.1356 117.706 59.852C117.706 59.6252 117.706 59.5117 117.762 59.5117C117.762 59.5117 117.762 59.6252 117.819 59.852C117.819 60.0789 117.819 60.4192 117.819 60.8162C117.819 61.667 117.819 62.858 117.876 64.3327C117.876 65.8073 117.876 67.5655 117.932 69.4939C117.932 70.4581 117.932 71.479 117.932 72.5566C117.932 73.0671 117.932 73.5775 118.103 74.088C118.273 74.5984 118.556 75.0521 118.897 75.4492C119.634 76.2432 120.655 76.7537 121.676 76.7537C122.753 76.7537 123.774 76.7537 124.738 76.7537C126.667 76.7537 128.425 76.7537 129.9 76.8104C131.318 76.8104 132.509 76.8671 133.416 76.8671C133.813 76.8671 134.097 76.8671 134.38 76.8671C134.55 76.8671 134.664 76.8671 134.664 76.9238Z" fill="#333333"/>
<path d="M108.064 71.6508C113.076 71.6508 117.139 71.5747 117.139 71.4807C117.139 71.3867 113.076 71.3105 108.064 71.3105C103.052 71.3105 98.9893 71.3867 98.9893 71.4807C98.9893 71.5747 103.052 71.6508 108.064 71.6508Z" fill="#333333"/>
<path d="M112.317 78.2856C119.71 78.2856 125.703 78.2094 125.703 78.1155C125.703 78.0215 119.71 77.9453 112.317 77.9453C104.925 77.9453 98.9321 78.0215 98.9321 78.1155C98.9321 78.2094 104.925 78.2856 112.317 78.2856Z" fill="#333333"/>
<path d="M112.317 84.979C119.71 84.979 125.703 84.9028 125.703 84.8088C125.703 84.7149 119.71 84.6387 112.317 84.6387C104.925 84.6387 98.9321 84.7149 98.9321 84.8088C98.9321 84.9028 104.925 84.979 112.317 84.979Z" fill="#333333"/>
<path d="M112.317 91.6704C119.71 91.6704 125.703 91.5942 125.703 91.5002C125.703 91.4063 119.71 91.3301 112.317 91.3301C104.925 91.3301 98.9321 91.4063 98.9321 91.5002C98.9321 91.5942 104.925 91.6704 112.317 91.6704Z" fill="#333333"/>
<path d="M112.317 98.3637C119.71 98.3637 125.703 98.2876 125.703 98.1936C125.703 98.0996 119.71 98.0234 112.317 98.0234C104.925 98.0234 98.9321 98.0996 98.9321 98.1936C98.9321 98.2876 104.925 98.3637 112.317 98.3637Z" fill="#333333"/>
<path d="M112.317 105.057C119.71 105.057 125.703 104.981 125.703 104.887C125.703 104.793 119.71 104.717 112.317 104.717C104.925 104.717 98.9321 104.793 98.9321 104.887C98.9321 104.981 104.925 105.057 112.317 105.057Z" fill="#333333"/>
<path d="M110.729 106.418H86.2845C84.98 106.418 83.9023 105.34 83.9023 104.036V95.6985C83.9023 94.394 84.98 93.3164 86.2845 93.3164H110.729C112.034 93.3164 113.112 94.394 113.112 95.6985V104.036C113.168 105.397 112.091 106.418 110.729 106.418Z" fill="#0EA44D"/>
<path d="M94.168 102.561L92.977 100.86L91.7859 102.561H90.4814L92.2964 100.066L90.5382 97.627H91.8427L92.977 99.215L94.1113 97.627H95.3591L93.6576 100.009L95.5293 102.561H94.168Z" fill="white"/>
<path d="M95.9829 97.5703H97.1172V101.597H99.6128V102.505H95.9829V97.5703Z" fill="white"/>
<path d="M99.8398 102.051L100.237 101.2C100.634 101.484 101.258 101.711 101.882 101.711C102.562 101.711 102.846 101.484 102.846 101.2C102.846 100.293 99.9533 100.917 99.9533 99.045C99.9533 98.1943 100.634 97.5137 102.052 97.5137C102.676 97.5137 103.3 97.6838 103.753 97.9674L103.413 98.8182C102.959 98.5346 102.506 98.4211 102.052 98.4211C101.371 98.4211 101.088 98.7047 101.088 98.9883C101.088 99.8958 103.98 99.2719 103.98 101.087C103.98 101.938 103.3 102.618 101.882 102.618C101.088 102.618 100.294 102.391 99.8398 102.051Z" fill="white"/>
<path d="M343.155 259.327H308.217C305.778 259.327 303.85 257.342 303.85 254.96V206.58C303.85 204.141 305.835 202.213 308.217 202.213H330.394L347.579 219.909V254.96C347.522 257.398 345.537 259.327 343.155 259.327Z" fill="#EBEBEB"/>
<path d="M330.337 202.213V215.825C330.337 218.094 332.152 219.909 334.421 219.909H347.522L330.337 202.213Z" fill="#F5F5F5"/>
<path d="M330.507 217.016C330.507 217.016 330.337 220.305 334.08 221.383C334.194 221.44 334.364 221.44 334.534 221.496C336.235 221.78 347.522 223.822 347.522 223.538C347.522 223.254 347.522 219.851 347.522 219.851H334.421C334.421 219.908 331.131 219.795 330.507 217.016Z" fill="#E0E0E0"/>
<path d="M343.155 259.328C343.155 259.328 343.439 259.328 343.892 259.214C344.403 259.101 345.14 258.931 345.877 258.307C346.615 257.683 347.352 256.662 347.466 255.244C347.466 253.826 347.466 252.181 347.466 250.366C347.466 243.05 347.409 232.557 347.409 219.909L347.466 220.023C342.248 214.691 336.462 208.736 330.28 202.327L330.394 202.384C326.31 202.384 322 202.384 317.576 202.384C315.364 202.384 313.152 202.384 310.883 202.384C310.316 202.384 309.749 202.384 309.182 202.384C308.614 202.384 308.047 202.327 307.48 202.441C306.402 202.611 305.382 203.235 304.758 204.142C304.304 204.766 304.02 205.503 303.964 206.297C303.907 207.091 303.964 207.885 303.964 208.679C303.964 210.267 303.964 211.856 303.964 213.387C303.964 216.506 303.964 219.569 303.964 222.632C303.964 228.7 303.964 234.486 303.964 240.044C303.964 242.823 303.964 245.545 303.964 248.154C303.964 249.459 303.964 250.763 303.964 252.068C303.964 252.692 303.964 253.316 303.964 253.996C303.964 254.62 303.907 255.244 304.02 255.811C304.247 257.002 304.985 258.023 306.005 258.647C306.516 258.931 307.083 259.157 307.594 259.214C308.161 259.271 308.728 259.271 309.295 259.271C311.564 259.271 313.776 259.271 315.874 259.271C324.268 259.271 331.074 259.328 335.782 259.328C338.107 259.328 339.922 259.328 341.17 259.328C341.794 259.328 342.248 259.328 342.588 259.328C342.985 259.328 343.155 259.328 343.155 259.328C343.155 259.328 342.985 259.328 342.701 259.328C342.361 259.328 341.907 259.328 341.283 259.328C340.036 259.328 338.221 259.328 335.895 259.328C331.188 259.328 324.382 259.328 315.988 259.384C313.889 259.384 311.677 259.384 309.409 259.384C308.841 259.384 308.274 259.441 307.65 259.328C307.083 259.271 306.459 259.044 305.949 258.704C304.871 258.08 304.077 257.002 303.85 255.754C303.737 255.131 303.794 254.507 303.737 253.883C303.737 253.259 303.737 252.635 303.737 251.954C303.737 250.65 303.737 249.402 303.737 248.041C303.737 245.432 303.737 242.71 303.737 239.93C303.737 234.372 303.737 228.53 303.737 222.518C303.737 219.512 303.737 216.393 303.737 213.273C303.737 211.685 303.737 210.154 303.737 208.566C303.737 207.772 303.737 206.978 303.737 206.184C303.794 205.39 304.077 204.539 304.588 203.858C305.268 202.894 306.346 202.214 307.537 202.044C308.104 201.93 308.728 201.987 309.238 201.987C309.805 201.987 310.373 201.987 310.94 201.987C313.209 201.987 315.42 201.987 317.632 201.987C322.056 201.987 326.31 201.987 330.45 201.987H330.507L330.564 202.044C336.746 208.396 342.531 214.408 347.692 219.739L347.749 219.796V219.853C347.749 232.501 347.692 242.993 347.692 250.31C347.692 252.125 347.692 253.769 347.636 255.187C347.522 256.662 346.785 257.74 345.991 258.307C345.197 258.931 344.46 259.157 343.949 259.214C343.722 259.271 343.495 259.271 343.382 259.271C343.212 259.328 343.155 259.328 343.155 259.328Z" fill="#333333"/>
<path d="M347.522 219.909C347.522 219.909 347.409 219.909 347.182 219.965C346.955 219.965 346.615 219.965 346.218 219.965C345.367 219.965 344.119 219.965 342.644 220.022C341.113 220.022 339.355 220.022 337.37 220.079C336.406 220.079 335.328 220.079 334.25 220.079C333.116 220.079 331.982 219.568 331.188 218.661C330.791 218.207 330.507 217.697 330.337 217.129C330.167 216.562 330.11 215.995 330.167 215.485C330.167 214.407 330.167 213.386 330.167 212.365C330.167 210.38 330.167 208.622 330.223 207.091C330.223 205.616 330.28 204.425 330.28 203.517C330.28 203.12 330.28 202.78 330.28 202.553C330.28 202.326 330.28 202.213 330.337 202.213C330.337 202.213 330.337 202.326 330.394 202.553C330.394 202.78 330.394 203.12 330.394 203.517C330.394 204.368 330.394 205.616 330.45 207.091C330.45 208.622 330.45 210.38 330.507 212.365C330.507 213.329 330.507 214.407 330.507 215.485C330.507 216.052 330.507 216.562 330.677 217.073C330.847 217.583 331.131 218.094 331.471 218.491C332.209 219.341 333.229 219.795 334.307 219.795C335.385 219.795 336.406 219.795 337.427 219.795C339.412 219.795 341.17 219.795 342.701 219.852C344.176 219.852 345.367 219.909 346.274 219.909C346.671 219.909 347.012 219.909 347.239 219.909C347.409 219.909 347.522 219.909 347.522 219.909Z" fill="#333333"/>
<path d="M320.469 214.522C325.574 214.522 329.713 214.446 329.713 214.352C329.713 214.258 325.574 214.182 320.469 214.182C315.363 214.182 311.224 214.258 311.224 214.352C311.224 214.446 315.363 214.522 320.469 214.522Z" fill="#333333"/>
<path d="M324.836 221.327C332.353 221.327 338.448 221.25 338.448 221.156C338.448 221.063 332.353 220.986 324.836 220.986C317.318 220.986 311.224 221.063 311.224 221.156C311.224 221.25 317.318 221.327 324.836 221.327Z" fill="#333333"/>
<path d="M324.836 228.133C332.353 228.133 338.448 228.057 338.448 227.963C338.448 227.869 332.353 227.793 324.836 227.793C317.318 227.793 311.224 227.869 311.224 227.963C311.224 228.057 317.318 228.133 324.836 228.133Z" fill="#333333"/>
<path d="M324.836 234.94C332.353 234.94 338.448 234.864 338.448 234.77C338.448 234.676 332.353 234.6 324.836 234.6C317.318 234.6 311.224 234.676 311.224 234.77C311.224 234.864 317.318 234.94 324.836 234.94Z" fill="#333333"/>
<path d="M324.836 241.688C332.353 241.688 338.448 241.612 338.448 241.518C338.448 241.424 332.353 241.348 324.836 241.348C317.318 241.348 311.224 241.424 311.224 241.518C311.224 241.612 317.318 241.688 324.836 241.688Z" fill="#333333"/>
<path d="M324.836 250.082C332.353 250.082 338.448 250.006 338.448 249.912C338.448 249.818 332.353 249.742 324.836 249.742C317.318 249.742 311.224 249.818 311.224 249.912C311.224 250.006 317.318 250.082 324.836 250.082Z" fill="#333333"/>
<path d="M323.248 249.912H298.349C297.044 249.912 295.967 248.835 295.967 247.53V238.966C295.967 237.662 297.044 236.584 298.349 236.584H323.248C324.552 236.584 325.63 237.662 325.63 238.966V247.53C325.686 248.835 324.609 249.912 323.248 249.912Z" fill="#0EA44D"/>
<path d="M299.427 240.951H301.695C303.34 240.951 304.475 241.972 304.475 243.447C304.475 244.921 303.34 245.942 301.695 245.942H299.427V240.951ZM301.639 245.035C302.66 245.035 303.283 244.411 303.283 243.447C303.283 242.483 302.603 241.859 301.639 241.859H300.561V244.978H301.639V245.035Z" fill="white"/>
<path d="M305.042 243.447C305.042 241.972 306.233 240.838 307.821 240.838C309.409 240.838 310.6 241.916 310.6 243.447C310.6 244.978 309.409 246.056 307.821 246.056C306.233 246.056 305.042 244.922 305.042 243.447ZM309.352 243.447C309.352 242.483 308.671 241.859 307.764 241.859C306.856 241.859 306.176 242.539 306.176 243.447C306.176 244.354 306.856 245.035 307.764 245.035C308.671 245.035 309.352 244.411 309.352 243.447Z" fill="white"/>
<path d="M311.11 243.447C311.11 241.916 312.301 240.838 313.833 240.838C314.684 240.838 315.421 241.178 315.931 241.745L315.194 242.426C314.854 242.029 314.457 241.859 313.946 241.859C312.982 241.859 312.358 242.539 312.358 243.447C312.358 244.354 313.039 245.035 313.946 245.035C314.457 245.035 314.854 244.808 315.194 244.411L315.931 245.092C315.478 245.659 314.74 245.999 313.833 245.999C312.301 246.056 311.11 244.978 311.11 243.447Z" fill="white"/>
<path d="M319.788 245.942L318.597 244.184L317.406 245.942H316.045L317.917 243.39L316.158 240.895H317.463L318.597 242.539L319.732 240.895H320.979L319.221 243.333L321.093 245.942H319.788Z" fill="white"/>
</g>
<defs>
<clipPath id="clip0_963_2274">
<rect width="353.8" height="229.193" fill="white" transform="translate(10 48)"/>
</clipPath>
</defs>
</svg>
