<svg width="80" height="80" viewBox="0 0 80 80" fill="none" xmlns="http://www.w3.org/2000/svg">
<g filter="url(#filter0_d_1205_38419)">
<circle cx="40" cy="36" r="36" fill="#25D366"/>
</g>
<g clip-path="url(#clip0_1205_38419)">
<path fill-rule="evenodd" clip-rule="evenodd" d="M49.025 39.9701C48.5283 39.7217 46.0933 38.5251 45.64 38.3584C45.1867 38.1934 44.8567 38.1117 44.525 38.6084C44.195 39.1017 43.2467 40.2184 42.9583 40.5484C42.6683 40.8801 42.38 40.9201 41.885 40.6734C41.39 40.4234 39.7933 39.9017 37.9017 38.2151C36.43 36.9017 35.435 35.2801 35.1467 34.7834C34.8583 34.2884 35.115 34.0201 35.3633 33.7734C35.5867 33.5517 35.8583 33.1951 36.1067 32.9067C36.355 32.6167 36.4367 32.4101 36.6017 32.0784C36.7683 31.7484 36.685 31.4601 36.56 31.2117C36.4367 30.9634 35.4467 28.5251 35.0333 27.5334C34.6317 26.5684 34.2233 26.7001 33.92 26.6834C33.63 26.6701 33.3 26.6667 32.97 26.6667C32.64 26.6667 32.1033 26.7901 31.65 27.2867C31.195 27.7817 29.9167 28.9801 29.9167 31.4184C29.9167 33.8551 31.69 36.2101 31.9383 36.5417C32.1867 36.8717 35.43 41.8751 40.3983 44.0201C41.5817 44.5301 42.5033 44.8351 43.2217 45.0617C44.4083 45.4401 45.4883 45.3867 46.3417 45.2584C47.2917 45.1167 49.2717 44.0601 49.685 42.9034C50.0967 41.7467 50.0967 40.7551 49.9733 40.5484C49.85 40.3417 49.52 40.2184 49.0233 39.9701H49.025ZM39.9883 52.3084H39.9817C37.0307 52.3089 34.134 51.5157 31.595 50.0117L30.995 49.6551L24.7583 51.2917L26.4233 45.2117L26.0317 44.5884C24.3819 41.9623 23.5088 38.923 23.5133 35.8217C23.5167 26.7384 30.9067 19.3484 39.995 19.3484C44.395 19.3484 48.5317 21.0651 51.6417 24.1784C53.1756 25.706 54.3915 27.5227 55.2188 29.5232C56.0461 31.5238 56.4686 33.6685 56.4617 35.8334C56.4583 44.9167 49.0683 52.3084 39.9883 52.3084ZM54.0083 21.8134C52.172 19.9649 49.9871 18.4993 47.5801 17.5014C45.1732 16.5035 42.5922 15.9932 39.9867 16.0001C29.0633 16.0001 20.17 24.8917 20.1667 35.8201C20.1616 39.298 21.074 42.7157 22.8117 45.7284L20 56.0001L30.5067 53.2434C33.4131 54.8269 36.6702 55.6567 39.98 55.6567H39.9883C50.9117 55.6567 59.805 46.7651 59.8083 35.8351C59.8164 33.2305 59.3079 30.6502 58.3124 28.2435C57.3168 25.8367 55.8539 23.6512 54.0083 21.8134Z" fill="white"/>
</g>
<defs>
<filter id="filter0_d_1205_38419" x="0" y="0" width="80" height="80" filterUnits="userSpaceOnUse" color-interpolation-filters="sRGB">
<feFlood flood-opacity="0" result="BackgroundImageFix"/>
<feColorMatrix in="SourceAlpha" type="matrix" values="0 0 0 0 0 0 0 0 0 0 0 0 0 0 0 0 0 0 127 0" result="hardAlpha"/>
<feOffset dy="4"/>
<feGaussianBlur stdDeviation="2"/>
<feComposite in2="hardAlpha" operator="out"/>
<feColorMatrix type="matrix" values="0 0 0 0 0 0 0 0 0 0 0 0 0 0 0 0 0 0 0.1 0"/>
<feBlend mode="normal" in2="BackgroundImageFix" result="effect1_dropShadow_1205_38419"/>
<feBlend mode="normal" in="SourceGraphic" in2="effect1_dropShadow_1205_38419" result="shape"/>
</filter>
<clipPath id="clip0_1205_38419">
<rect width="40" height="40" fill="white" transform="translate(20 16)"/>
</clipPath>
</defs>
</svg>
