<svg width="220" height="200" viewBox="0 0 220 200" fill="none" xmlns="http://www.w3.org/2000/svg">
<path d="M65.5948 187.744L25.3126 187.591C25.3126 187.591 -4.94377 169.065 6.7431 120.638C10.2696 106.024 30.5939 83.8346 55.5434 82.1814C85.9787 80.1704 83.3721 43.4433 140.103 50.5842C155.7 52.5441 176.237 68.641 188.767 94.2136C198.103 113.259 216.911 141.004 186.791 187.753L65.5948 187.744Z" fill="#FDEACF"/>
<path d="M69.8446 77.87L148.612 77.7251C150.026 77.7251 151.167 78.8755 151.176 80.29L151.363 185.026C151.363 186.449 150.222 187.6 148.816 187.6L70.049 187.745C68.635 187.745 67.4936 186.594 67.4936 185.18L67.2977 80.4434C67.2891 79.0203 68.4306 77.87 69.8446 77.87Z" fill="#49263E"/>
<path d="M72.7976 181.004V82.812H145.892V163.271L128.753 181.004H72.7976Z" fill="white"/>
<path d="M140.623 85.9395H113.749V118.057H140.623V85.9395Z" fill="#AEDFF4"/>
<path d="M109.346 71.0703C102.881 71.0703 97.6338 76.3195 97.6338 82.7872C97.6338 82.7957 97.6338 82.8042 97.6338 82.8128H121.059C121.059 82.8042 121.059 82.7957 121.059 82.7872C121.059 76.3195 115.811 71.0703 109.346 71.0703ZM109.346 79.8729C108.205 79.8729 107.276 78.9441 107.276 77.8022C107.276 76.6603 108.205 75.7315 109.346 75.7315C110.488 75.7315 111.416 76.6603 111.416 77.8022C111.416 78.9441 110.488 79.8729 109.346 79.8729Z" fill="#4CB7D8"/>
<path d="M106.075 88.0103H78.5439V89.2459H106.075V88.0103Z" fill="#B1E8FC"/>
<path d="M106.075 93.481H78.5442V94.7166H106.075V93.481Z" fill="#B1E8FC"/>
<path d="M106.075 99.6846H78.5439V100.92H106.075V99.6846Z" fill="#B1E8FC"/>
<path d="M106.075 105.155H78.5442V106.39H106.075V105.155Z" fill="#B1E8FC"/>
<path d="M106.075 111.359H78.5439V112.594H106.075V111.359Z" fill="#B1E8FC"/>
<path d="M106.075 116.83H78.5442V118.065H106.075V116.83Z" fill="#B1E8FC"/>
<path d="M145.888 163.271L128.75 181.004V163.271H145.888Z" fill="#DCF4FF"/>
<path d="M92.7183 147.898H78.5442V133.727H92.7098V147.898H92.7183ZM79.5664 146.876H91.6876V134.75H79.5664V146.876Z" fill="#B1E8FC"/>
<path d="M139.671 133.565H96.2883V135.023H139.671V133.565Z" fill="#B1E8FC"/>
<path d="M139.671 139.991H96.2883V141.448H139.671V139.991Z" fill="#B1E8FC"/>
<path d="M85.445 145.897L81.186 139.395C81.0923 139.242 81.1263 139.046 81.2711 138.943C81.4159 138.841 81.6119 138.884 81.7141 139.028L85.2917 144.499L89.8404 132.552C89.9 132.382 90.0874 132.305 90.2492 132.365C90.4111 132.433 90.4963 132.62 90.4281 132.791L85.445 145.897Z" fill="#FF424D"/>
<path d="M92.7183 167.353H78.5442V153.182H92.7098V167.353H92.7183ZM79.5664 166.331H91.6876V154.205H79.5664V166.331Z" fill="#B1E8FC"/>
<path d="M139.671 153.105H96.2883V154.563H139.671V153.105Z" fill="#B1E8FC"/>
<path d="M139.671 159.539H96.2883V160.996H139.671V159.539Z" fill="#B1E8FC"/>
<path d="M85.8445 164.72L80.674 156.949C80.5547 156.761 80.5973 156.514 80.7847 156.386C80.9636 156.258 81.2106 156.309 81.3299 156.497L85.6656 162.982L91.3046 148.172C91.3812 147.967 91.6112 147.865 91.8157 147.941C92.0201 148.027 92.1223 148.257 92.0371 148.461L85.8445 164.72Z" fill="#FF424D"/>
<path d="M24.2494 109.646C25.476 109.578 28.3551 109.45 30.8595 109.663C31.8987 109.748 32.7931 108.922 32.7675 107.882C32.759 107.456 32.6057 106.962 32.2138 106.4C30.6976 104.244 28.0485 106.306 28.074 107.397C28.074 107.397 27.5374 105.743 25.9189 106.033C24.3005 106.323 24.8712 108.726 24.8712 108.726C24.8712 108.726 24.3516 108.615 23.9853 108.862C23.6191 109.109 23.815 109.672 24.2494 109.646Z" fill="white"/>
<path d="M9.57224 126.791C9.49558 126.535 9.52113 126.237 9.70001 125.99C10.0237 125.538 10.62 125.163 11.6847 125.095C11.6847 125.095 10.5348 119.974 14.9983 119.437C19.5896 118.883 19.8281 124.285 19.8281 124.285C19.8281 124.285 22.4261 121.422 23.8486 124.908C23.8486 124.908 26.6511 123.493 27.9969 125.189C28.3973 125.7 28.3292 126.373 27.9884 126.791H9.57224Z" fill="white"/>
<path d="M160.956 109.007C160.863 108.692 160.897 108.334 161.11 108.044C161.501 107.507 162.217 107.047 163.503 106.971C163.503 106.971 162.115 100.81 167.49 100.162C173.009 99.4973 173.29 105.991 173.29 105.991C173.29 105.991 176.417 102.548 178.12 106.741C178.12 106.741 181.485 105.045 183.103 107.081C183.589 107.695 183.504 108.513 183.086 109.007H160.956Z" fill="white"/>
<path d="M191.052 187.498H16.0466V188H191.052V187.498Z" fill="#21111D"/>
<path d="M171.459 64.7221C171.459 55.4338 163.929 47.9009 154.644 47.9009C145.36 47.9009 137.83 55.4338 137.83 64.7221C137.83 69.3321 139.687 73.5076 142.685 76.5412C142.685 76.5412 147.77 81.9864 149.491 87.9173C149.491 87.9173 152.43 88.9142 154.644 88.9739C156.859 88.9142 159.798 87.9173 159.798 87.9173C161.518 81.9864 166.604 76.5412 166.604 76.5412C169.611 73.5076 171.459 69.3321 171.459 64.7221Z" fill="#FECC86"/>
<path d="M154.643 97.8011C153.204 97.8011 152.028 96.6337 152.028 95.1851H157.258C157.258 96.6337 156.083 97.8011 154.643 97.8011Z" fill="#4CB7D8"/>
<path d="M156.543 95.9095H152.743C150.699 95.9095 149.038 94.2478 149.038 92.2027V86.5786H160.248V92.2027C160.248 94.2478 158.587 95.9095 156.543 95.9095Z" fill="#4CB7D8"/>
<g opacity="0.3">
<path d="M171.458 64.7214C171.458 61.2787 170.428 58.0832 168.656 55.416C163.741 67.5419 155.896 75.6969 144.601 78.8583C146.023 80.7245 147.906 83.5366 149.047 86.5872H160.248C162.267 81.2017 166.611 76.549 166.611 76.549C169.61 73.5069 171.458 69.3314 171.458 64.7214Z" fill="#FECC86"/>
</g>
<path d="M157.396 86.6468L156.91 86.5189C156.927 86.4593 158.495 80.6903 159.585 74.785C161.476 64.5338 160.386 62.3609 159.568 61.9774C158.733 61.5854 158.077 61.6536 157.617 62.1904C157.583 62.233 157.549 62.2671 157.524 62.3097C158.699 63 158.98 64.0651 159.048 64.4997C159.236 65.6927 158.699 66.8772 157.864 67.1499C157.66 67.218 157.268 67.2521 156.927 66.7323C156.391 65.9228 156.22 63.8862 156.825 62.5313C156.246 62.2927 155.539 62.1649 154.738 62.1649H154.253C153.444 62.1649 152.745 62.2927 152.166 62.5313C152.771 63.8862 152.6 65.9228 152.064 66.7323C151.723 67.2436 151.331 67.2095 151.127 67.1499C150.283 66.8772 149.755 65.6927 149.943 64.4997C150.011 64.0651 150.292 63 151.467 62.3097C151.433 62.2671 151.408 62.2245 151.374 62.1904C150.914 61.6621 150.258 61.5854 149.423 61.9774C148.605 62.3609 147.523 64.5338 149.406 74.785C150.496 80.6903 152.064 86.4593 152.081 86.5189L151.595 86.6468C151.578 86.5871 150.002 80.8011 148.912 74.8702C147.404 66.6897 147.498 62.3182 149.201 61.5172C150.522 60.8952 151.314 61.3553 151.74 61.8496C151.8 61.9177 151.859 61.9944 151.91 62.0711C152.498 61.824 153.256 61.6621 154.244 61.6621H154.73C155.718 61.6621 156.476 61.824 157.064 62.0711C157.115 61.9944 157.174 61.9177 157.234 61.8496C157.66 61.3553 158.452 60.8952 159.772 61.5172C161.476 62.3182 161.57 66.6897 160.062 74.8702C158.98 80.8011 157.413 86.5871 157.396 86.6468ZM151.723 62.7443C151.016 63.1619 150.564 63.7839 150.437 64.5679C150.275 65.6075 150.743 66.4937 151.28 66.6641C151.331 66.6812 151.467 66.7238 151.646 66.4511C152.115 65.7524 152.234 63.9117 151.723 62.7443ZM157.277 62.7443C156.766 63.9203 156.885 65.7524 157.345 66.4511C157.524 66.7238 157.66 66.6812 157.711 66.6641C158.248 66.4937 158.716 65.6075 158.554 64.5679C158.435 63.7754 157.992 63.1533 157.277 62.7443Z" fill="#F99247"/>
<path d="M148.955 86.6983C148.819 86.3149 148.759 86.1785 148.632 85.8632L148.564 85.6928C146.468 80.7845 142.635 76.6601 142.601 76.6261L142.592 76.609C139.449 73.422 137.72 69.1954 137.72 64.7132C137.72 55.3652 145.318 47.7642 154.663 47.7642C160.395 47.7642 165.702 50.6359 168.845 55.4419L168.632 55.5783C165.532 50.8404 160.31 48.0113 154.663 48.0113C145.463 48.0113 137.976 55.5016 137.976 64.7132C137.976 69.1358 139.688 73.3027 142.788 76.4471L142.95 76.609H142.942C143.674 77.4271 146.928 81.1935 148.802 85.5905L148.87 85.761C149.006 86.0763 149.066 86.2211 149.202 86.6131L148.955 86.6983Z" fill="#21111D"/>
<path d="M142.905 56.95L142.667 56.8819C142.675 56.8393 143.919 52.6979 148.101 51.147L148.186 51.377C144.123 52.8939 142.914 56.9159 142.905 56.95Z" fill="#21111D"/>
<path d="M143.672 58.45L143.433 58.3819C143.442 58.3393 144.685 54.1979 148.868 52.647L148.953 52.877C144.898 54.3853 143.68 58.4074 143.672 58.45Z" fill="#21111D"/>
<path d="M155.247 96.0287H154.029C151.209 96.0287 148.909 93.7279 148.909 90.9074V86.4507H160.247V86.6978H149.165V90.9074C149.165 93.5916 151.346 95.7816 154.037 95.7816H155.255C156.542 95.7816 157.751 95.2873 158.671 94.3841L158.85 94.563C157.879 95.5089 156.601 96.0287 155.247 96.0287Z" fill="#21111D"/>
<path d="M154.711 97.9298C152.284 97.9298 151.934 95.5694 151.926 95.5439L152.173 95.5098C152.181 95.6035 152.514 97.7253 154.788 97.6742L154.796 97.9213C154.771 97.9298 154.745 97.9298 154.711 97.9298Z" fill="#21111D"/>
<path d="M166.175 74.1378L166.03 73.9333C168.253 72.2887 168.602 69.5363 168.602 69.5107L168.849 69.5363C168.841 69.5704 168.483 72.4251 166.175 74.1378Z" fill="#21111D"/>
<path d="M165.68 72.9366L165.535 72.732C167.154 71.5305 167.409 69.528 167.409 69.5024L167.656 69.528C167.648 69.6303 167.384 71.6754 165.68 72.9366Z" fill="#21111D"/>
<path d="M148.52 88.8199V88.5727C148.613 88.5727 158.069 88.4449 161.058 87.3286L161.144 87.5587C158.111 88.7006 148.912 88.8199 148.52 88.8199Z" fill="#21111D"/>
<path d="M148.522 90.9251L148.513 90.678C148.615 90.678 158.871 90.4735 160.788 89.4424L160.907 89.6639C158.948 90.7206 148.948 90.9251 148.522 90.9251Z" fill="#21111D"/>
<path d="M149.037 93.0893V92.8422C149.131 92.8422 158.339 92.7484 160.801 91.4702L160.912 91.6918C158.39 92.9955 149.421 93.0893 149.037 93.0893Z" fill="#21111D"/>
<path d="M133.54 62.0716C133.531 62.0716 133.514 62.0716 133.506 62.0716L127.552 61.5688C127.347 61.5518 127.194 61.3728 127.211 61.1683C127.228 60.9638 127.407 60.8104 127.611 60.8275L133.566 61.3302C133.77 61.3473 133.923 61.5262 133.906 61.7307C133.898 61.9267 133.736 62.0716 133.54 62.0716Z" fill="#F99247"/>
<path d="M136.617 52.5873C136.54 52.5873 136.472 52.5703 136.404 52.5191L131.472 49.1447C131.302 49.0254 131.259 48.7953 131.379 48.6249C131.498 48.4544 131.728 48.4118 131.898 48.5311L136.83 51.9056C137 52.0249 137.043 52.255 136.924 52.4254C136.856 52.5276 136.736 52.5873 136.617 52.5873Z" fill="#F99247"/>
<path d="M145.53 45.7879C145.386 45.7879 145.241 45.7027 145.181 45.5578L142.932 40.0189C142.856 39.8314 142.949 39.6099 143.137 39.5332C143.324 39.4565 143.546 39.5502 143.622 39.7377L145.871 45.2766C145.948 45.4641 145.854 45.6856 145.667 45.7623C145.624 45.7793 145.581 45.7879 145.53 45.7879Z" fill="#F99247"/>
<path d="M175.441 63.1543C175.245 63.1543 175.083 63.0009 175.066 62.8049C175.049 62.6004 175.211 62.4215 175.415 62.4044L181.378 62.0125C181.582 61.9954 181.761 62.1573 181.778 62.3618C181.795 62.5664 181.633 62.7453 181.429 62.7623L175.466 63.1543C175.458 63.1543 175.449 63.1543 175.441 63.1543Z" fill="#F99247"/>
<path d="M172.544 53.6104C172.425 53.6104 172.306 53.5508 172.229 53.44C172.118 53.2696 172.161 53.031 172.34 52.9202L177.331 49.6394C177.502 49.5287 177.74 49.5713 177.851 49.7502C177.962 49.9207 177.919 50.1592 177.74 50.27L172.749 53.5508C172.689 53.5934 172.612 53.6104 172.544 53.6104Z" fill="#F99247"/>
<path d="M164.924 45.7623C164.873 45.7623 164.822 45.7538 164.779 45.7282C164.592 45.643 164.498 45.43 164.583 45.234L166.934 39.7462C167.02 39.5588 167.233 39.465 167.428 39.5502C167.616 39.6355 167.71 39.8485 167.624 40.0445L165.273 45.5323C165.205 45.6771 165.069 45.7623 164.924 45.7623Z" fill="#F99247"/>
<path d="M155.333 42.8557C155.333 42.8557 155.325 42.8557 155.333 42.8557C155.12 42.8557 154.958 42.6853 154.958 42.4722L155.052 36.4987C155.052 36.2942 155.222 36.1323 155.427 36.1323C155.427 36.1323 155.427 36.1323 155.435 36.1323C155.64 36.1323 155.81 36.3028 155.802 36.5158L155.708 42.4893C155.699 42.6938 155.537 42.8557 155.333 42.8557Z" fill="#F99247"/>
<g opacity="0.5">
<path d="M165.934 56.6003C166.523 55.6864 165.449 53.9453 163.535 52.7114C161.621 51.4775 159.592 51.2181 159.003 52.132C158.414 53.0458 159.489 54.7869 161.403 56.0208C163.317 57.2547 165.346 57.5141 165.934 56.6003Z" fill="#F3FFFE"/>
</g>
<path d="M139.659 87.0986H114.71V116.915H139.659V87.0986Z" fill="#B1E8FC"/>
<path d="M123.926 110.932C121.03 110.438 121.251 107.115 121.251 107.115L121.516 96.9489L121.524 96.7614L133.509 94.5288L133.543 99.207L133.552 100.11L133.56 100.622V101.193L133.586 105.155L133.594 105.888L133.415 108.819C133.415 108.819 134.012 113.634 134.344 116.914H123.023L123.926 110.932Z" fill="#FE9F73"/>
<path d="M130.738 108.284C130.738 108.284 130.397 113.849 123.429 114.198L123.915 110.934C123.923 110.934 128.404 111.957 130.738 108.284Z" fill="#F07162"/>
<path d="M134.233 101.072L131.226 101.618L130.672 102.163C130.672 102.163 131.064 97.1526 131.652 96.1812C132.239 95.2183 134.233 101.072 134.233 101.072Z" fill="black"/>
<path d="M135.02 102.965C135.057 101.586 133.969 100.44 132.591 100.404C131.213 100.367 130.066 101.456 130.03 102.834C129.994 104.213 131.082 105.359 132.46 105.396C133.838 105.432 134.984 104.343 135.02 102.965Z" fill="#FE9F73"/>
<path d="M134.222 101.073C134.222 101.073 135.193 96.2324 133.754 94.3833C132.314 92.5342 123.864 89.1426 122.808 90.0204C121.752 90.8981 122.757 92.0229 122.757 92.0229C122.757 92.0229 119.358 90.8299 118.506 93.855C117.655 96.8715 124.989 98.3628 129.418 97.0505C129.41 97.059 132.297 97.9793 134.222 101.073Z" fill="black"/>
<g opacity="0.3">
<path d="M140.623 121.09H78.543V128.819H140.623V121.09Z" fill="#B1E8FC"/>
</g>
<path d="M49.8462 165.81L45.8001 165.869L45.7405 162.052L49.7781 161.541L49.8462 165.81Z" fill="#FE9F73"/>
<path d="M42.874 165.809L38.8279 165.869L38.7683 162.051L42.7974 161.54L42.874 165.809Z" fill="#FE9F73"/>
<path d="M43.3121 132.746C43.4484 136.692 44.0276 152.124 45.2542 162.222C45.3309 162.886 45.9016 163.389 46.566 163.389C47.3071 163.389 48.3378 163.295 49.4792 162.946C50.0329 162.776 50.4162 162.273 50.4247 161.693L50.9273 130.974C50.9273 130.897 50.9273 130.82 50.9103 130.752L50.8847 130.599C50.7569 129.764 49.8881 129.261 49.0959 129.559L44.1469 131.46C43.6358 131.664 43.2866 132.184 43.3121 132.746Z" fill="#5FB28A"/>
<path d="M37.8684 131.954C37.8684 131.954 37.5276 150.931 38.4135 162.631C38.4561 163.185 38.8905 163.619 39.4442 163.662C40.2279 163.722 41.4204 163.713 42.7663 163.355C43.2263 163.236 43.5585 162.844 43.5925 162.367L45.9435 135.158L47.3916 127.6L37.8684 131.954Z" fill="#7FC6A6"/>
<path d="M36.3613 125.913C36.4465 126.671 36.898 137.919 38.1587 138.848C39.4193 139.777 51.4895 138.882 51.7706 137.792C52.0517 136.692 51.4554 124.941 51.4554 124.941L36.3613 125.913Z" fill="#FFB357"/>
<path d="M49.9858 120.614C50.1477 120.614 56.6044 123.656 56.6044 123.656L55.1989 126.136L51.5532 125.207L49.9858 120.614Z" fill="#FFB357"/>
<path d="M38.1776 108.956C39.7705 108.794 43.9529 108.785 43.9529 108.785C43.9529 108.785 44.4981 108.947 44.3277 108.862C48.9105 109.833 49.3023 113.276 49.3023 113.276L51.2189 123.237L53.7232 123.459C54.4813 125.027 53.7488 129.151 53.7488 129.151L41.5678 130.106C41.5678 130.106 38.9272 130.446 36.8062 127.524C35.4007 125.589 35.1026 119.795 35.2474 115.568C35.2389 115.568 35.7074 109.211 38.1776 108.956Z" fill="#FFB357"/>
<path d="M50.2239 121.856C50.258 121.873 50.3006 121.856 50.3176 121.822L50.8628 120.961L50.8543 120.936L49.3806 113.267C49.3721 113.198 49.2528 112.304 48.5373 111.298C47.8644 110.361 46.51 109.142 43.9035 108.708C43.8609 108.699 43.8183 108.725 43.8183 108.767C43.8098 108.81 43.8353 108.853 43.8779 108.853C46.4248 109.279 47.7451 110.463 48.401 111.375C49.1166 112.363 49.2273 113.267 49.2273 113.275V113.284L50.6924 120.927L50.1813 121.737C50.1558 121.771 50.1728 121.822 50.2069 121.839C50.2154 121.848 50.2154 121.856 50.2239 121.856Z" fill="#21111D"/>
<path d="M52.9522 121.978C52.9948 121.995 53.0374 121.978 53.0544 121.935C53.0714 121.893 53.0544 121.85 53.0118 121.833L50.8312 120.87C50.7886 120.853 50.746 120.87 50.7289 120.913C50.7119 120.956 50.7289 120.998 50.7715 121.015L52.9522 121.978Z" fill="#21111D"/>
<path d="M38.8877 111.775L40.3699 109.287L42.9764 110.071L44.0326 108.946C44.0326 108.946 44.2541 109.986 44.2541 110.071C44.2541 110.156 43.0616 111.392 42.9083 111.375C42.7549 111.358 38.8877 111.775 38.8877 111.775Z" fill="#FFB357"/>
<path d="M39.0885 139.198C39.1311 139.198 39.1737 139.164 39.1737 139.113C39.1737 139.062 39.1396 139.019 39.0885 139.019C37.8364 138.926 37.666 137.869 37.3764 136.097C37.3253 135.781 37.2742 135.449 37.206 135.1C36.7801 132.756 36.5927 127.081 36.5927 127.021C36.5927 126.97 36.5501 126.936 36.5075 126.936C36.4564 126.936 36.4224 126.979 36.4224 127.03C36.4224 127.089 36.6098 132.773 37.0357 135.134C37.0953 135.483 37.1549 135.815 37.206 136.131C37.4956 137.92 37.683 139.096 39.0885 139.198C39.08 139.198 39.08 139.198 39.0885 139.198Z" fill="#21111D"/>
<path d="M58.6867 116.403L60.3903 117.204L60.501 117.255L62.2046 118.056L54.4872 138.065C54.2657 138.627 53.6184 138.891 53.0732 138.636L48.7375 136.599C48.1923 136.343 47.9794 135.679 48.269 135.15L58.6867 116.403Z" fill="#FF424D"/>
<path d="M58.4296 116.786L62.1009 118.507C62.4842 118.686 62.9357 118.524 63.1145 118.141L63.9493 116.368L58.8981 114L58.0633 115.772C57.8929 116.155 58.0548 116.607 58.4296 116.786Z" fill="#F99247"/>
<path d="M59.2158 117.255L61.9672 118.542C62.4527 118.772 63.0319 118.559 63.2619 118.073L64.0456 116.403L63.8752 116.326L63.0916 117.996C62.9042 118.388 62.4357 118.559 62.0438 118.371L59.2925 117.085L59.2158 117.255Z" fill="#21111D"/>
<path d="M75.0863 110.162C77.475 105.06 75.2774 98.9873 70.1778 96.5976C65.0782 94.2079 59.0077 96.4064 56.6189 101.508C54.2302 106.609 56.4278 112.682 61.5274 115.072C66.627 117.462 72.6975 115.263 75.0863 110.162Z" fill="#D4EEF4"/>
<path d="M64.428 101.481C66.4186 100.76 67.7532 99.4044 67.4089 98.4529C67.0646 97.5015 65.1718 97.3146 63.1812 98.0355C61.1906 98.7564 59.856 100.112 60.2003 101.064C60.5446 102.015 62.4374 102.202 64.428 101.481Z" fill="#F3FFFE"/>
<path d="M61.9207 118.425L54.2903 138.295L54.4652 138.363L62.0956 118.492L61.9207 118.425Z" fill="#21111D"/>
<path d="M74.1624 102.879L74.3413 102.836C74.3328 102.81 73.8132 100.552 72.0414 99.1973L71.9307 99.3421C73.6428 100.654 74.1539 102.853 74.1624 102.879Z" fill="#21111D"/>
<path d="M73.1487 103.664L73.3276 103.621C73.3191 103.595 72.7995 101.337 71.0277 99.9824L70.917 100.127C72.6377 101.448 73.1487 103.647 73.1487 103.664Z" fill="#21111D"/>
<path d="M61.525 115.075C56.4227 112.689 54.2335 106.613 56.6186 101.509C59.0037 96.4043 65.0771 94.2143 70.1794 96.6003C75.2818 98.9863 77.471 105.062 75.0859 110.166C72.6923 115.271 66.6189 117.469 61.525 115.075ZM76.551 110.857C79.3194 104.943 76.7725 97.9041 70.8609 95.1346C64.9493 92.3652 57.9133 94.9131 55.145 100.827C52.3766 106.741 54.9235 113.779 60.8351 116.549C66.7466 119.318 73.7826 116.77 76.551 110.857Z" fill="#FECC86"/>
<path d="M60.7914 116.632C66.737 119.419 73.8411 116.845 76.6266 110.897C79.412 104.949 76.8395 97.8425 70.8939 95.056C68.1084 93.7523 64.9652 93.5733 62.052 94.5533L62.1117 94.7322C64.9823 93.7693 68.0744 93.9397 70.8172 95.2265C76.6691 97.9704 79.199 104.966 76.4562 110.821C73.7134 116.675 66.72 119.206 60.868 116.462C58.1507 115.192 56.0468 112.951 54.9394 110.164L54.769 110.233C55.8934 113.062 58.0315 115.337 60.7914 116.632Z" fill="#21111D"/>
<path d="M58.5105 127.012C58.519 126.816 58.3487 126.645 58.1527 126.628L56.9346 126.543C56.8921 126.543 56.8665 126.518 56.858 126.475C56.841 126.424 56.8835 126.364 56.9346 126.364L58.7405 126.245C58.9449 126.228 59.0727 126.057 59.0216 125.853C58.9705 125.648 58.7575 125.504 58.5446 125.512L56.7047 125.631C56.6621 125.631 56.6195 125.606 56.611 125.563L56.6024 125.538C56.5854 125.487 56.6195 125.444 56.6621 125.427L58.6383 124.899C58.8257 124.847 58.962 124.643 58.9194 124.455C58.8683 124.251 58.6638 124.132 58.4594 124.183L56.4662 124.72C56.415 124.737 56.3725 124.703 56.3554 124.66L56.3299 124.566C56.3213 124.524 56.3384 124.481 56.381 124.464L58.1442 123.731C58.3231 123.654 58.4338 123.433 58.3657 123.254C58.289 123.058 58.0676 122.964 57.8802 123.041C57.8802 123.041 56.3895 123.595 55.9465 123.714L55.5377 123.74C56.1425 124.302 55.461 123.535 54.967 123.433C54.4218 123.322 52.9737 124.66 52.9737 124.66C52.9056 124.779 52.9737 125.035 53.0759 125.231C53.4763 127.378 53.5615 127.702 53.7233 128.273L55.9551 127.591C56.6024 127.395 57.2754 127.319 57.9483 127.361L58.1187 127.37C58.3231 127.387 58.502 127.225 58.5105 127.012Z" fill="#FE9F73"/>
<path d="M53.7148 123.459C53.7148 123.459 54.4474 125.376 53.7404 129.151L51.2275 129.288L51.8238 124.669L53.7148 123.459Z" fill="#FFB357"/>
<path d="M40.9042 108.546C40.9042 108.546 38.1188 108.35 36.7644 109.065C34.7456 110.122 35.2311 116.59 35.2311 116.59C35.2311 116.59 36.9518 115.729 37.0625 115.422C37.1733 115.116 40.9042 108.546 40.9042 108.546Z" fill="#FFB357"/>
<path d="M41.7844 123.083C41.8014 123.092 41.8099 123.092 41.827 123.092C41.8696 123.083 41.8951 123.041 41.8866 122.998C41.8781 122.947 40.7878 117.51 40.3704 114.093C40.3618 114.05 40.3278 114.025 40.2852 114.025C40.2426 114.033 40.217 114.068 40.217 114.11C40.6429 117.527 41.7247 122.972 41.7418 123.023C41.7418 123.049 41.7588 123.075 41.7844 123.083Z" fill="#21111D"/>
<path d="M49.3092 123.212C49.3007 123.221 49.2837 123.229 49.2666 123.229C49.2241 123.229 49.19 123.195 49.1815 123.161C49.1815 123.101 48.8152 116.847 48.4489 114.768C48.4404 114.725 48.4659 114.682 48.5085 114.682C48.5511 114.674 48.5937 114.699 48.5937 114.742C48.96 116.821 49.3263 123.084 49.3263 123.153C49.3348 123.178 49.3263 123.195 49.3092 123.212Z" fill="#21111D"/>
<path d="M39.742 122.504H39.7505L41.7864 123.041C41.829 123.05 41.8716 123.024 41.8801 122.99C41.8886 122.948 41.863 122.905 41.829 122.896L39.7931 122.36C39.7505 122.351 39.708 122.377 39.6994 122.411C39.6909 122.445 39.708 122.487 39.742 122.504Z" fill="#21111D"/>
<path d="M39.1378 123.058C39.1463 123.058 39.1548 123.066 39.1634 123.066C39.2741 123.066 50.1262 123.109 53.6612 123.527C53.7379 123.765 54.0956 124.984 53.9168 127.182C53.9168 127.225 53.9423 127.259 53.9849 127.268C54.0275 127.268 54.0616 127.242 54.0701 127.199C54.283 124.711 53.8145 123.484 53.7975 123.433L53.7805 123.39L53.7379 123.382C50.2454 122.964 39.2826 122.913 39.1719 122.913C39.1293 122.913 39.0952 122.947 39.0952 122.99C39.0952 123.024 39.1123 123.049 39.1378 123.058Z" fill="#21111D"/>
<path d="M43.5706 129.841C48.0001 129.841 53.4261 129.27 53.7583 129.236C53.8094 129.228 53.8435 129.185 53.835 129.134C53.8265 129.083 53.7839 129.049 53.7328 129.057C53.6135 129.074 41.6029 130.336 38.5875 129.151C35.6062 127.984 35.4018 121.414 35.3932 121.345C35.3932 121.294 35.3506 121.26 35.2995 121.26C35.2484 121.26 35.2144 121.303 35.2144 121.354C35.2229 121.627 35.4273 128.111 38.5194 129.321C39.5245 129.705 41.4326 129.841 43.5706 129.841Z" fill="#21111D"/>
<path d="M43.8258 102.581L44.2857 105.666C44.2857 105.666 44.4816 106.697 43.5958 106.969L43.9706 108.333C44.1068 108.844 43.8769 109.381 43.4084 109.611C43.1784 109.722 42.8973 109.824 42.5736 109.875C41.5429 110.029 40.8614 109.33 40.7166 108.955C40.5718 108.58 40.5548 106.671 40.5548 106.671L40.3844 105.759L39.967 102.189L43.8258 102.581Z" fill="#FE9F73"/>
<path d="M39.9949 101.823C39.9949 101.823 39.0324 102.513 39.8672 104.541L40.2334 104.277L39.9353 103.178L39.9949 101.823Z" fill="#21111D"/>
<path d="M41.6212 104.125C41.6127 104.125 41.5957 104.125 41.5871 104.116C41.5701 104.099 41.5616 104.074 41.5786 104.057C41.5871 104.048 42.0812 103.35 42.6945 103.707C42.7115 103.716 42.72 103.75 42.7115 103.767C42.703 103.784 42.6689 103.793 42.6519 103.784C42.1153 103.469 41.6723 104.082 41.6553 104.108C41.6382 104.116 41.6297 104.125 41.6212 104.125Z" fill="#21111D"/>
<path d="M43.3002 103.969C43.2917 103.969 43.2746 103.969 43.2661 103.961C43.249 103.943 43.249 103.918 43.2576 103.901C43.2746 103.884 43.6329 103.466 43.9229 103.653C43.94 103.67 43.9485 103.696 43.94 103.713C43.9315 103.73 43.8973 103.739 43.8803 103.73C43.65 103.585 43.3258 103.961 43.3258 103.961C43.3173 103.961 43.3087 103.969 43.3002 103.969Z" fill="#21111D"/>
<path d="M42.3604 104.686C42.4303 104.675 42.4785 104.61 42.4681 104.54C42.4576 104.471 42.3925 104.422 42.3226 104.433C42.2527 104.443 42.2045 104.508 42.215 104.578C42.2254 104.648 42.2905 104.696 42.3604 104.686Z" fill="black"/>
<path d="M43.7132 104.353C43.7831 104.342 43.8313 104.277 43.8208 104.207C43.8104 104.137 43.7453 104.089 43.6754 104.1C43.6055 104.11 43.5573 104.175 43.5677 104.245C43.5782 104.315 43.6433 104.363 43.7132 104.353Z" fill="black"/>
<path d="M40.2878 105.719C40.7158 105.655 41.0104 105.252 40.9457 104.819C40.8811 104.386 40.4817 104.087 40.0536 104.151C39.6256 104.215 39.331 104.618 39.3957 105.051C39.4603 105.484 39.8597 105.783 40.2878 105.719Z" fill="#FE9F73"/>
<path d="M40.1887 105.419C40.0269 105.445 39.8991 105.334 39.848 105.223C39.7884 105.087 39.8139 104.942 39.9161 104.848C40.0695 104.712 40.2398 104.763 40.325 104.806C40.2824 104.721 40.2143 104.669 40.1376 104.635C39.9758 104.576 39.7884 104.661 39.7884 104.661C39.7798 104.669 39.7628 104.661 39.7628 104.652C39.7543 104.644 39.7628 104.627 39.7713 104.627C39.7798 104.627 39.9672 104.525 40.1546 104.593C40.2569 104.635 40.342 104.721 40.3931 104.848L40.4272 104.925L40.3676 104.882C40.3591 104.874 40.1461 104.721 39.9502 104.891C39.8395 104.985 39.848 105.121 39.8906 105.215C39.9332 105.309 40.0354 105.411 40.1887 105.385C40.1887 105.385 40.1887 105.385 40.1972 105.385C40.2057 105.385 40.2228 105.394 40.2228 105.402C40.2143 105.402 40.2057 105.411 40.1887 105.419C40.1972 105.419 40.1972 105.419 40.1887 105.419Z" fill="#F07162"/>
<path d="M44.3754 105.152C44.3754 105.152 44.9717 107.198 43.6003 107.479C41.6496 107.879 41.2833 106.78 41.0278 105.868L40.7211 103.959L40.7041 103.397C40.8659 103.533 40.9852 103.721 41.0278 103.925C41.1385 104.377 41.4196 105.595 41.5474 105.638C41.7263 105.689 44.0432 104.99 44.3754 105.152Z" fill="#21111D"/>
<path d="M43.0408 105.35C43.0323 105.35 43.0238 105.35 43.0152 105.341C43.0067 105.333 43.0152 105.316 43.0238 105.316L43.4326 105.111L43.143 104.106C43.143 104.097 43.143 104.08 43.1601 104.08C43.1686 104.08 43.1856 104.08 43.1856 104.097L43.4837 105.137L43.0408 105.35C43.0493 105.35 43.0408 105.35 43.0408 105.35Z" fill="#F07162"/>
<path d="M40.7056 103.434L40.2626 103.135L40.0071 104.166C40.0071 104.166 40.5182 104.175 40.6033 104.695C40.6885 105.214 40.5267 106.067 41.6 107.089C42.6733 108.12 41.2678 105.359 41.2422 105.266C41.2167 105.163 40.7056 103.434 40.7056 103.434Z" fill="#21111D"/>
<path d="M39.988 101.822C40.3457 101.345 41.7512 100.893 42.8671 101.362C44.1278 101.763 43.9318 102.981 43.8978 103.024L43.8807 103.015C43.8893 103.041 43.8978 103.066 43.9063 103.092C43.9063 103.092 43.8467 103.024 43.7274 102.93L43.2163 102.649C42.9352 102.538 42.5689 102.47 42.1175 102.504C41.666 102.538 41.2827 102.623 40.9761 102.768C40.9335 103.049 40.942 103.578 41.1975 104.6C41.5808 106.151 40.6098 104.345 40.252 103.654C40.2179 103.799 40.2009 103.961 40.2094 104.14C40.2009 104.131 39.2724 102.777 39.988 101.822Z" fill="#21111D"/>
<path d="M43.9594 103.451C43.9594 103.451 43.8997 102.812 43.8486 102.684C43.7975 102.548 42.3324 102.36 41.5743 102.582C40.8162 102.803 42.4431 103.425 42.4602 103.425C42.4772 103.425 43.9594 103.451 43.9594 103.451Z" fill="#FE9F73"/>
<path d="M41.1258 102.81L40.2825 102.222L41.1343 103.134L41.1258 102.81Z" fill="#FE9F73"/>
<path d="M43.8635 107.907L43.9743 108.708C43.9743 108.708 43.2843 109.296 42.8414 109.603C41.964 108.998 40.6522 108.529 40.6522 108.529L40.567 107.345C38.9401 107.157 37.2535 108.256 37.6794 108.776C38.1053 109.304 40.3029 109.466 40.8907 109.654C41.4699 109.841 42.9436 110.293 42.9436 110.293C43.3269 110.003 44.3746 108.785 44.3746 108.785L45.4309 109.074C45.4479 108.009 43.8635 107.907 43.8635 107.907Z" fill="#FD7583"/>
<path d="M42.9399 110.363C42.957 110.363 42.974 110.354 42.9825 110.346L44.8224 108.479C44.848 108.454 44.848 108.42 44.8224 108.394C44.7969 108.369 44.7628 108.369 44.7373 108.394L42.8973 110.26C42.8718 110.286 42.8718 110.32 42.8973 110.346C42.9144 110.354 42.9229 110.363 42.9399 110.363Z" fill="black"/>
<path d="M55.3912 122.334L54.335 124.243L55.9534 123.714L55.3912 122.334Z" fill="#FF424D"/>
<path d="M45.7402 165.93H49.2752L50.7063 164.328L53.3298 165.93H53.892C54.088 165.93 54.2668 166.066 54.3009 166.262C54.352 166.527 54.1561 166.757 53.9091 166.757H45.6806C45.6209 166.757 45.5698 166.706 45.5698 166.646V166.092C45.5783 166.007 45.6465 165.93 45.7402 165.93Z" fill="#FEC786"/>
<path d="M45.7666 165.937V164.446C45.7666 164.446 46.3629 163.619 47.2743 164.046C47.2743 164.046 48.6457 165.043 49.8553 163.833L52.8622 165.204C52.8622 165.204 53.6885 165.486 53.9099 165.937H45.7666Z" fill="#EF293D"/>
<path d="M45.7996 164.447H45.74V165.929H45.7996V164.447Z" fill="black"/>
<path d="M48.5002 164.465C48.6195 164.465 48.6876 164.456 48.6876 164.456L48.6791 164.396C48.6706 164.396 47.9636 164.499 47.2907 164.021L47.2566 164.073C47.7421 164.413 48.2447 164.465 48.5002 164.465Z" fill="black"/>
<path d="M46.4998 165.658L46.534 165.606L46.1501 165.342L46.116 165.393L46.4998 165.658Z" fill="black"/>
<path d="M46.785 165.579L46.8191 165.528L46.4352 165.264L46.4011 165.315L46.785 165.579Z" fill="black"/>
<path d="M54.1896 166.688C54.2833 166.603 54.3429 166.484 54.3429 166.347C54.3429 166.1 54.147 165.904 53.9085 165.904H45.7737C45.6459 165.904 45.5437 166.015 45.5437 166.143V166.552H45.6033V166.143C45.6033 166.049 45.68 165.964 45.7737 165.964H53.9085C54.1129 165.964 54.2833 166.134 54.2833 166.347C54.2833 166.458 54.2322 166.569 54.1555 166.637L54.1896 166.688Z" fill="black"/>
<path d="M53.8896 165.946L53.9407 165.921C53.9322 165.904 53.7704 165.563 53.1571 165.29C52.5523 165.026 49.8946 163.816 49.8691 163.808L49.8435 163.867C49.8691 163.876 52.5267 165.086 53.1315 165.359C53.7193 165.606 53.8896 165.946 53.8896 165.946Z" fill="black"/>
<path d="M38.6955 165.929H42.2306L43.6616 164.327L46.2852 165.929H46.8474C47.0433 165.929 47.2222 166.066 47.2563 166.261C47.3074 166.526 47.1114 166.756 46.8644 166.756H38.6444C38.5848 166.756 38.5337 166.705 38.5337 166.645V166.091C38.5337 166.006 38.6104 165.929 38.6955 165.929Z" fill="#FEC786"/>
<path d="M38.73 165.938V164.447C38.73 164.447 39.3263 163.62 40.2377 164.046C40.2377 164.046 41.6091 165.043 42.8187 163.833L45.8256 165.205C45.8256 165.205 46.6518 165.486 46.8733 165.938H38.73Z" fill="#FF424D"/>
<path d="M38.7471 164.446H38.6875V165.929H38.7471V164.446Z" fill="black"/>
<path d="M41.4622 164.464C41.5814 164.464 41.6495 164.456 41.6495 164.456L41.641 164.396C41.6325 164.396 40.9255 164.498 40.2526 164.021L40.2185 164.072C40.6955 164.413 41.1981 164.464 41.4622 164.464Z" fill="black"/>
<path d="M39.4657 165.657L39.4998 165.605L39.1159 165.341L39.0818 165.392L39.4657 165.657Z" fill="black"/>
<path d="M39.7357 165.58L39.7698 165.529L39.3859 165.265L39.3518 165.316L39.7357 165.58Z" fill="black"/>
<path d="M47.1588 166.691C47.2525 166.606 47.3122 166.487 47.3122 166.35C47.3122 166.103 47.1162 165.907 46.8777 165.907H38.7429C38.6152 165.907 38.5129 166.018 38.5129 166.146V166.555H38.5726V166.146C38.5726 166.052 38.6492 165.967 38.7429 165.967H46.8777C47.0822 165.967 47.2525 166.137 47.2525 166.35C47.2525 166.461 47.2014 166.572 47.1248 166.64L47.1588 166.691Z" fill="black"/>
<path d="M46.8457 165.946L46.8968 165.92C46.8883 165.903 46.7264 165.563 46.1131 165.29C45.5083 165.026 42.8507 163.816 42.8251 163.807L42.7996 163.867C42.8251 163.875 45.4828 165.085 46.0876 165.358C46.6838 165.605 46.8457 165.946 46.8457 165.946Z" fill="black"/>
<path d="M62.3519 177.518C62.3519 177.518 60.3076 182.665 62.0197 186.551L22.7256 186.883L19.0969 186.551L15.9026 184.574V181.54L16.7885 179.035L19.6932 177.518H62.3519Z" fill="white"/>
<path d="M20.8866 187.386H63.3409C63.6135 187.386 63.8435 187.165 63.8435 186.883C63.8435 186.602 63.622 186.381 63.3409 186.381H20.8866C18.3226 186.381 16.2357 184.446 16.2357 182.069C16.2357 179.691 18.3226 177.757 20.8866 177.757H63.3409C63.6135 177.757 63.8435 177.535 63.8435 177.254C63.8435 176.982 63.622 176.751 63.3409 176.751H20.8866C17.7689 176.751 15.239 179.137 15.239 182.069C15.2305 185 17.7689 187.386 20.8866 187.386Z" fill="#F75553"/>
<path d="M61.7664 182.181H40.931C40.8714 182.181 40.8203 182.13 40.8203 182.07C40.8203 182.011 40.8714 181.959 40.931 181.959H61.7664C61.826 181.959 61.8771 182.011 61.8771 182.07C61.8771 182.13 61.826 182.181 61.7664 182.181Z" fill="#AAC9F8"/>
<path d="M38.0072 182.18H17.7597C17.7 182.18 17.6489 182.129 17.6489 182.069C17.6489 182.01 17.7 181.958 17.7597 181.958H37.9987C38.0584 181.958 38.1095 182.01 38.1095 182.069C38.118 182.129 38.0669 182.18 38.0072 182.18Z" fill="#AAC9F8"/>
<path d="M28.6909 184.174H18.3073C18.2476 184.174 18.1965 184.123 18.1965 184.063C18.1965 184.004 18.2476 183.953 18.3073 183.953H28.6909C28.7505 183.953 28.8016 184.004 28.8016 184.063C28.8016 184.132 28.759 184.174 28.6909 184.174Z" fill="#AAC9F8"/>
<path d="M61.7737 184.174H30.214C30.1544 184.174 30.1033 184.123 30.1033 184.063C30.1033 184.004 30.1544 183.953 30.214 183.953H61.7737C61.8333 183.953 61.8844 184.004 61.8844 184.063C61.8844 184.132 61.8333 184.174 61.7737 184.174Z" fill="#AAC9F8"/>
<path d="M63.3388 187.498H20.8845C17.7072 187.498 15.1262 185.061 15.1262 182.07C15.1262 179.079 17.7072 176.642 20.8845 176.642H63.3388C63.6795 176.642 63.9521 176.914 63.9521 177.255C63.9521 177.596 63.6795 177.869 63.3388 177.869C63.2792 177.869 63.2281 177.818 63.2281 177.758C63.2281 177.698 63.2792 177.647 63.3388 177.647C63.5518 177.647 63.7306 177.468 63.7306 177.255C63.7306 177.042 63.5518 176.863 63.3388 176.863H20.8845C17.835 176.863 15.3477 179.198 15.3477 182.07C15.3477 184.941 17.835 187.276 20.8845 187.276H63.3388C63.5518 187.276 63.7306 187.097 63.7306 186.884C63.7306 186.671 63.5518 186.492 63.3388 186.492C63.2792 186.492 63.2281 186.441 63.2281 186.382C63.2281 186.322 63.2792 186.271 63.3388 186.271C63.6795 186.271 63.9521 186.543 63.9521 186.884C63.9521 187.225 63.671 187.498 63.3388 187.498Z" fill="#21111D"/>
<path d="M56.6034 180.074C56.6034 180.074 57.9407 183.406 57.1741 185.86L56.0838 184.181C56.0838 184.181 55.3427 185.067 54.8913 185.86C54.8913 185.86 54.065 180.38 52.4551 180.074H56.6034Z" fill="#7FC6A6"/>
<path d="M61.7753 180.186H18.3073C18.2476 180.186 18.1965 180.135 18.1965 180.076C18.1965 180.016 18.2476 179.965 18.3073 179.965H61.7753C61.8349 179.965 61.886 180.016 61.886 180.076C61.886 180.135 61.8349 180.186 61.7753 180.186Z" fill="#AAC9F8"/>
<path d="M15.8867 167.599C15.8867 167.599 17.7863 172.371 16.1934 175.984L52.6595 176.29L56.0241 175.984L58.9884 174.143V171.331L58.1622 169.005L55.4704 167.599H15.8867Z" fill="white"/>
<path d="M54.3746 176.751H14.9697C14.7142 176.751 14.5012 176.546 14.5012 176.282C14.5012 176.027 14.7057 175.814 14.9697 175.814H54.3746C56.7511 175.814 58.6847 174.016 58.6847 171.809C58.6847 169.602 56.7511 167.804 54.3746 167.804H14.9697C14.7142 167.804 14.5012 167.599 14.5012 167.335C14.5012 167.079 14.7057 166.866 14.9697 166.866H54.3746C57.2622 166.866 59.6132 169.082 59.6132 171.8C59.6132 174.544 57.2622 176.751 54.3746 176.751Z" fill="#258D8C"/>
<path d="M46.9696 171.937H27.6334C27.5738 171.937 27.5227 171.886 27.5227 171.826C27.5227 171.766 27.5738 171.715 27.6334 171.715H46.9696C47.0292 171.715 47.0803 171.766 47.0803 171.826C47.0803 171.886 47.0292 171.937 46.9696 171.937Z" fill="#AAC9F8"/>
<path d="M57.2743 171.937H38.4833C38.4237 171.937 38.3726 171.886 38.3726 171.826C38.3726 171.766 38.4237 171.715 38.4833 171.715H57.2658C57.3254 171.715 57.3765 171.766 57.3765 171.826C57.3765 171.886 57.3339 171.937 57.2743 171.937Z" fill="#AAC9F8"/>
<path d="M56.7616 173.786H47.1276C47.068 173.786 47.0168 173.735 47.0168 173.675C47.0168 173.616 47.068 173.564 47.1276 173.564H56.7701C56.8297 173.564 56.8808 173.616 56.8808 173.675C56.8723 173.735 56.8297 173.786 56.7616 173.786Z" fill="#AAC9F8"/>
<path d="M56.7587 170.08H16.4169C16.3573 170.08 16.3062 170.029 16.3062 169.969C16.3062 169.91 16.3573 169.858 16.4169 169.858H56.7587C56.8184 169.858 56.8695 169.91 56.8695 169.969C56.8695 170.029 56.8269 170.08 56.7587 170.08Z" fill="#AAC9F8"/>
<path d="M54.3737 176.871H14.9689C14.6537 176.871 14.3896 176.616 14.3896 176.292C14.3896 175.968 14.6452 175.713 14.9689 175.713C15.0285 175.713 15.0796 175.764 15.0796 175.823C15.0796 175.883 15.0285 175.934 14.9689 175.934C14.773 175.934 14.6196 176.096 14.6196 176.283C14.6196 176.479 14.7815 176.633 14.9689 176.633H54.3737C57.2017 176.633 59.5016 174.468 59.5016 171.81C59.5016 169.151 57.2017 166.987 54.3737 166.987H14.9689C14.773 166.987 14.6196 167.149 14.6196 167.336C14.6196 167.532 14.7815 167.685 14.9689 167.685C15.0285 167.685 15.0796 167.737 15.0796 167.796C15.0796 167.856 15.0285 167.907 14.9689 167.907C14.6537 167.907 14.3896 167.651 14.3896 167.327C14.3896 167.012 14.6452 166.748 14.9689 166.748H54.3737C57.3295 166.748 59.7316 169.015 59.7316 171.793C59.7231 174.605 57.321 176.871 54.3737 176.871Z" fill="#21111D"/>
<path d="M39.4743 173.675C39.4743 173.675 38.1369 177.007 38.9121 179.461L40.0024 177.783C40.0024 177.783 40.7435 178.669 41.195 179.461C41.195 179.461 42.0212 173.982 43.6311 173.675H39.4743Z" fill="#4CB7D8"/>
<path d="M45.7107 173.786H16.4169C16.3573 173.786 16.3062 173.735 16.3062 173.676C16.3062 173.616 16.3573 173.565 16.4169 173.565H45.7107C45.7703 173.565 45.8215 173.616 45.8215 173.676C45.8215 173.735 45.7703 173.786 45.7107 173.786Z" fill="#AAC9F8"/>
<path d="M16.3584 146.423C16.3584 146.423 16.7588 140.816 18.9309 141.906C21.103 142.997 22.8748 150.129 23.1133 150.343C23.3518 150.556 23.2751 157.083 23.2751 157.083L20.7452 155.805C20.7538 155.813 20.0893 140.219 16.3584 146.423Z" fill="#258D8C"/>
<path d="M18.7964 134.826C18.7964 134.826 23.6688 139.189 24.9976 146.662C26.3264 154.135 22.127 156.342 22.127 156.342C22.127 156.342 21.5307 140.62 18.7964 134.826Z" fill="#7FC6A6"/>
<path d="M27.8345 157.349C27.8345 157.349 28.6523 141.431 32.758 134.528C32.758 134.528 25.5346 138.84 23.141 150.148C23.0047 150.787 22.9281 151.494 22.8259 152.176C22.7236 152.883 22.6555 153.514 22.6725 154.136C22.6981 155.244 22.8514 156.198 22.9025 156.897C23.3029 162.939 27.8345 157.349 27.8345 157.349Z" fill="#258D8C"/>
<path d="M27.6978 150.591C27.9789 148.324 28.8393 146.16 30.2192 144.336C31.2158 143.024 32.3743 142.027 33.2772 142.734C35.2875 144.319 35.6878 154.153 35.6878 154.153C35.6878 154.153 33.422 147.344 32.4254 147.796C31.4288 148.247 30.5088 157.493 30.5088 157.493L26.7949 157.8L27.6978 150.591Z" fill="#7FC6A6"/>
<path d="M22.6357 156.794C22.4824 153.317 22.9168 149.985 23.9305 146.883C24.7397 144.404 25.9152 142.06 27.4314 139.93C30.0124 136.3 32.7042 134.502 32.7297 134.485L32.7979 134.587C32.7723 134.604 30.0891 136.394 27.5251 140.007C25.1571 143.339 22.4143 148.963 22.755 156.794H22.6357Z" fill="#21111D"/>
<path d="M22.0657 156.342C22.0657 156.3 21.9124 152.363 21.4269 147.761C20.9754 143.518 20.1491 137.834 18.7437 134.851L18.8544 134.8C20.2684 137.8 21.1032 143.501 21.5461 147.753C22.0316 152.354 22.185 156.3 22.185 156.342H22.0657Z" fill="#21111D"/>
<path d="M20.6937 155.814C20.6937 155.789 20.5745 153.224 20.1997 150.625C19.7056 147.208 18.9901 145.29 18.1298 145.069C17.6187 144.941 17.0394 145.401 16.4091 146.458L16.3069 146.398C16.9713 145.299 17.6016 144.813 18.1638 144.958C19.0838 145.197 19.8164 147.097 20.3189 150.616C20.6937 153.224 20.813 155.789 20.813 155.814H20.6937Z" fill="#21111D"/>
<path d="M26.8715 157.808L26.7522 157.791L27.6381 150.582C27.9192 148.281 28.7965 146.108 30.1765 144.302C31.0453 143.16 31.8205 142.529 32.4764 142.453C32.783 142.41 33.0726 142.495 33.3197 142.691C34.163 143.356 34.8359 145.495 35.3044 149.031C35.6536 151.664 35.7559 154.127 35.7559 154.152L35.6366 154.161C35.6366 154.059 35.2107 144.336 33.2515 142.785C33.0215 142.606 32.7745 142.538 32.4934 142.572C31.8716 142.649 31.122 143.262 30.2702 144.378C28.9073 146.168 28.0384 148.324 27.7573 150.599L26.8715 157.808Z" fill="#21111D"/>
<path d="M30.7265 148.918L29.9456 150.432L30.0515 150.487L30.8325 148.972L30.7265 148.918Z" fill="#21111D"/>
<path d="M30.7299 149.941L29.949 151.359L30.0534 151.416L30.8343 149.998L30.7299 149.941Z" fill="#21111D"/>
<path d="M22.0851 139.895L21.9766 139.945L22.6439 141.41L22.7524 141.361L22.0851 139.895Z" fill="#21111D"/>
<path d="M22.1883 141.049L22.084 141.106L22.6496 142.128L22.7539 142.07L22.1883 141.049Z" fill="#21111D"/>
<path d="M18.3689 142.447L18.3147 142.553L19.4456 143.13L19.4997 143.023L18.3689 142.447Z" fill="#21111D"/>
<path d="M18.8248 143.108L18.7627 143.21L19.4332 143.618L19.4952 143.516L18.8248 143.108Z" fill="#21111D"/>
<path d="M19.4709 155.406C19.4709 155.406 19.6839 167.046 22.8015 166.765H25.2548H25.6466H28.0998C31.2174 167.037 31.4304 155.406 31.4304 155.406C28.4746 154.962 22.4182 154.962 19.4709 155.406Z" fill="#F75553"/>
<path d="M30.1627 156.894L26.7603 160.489L26.8468 160.571L30.2493 156.976L30.1627 156.894Z" fill="#21111D"/>
<path d="M29.1694 159.214L27.2969 161.368L27.3869 161.446L29.2594 159.292L29.1694 159.214Z" fill="#21111D"/>
<path d="M166.263 115.935C166.263 115.935 165.028 115.33 163.887 115.653C163.222 115.841 162.762 116.437 162.728 117.128L162.694 117.801L166.229 116.506C166.229 116.506 166.766 116.795 166.723 116.71C166.681 116.633 166.263 115.935 166.263 115.935Z" fill="#FE9F73"/>
<path d="M162.728 117.051L162.575 119.888C162.575 119.888 162.481 120.902 163.358 121.073L163.12 122.411C163.035 122.913 163.307 123.408 163.784 123.587C164.014 123.672 164.295 123.74 164.611 123.757C165.624 123.808 166.212 123.084 166.314 122.709C166.416 122.334 166.263 120.51 166.263 120.51L166.34 119.624L166.408 116.165L162.728 117.051Z" fill="#FE9F73"/>
<path d="M165.099 118.516C165.107 118.516 165.116 118.516 165.133 118.508C165.15 118.49 165.15 118.465 165.142 118.448C165.133 118.439 164.588 117.817 164.034 118.218C164.017 118.235 164.009 118.26 164.026 118.277C164.043 118.294 164.068 118.303 164.085 118.286C164.571 117.937 165.056 118.482 165.082 118.508C165.073 118.516 165.082 118.516 165.099 118.516Z" fill="#21111D"/>
<path d="M163.373 118.176C163.381 118.176 163.398 118.176 163.407 118.159C163.424 118.142 163.424 118.116 163.407 118.099C163.39 118.082 163.006 117.715 162.741 117.92C162.724 117.937 162.716 117.963 162.733 117.98C162.75 117.997 162.776 118.005 162.793 117.988C162.997 117.826 163.347 118.159 163.347 118.159C163.356 118.167 163.364 118.176 163.373 118.176Z" fill="#21111D"/>
<path d="M164.491 118.661C164.495 118.59 164.441 118.53 164.37 118.526C164.3 118.522 164.239 118.576 164.236 118.647C164.232 118.718 164.286 118.778 164.357 118.782C164.427 118.785 164.487 118.731 164.491 118.661Z" fill="black"/>
<path d="M163.158 118.461C163.162 118.39 163.108 118.33 163.037 118.326C162.967 118.323 162.907 118.377 162.903 118.447C162.899 118.518 162.953 118.578 163.024 118.582C163.094 118.586 163.155 118.532 163.158 118.461Z" fill="black"/>
<path d="M166.261 115.893C166.261 115.893 167.334 115.901 167.556 116.847C167.777 117.801 167.292 118.27 167.266 118.551C167.24 118.832 167.334 120.724 166.014 120.511L165.818 117.384L166.346 116.165L166.261 115.893Z" fill="#21111D"/>
<path d="M166.803 118.732C166.826 118.314 166.505 117.957 166.087 117.935C165.668 117.913 165.312 118.234 165.289 118.652C165.267 119.07 165.588 119.427 166.006 119.449C166.424 119.472 166.781 119.151 166.803 118.732Z" fill="#FE9F73"/>
<path d="M166.072 119.164C166.233 119.172 166.344 119.061 166.378 118.942C166.429 118.806 166.387 118.669 166.276 118.593C166.114 118.482 165.961 118.541 165.876 118.584C165.91 118.499 165.969 118.439 166.038 118.405C166.191 118.328 166.37 118.397 166.378 118.405C166.387 118.414 166.404 118.405 166.404 118.397C166.404 118.388 166.404 118.371 166.395 118.371C166.387 118.371 166.191 118.294 166.021 118.38C165.918 118.431 165.85 118.516 165.816 118.644L165.791 118.72L165.85 118.669C165.859 118.661 166.046 118.499 166.251 118.644C166.361 118.72 166.37 118.857 166.336 118.951C166.302 119.044 166.216 119.155 166.072 119.146C166.072 119.146 166.072 119.146 166.063 119.146C166.055 119.146 166.038 119.155 166.038 119.164C166.046 119.155 166.055 119.164 166.072 119.164Z" fill="#F07162"/>
<path d="M165.462 120.323C165.462 120.323 165.309 122.01 163.188 122.062L163.367 121.073C163.358 121.073 164.721 121.422 165.462 120.323Z" fill="#F07162"/>
<path d="M163.747 119.471C163.755 119.471 163.764 119.462 163.764 119.454C163.764 119.445 163.764 119.428 163.755 119.428L163.338 119.266L163.525 118.278C163.525 118.269 163.517 118.252 163.508 118.252C163.5 118.252 163.483 118.261 163.483 118.269L163.287 119.292L163.747 119.471C163.738 119.471 163.747 119.471 163.747 119.471Z" fill="#F07162"/>
<path d="M166.29 120.741L166.213 119.309L165.864 119.326L165.787 120.758L166.29 120.741Z" fill="#FE9F73"/>
<path d="M166.069 115.858C166.069 115.858 166.282 116.463 165.822 117.434C165.362 118.397 166.887 117.119 166.887 117.119C166.887 117.119 166.87 115.662 166.069 115.858Z" fill="#21111D"/>
<path d="M165.83 117.426C165.83 117.426 162.619 117.059 162.457 116.301C162.295 115.534 163.062 115.56 163.062 115.56C163.062 115.56 162.977 114.477 163.931 114.852C164.885 115.219 166.691 115.278 167.151 116.207C167.611 117.136 165.83 117.426 165.83 117.426Z" fill="#21111D"/>
<path d="M165.86 117.972L165.689 118.552L165.562 118.364C165.562 118.364 165.332 117.504 165.545 117.112C165.757 116.72 166.49 117.342 166.49 117.342L165.86 117.972Z" fill="#21111D"/>
<path d="M163.167 119.804C163.184 119.804 164.052 119.77 164.052 119.77C164.052 119.77 163.95 120.127 163.626 120.144C163.303 120.153 163.167 119.804 163.167 119.804Z" fill="#FBFDFC"/>
<path d="M167.421 186.489L171.39 186.541L171.45 182.791L167.489 182.297L167.421 186.489Z" fill="#FE9F73"/>
<path d="M158.417 186.489L162.386 186.541L162.446 182.791L158.493 182.297L158.417 186.489Z" fill="#FE9F73"/>
<path d="M158.315 152.806C158.92 153.59 159.082 152.815 159.082 152.815C159.448 153.198 159.635 153.13 159.729 153.002C159.797 152.909 159.814 152.789 159.772 152.679C159.661 152.329 159.32 151.264 159.065 150.616C159.124 150.165 159.874 150.361 160.249 150.582C160.445 150.702 160.777 150.727 160.47 150.216C160.223 149.798 159.363 149.142 159.363 149.142L159.755 146.646L156.271 146.807C156.271 146.807 156.134 149.679 156.109 150.114C156.083 150.548 156.492 152.022 156.841 152.483C157.48 153.318 157.548 152.824 157.548 152.824C158.306 153.625 158.315 152.806 158.315 152.806Z" fill="#FE9F73"/>
<path d="M158.567 151.88C158.567 151.854 158.584 151.837 158.601 151.828C158.626 151.82 158.66 151.837 158.669 151.862C158.797 152.246 159.129 152.791 159.129 152.791C159.146 152.817 159.137 152.851 159.112 152.859C159.086 152.877 159.052 152.868 159.044 152.842C159.027 152.817 158.711 152.28 158.575 151.888C158.567 151.888 158.567 151.88 158.567 151.88Z" fill="#F07162"/>
<path d="M157.911 151.885C157.911 151.86 157.928 151.843 157.954 151.834C157.979 151.826 158.013 151.843 158.013 151.877C158.116 152.354 158.363 152.78 158.363 152.78C158.38 152.806 158.371 152.84 158.346 152.848C158.32 152.865 158.286 152.857 158.277 152.831C158.269 152.814 158.013 152.397 157.911 151.894C157.911 151.894 157.911 151.894 157.911 151.885Z" fill="#F07162"/>
<path d="M157.16 152.014C157.16 151.988 157.177 151.971 157.203 151.963C157.228 151.954 157.262 151.971 157.262 152.005C157.356 152.414 157.603 152.789 157.603 152.789C157.62 152.815 157.612 152.849 157.586 152.857C157.561 152.874 157.526 152.866 157.518 152.84C157.509 152.823 157.262 152.448 157.16 152.022C157.16 152.022 157.16 152.022 157.16 152.014Z" fill="#F07162"/>
<path d="M155.958 147.881L156.018 149.1C156.018 149.1 156.648 149.526 157.815 149.492L157.526 147.89H155.958V147.881Z" fill="#E2F2F1"/>
<path d="M165.446 144.183C165.446 144.183 164.918 169.048 163.104 183.398C163.104 183.398 160.685 184.156 157.644 182.733L157.516 146.083L157.073 140.595L165.446 144.183Z" fill="#33192C"/>
<path d="M171.822 144.429C171.822 144.429 172.886 168.945 171.694 183.389C171.694 183.389 169.437 184.812 166.336 183.577L162.588 148.358L160.995 138.933L171.822 144.429Z" fill="#49263E"/>
<path d="M168.631 184.131C170.343 184.131 171.714 183.466 171.731 183.458L171.766 183.441L171.774 183.398C172.788 177.885 172.14 150.736 172.132 150.463C172.132 150.421 172.089 150.378 172.047 150.378C172.004 150.378 171.961 150.421 171.961 150.463C171.97 150.736 172.617 177.732 171.612 183.322C171.272 183.475 168.716 184.566 166.365 183.492C166.322 183.475 166.271 183.492 166.254 183.535C166.237 183.577 166.254 183.628 166.297 183.645C167.089 184.003 167.898 184.131 168.631 184.131Z" fill="black"/>
<path d="M161.362 183.671C161.916 183.671 162.504 183.62 163.117 183.483C163.159 183.475 163.193 183.432 163.176 183.381C163.168 183.338 163.125 183.304 163.074 183.321C160.297 183.926 158.057 182.861 157.716 182.691L157.589 148.213C157.589 148.171 157.503 148.069 157.503 148.026C157.503 146.833 157.503 148.137 157.503 148.137C157.461 148.137 157.418 148.171 157.418 148.222L157.546 182.802L157.589 182.827C157.623 182.827 159.181 183.671 161.362 183.671Z" fill="black"/>
<path d="M158.643 123.109C158.643 123.109 156.659 123.919 156.326 125.487C155.994 127.055 155.134 146.015 155.73 147.881H158.635V123.109H158.643Z" fill="#FF424D"/>
<path d="M172.851 134.042L171.531 148.989C171.531 148.989 163.694 150.718 157.612 147.523C157.612 147.523 158.583 124.336 158.779 123.39C159.001 122.283 165.074 122.189 167.604 122.462C167.604 122.462 171.531 122.359 173.626 123.518L172.851 134.042Z" fill="#E2F2F1"/>
<path d="M173.012 130.668V149.858C173.012 149.858 168.003 150.813 165.575 149.858C165.575 149.858 165.592 123.144 166.58 122.326C166.7 122.326 169.195 122.377 170.976 122.598C172.764 122.82 173.012 130.668 173.012 130.668Z" fill="#FF424D"/>
<path d="M162.551 122.333C162.551 122.333 162.048 145.827 161.554 149.321C161.554 149.321 159.536 149.457 156.955 148.562C156.955 148.562 157.415 124.046 158.088 123.399C158.743 122.734 162.551 122.333 162.551 122.333Z" fill="#FF424D"/>
<path d="M166.257 122.367C166.257 122.367 163.114 122.29 162.586 122.393C162.586 122.393 163.003 123.628 163.071 123.679C163.139 123.73 165.175 124.148 165.175 124.148C165.175 124.148 165.874 123.739 165.899 123.603C165.933 123.458 166.257 122.367 166.257 122.367Z" fill="#E2F2F1"/>
<path d="M173.006 136.845C173.049 136.845 173.092 136.811 173.092 136.76V132.806C173.092 132.763 173.057 132.721 173.006 132.721C172.964 132.721 172.921 132.755 172.921 132.806V136.76C172.921 136.811 172.955 136.845 173.006 136.845Z" fill="black"/>
<path d="M165.57 149.943C165.612 149.943 165.655 149.909 165.655 149.858C165.612 132.849 166.089 126.935 166.089 126.876C166.089 126.833 166.055 126.791 166.013 126.791C165.97 126.791 165.928 126.825 165.919 126.867C165.911 126.927 165.442 132.841 165.485 149.858C165.485 149.909 165.519 149.943 165.57 149.943Z" fill="black"/>
<path d="M156.965 148.64C157.016 148.64 157.05 148.606 157.05 148.555C156.888 141.252 158.217 125.462 158.226 125.308C158.226 125.266 158.192 125.223 158.149 125.223C158.098 125.223 158.064 125.249 158.055 125.3C158.038 125.462 156.709 141.252 156.88 148.563C156.88 148.606 156.914 148.64 156.965 148.64Z" fill="black"/>
<path d="M162.45 127.207C162.493 127.207 162.535 127.173 162.535 127.122L162.646 122.23L162.552 122.239C162.382 122.256 158.37 122.58 157.186 123.96C157.152 123.994 157.16 124.046 157.194 124.08C157.228 124.114 157.279 124.105 157.314 124.071C158.361 122.853 161.862 122.478 162.476 122.418L162.373 127.122C162.365 127.173 162.399 127.207 162.45 127.207Z" fill="black"/>
<path d="M179.405 139.82C178.894 137.229 180.009 135.585 180.853 134.724C181.142 135.551 181.347 136.386 181.432 137.221C181.551 138.337 180.946 139.82 180.026 141.362C179.754 140.987 179.532 140.476 179.405 139.82Z" fill="#FEC786"/>
<path d="M172.742 124.626C172.725 124.626 172.708 124.617 172.699 124.6C172.154 123.867 171.251 123.569 171.243 123.569C171.217 123.561 171.2 123.527 171.209 123.501C171.217 123.467 171.251 123.458 171.277 123.467C171.311 123.475 172.214 123.774 172.785 124.541C172.802 124.566 172.802 124.6 172.776 124.617C172.768 124.626 172.759 124.626 172.742 124.626Z" fill="#21111D"/>
<path d="M172.64 125.154C172.623 125.154 172.606 125.145 172.597 125.128C172.052 124.395 171.149 124.097 171.141 124.097C171.115 124.089 171.098 124.055 171.107 124.029C171.115 124.003 171.149 123.986 171.175 123.995C171.209 124.003 172.112 124.302 172.683 125.069C172.7 125.094 172.7 125.128 172.674 125.145C172.666 125.145 172.648 125.154 172.64 125.154Z" fill="#21111D"/>
<path d="M170.334 183.926C170.376 183.926 170.419 183.892 170.419 183.841L170.564 174.008C170.564 173.965 170.53 173.922 170.479 173.922C170.436 173.922 170.393 173.956 170.393 174.008L170.249 183.841C170.249 183.892 170.283 183.926 170.334 183.926Z" fill="black"/>
<path d="M161.261 183.67C161.304 183.67 161.338 183.636 161.347 183.594L161.9 174.016C161.9 173.973 161.866 173.93 161.824 173.93C161.781 173.922 161.738 173.964 161.738 174.007L161.185 183.585C161.176 183.628 161.21 183.67 161.261 183.67Z" fill="black"/>
<path d="M147.203 122.967L142.359 128.656L191.008 170.118L195.853 164.43L147.203 122.967Z" fill="#FEC786"/>
<path d="M145.713 124.719L143.851 126.905L192.501 168.368L194.362 166.182L145.713 124.719Z" fill="#F99247"/>
<path d="M190.763 160.098L185.918 165.786L187.351 167.007L192.196 161.319L190.763 160.098Z" fill="#4CB7D8"/>
<path d="M196.04 169.5C194.703 171.068 192.343 171.255 190.776 169.918L187.36 167.003L192.207 161.311L195.623 164.225C197.19 165.572 197.378 167.932 196.04 169.5Z" fill="#FC4963"/>
<path d="M137.592 119.684L142.362 128.665C142.839 129.066 143.554 129.006 143.963 128.52C144.372 128.035 144.321 127.319 143.853 126.91C144.33 127.31 145.13 127.148 145.641 126.552C146.153 125.947 146.187 125.129 145.718 124.728C146.195 125.129 146.911 125.069 147.32 124.583C147.728 124.098 147.677 123.382 147.209 122.973L137.592 119.684Z" fill="#F7D6B2"/>
<path d="M142.359 128.665C142.359 128.665 143.944 128.315 143.85 126.918L144.864 127.779L143.373 129.526L142.359 128.665Z" fill="#FEC786"/>
<path d="M145.717 124.72C145.717 124.72 147.301 124.37 147.207 122.973L148.221 123.833L146.73 125.58L145.717 124.72Z" fill="#FEC786"/>
<path d="M143.85 126.91C143.85 126.91 145.613 126.773 145.715 124.72L146.822 125.666L144.957 127.856L143.85 126.91Z" fill="#F99247"/>
<path d="M139.176 122.666C139.176 122.666 140.59 122.376 140.786 120.774L137.592 119.684L139.176 122.666Z" fill="#FF424D"/>
<path d="M196.136 169.585C197.413 168.068 197.226 166.671 196.843 165.759C196.434 164.779 195.735 164.166 195.701 164.14L147.267 122.862L147.241 122.854L137.318 119.462L140.393 125.24L140.614 125.121L137.846 119.906L147.139 123.084L195.531 164.327C195.539 164.336 196.221 164.932 196.604 165.861C197.115 167.088 196.894 168.281 195.931 169.415L196.136 169.585Z" fill="black"/>
<path d="M152.079 136.747L151.913 136.942L179.896 160.822L180.062 160.628L152.079 136.747Z" fill="black"/>
<path d="M183.223 160.316L183.177 160.567L185.958 161.082L186.004 160.831L183.223 160.316Z" fill="black"/>
<path d="M191.493 167.587L191.447 167.839L193.03 168.132L193.076 167.881L191.493 167.587Z" fill="black"/>
<path d="M192.416 168.64L192.37 168.892L193.953 169.185L193.999 168.934L192.416 168.64Z" fill="black"/>
<path d="M183.989 161.616L183.942 161.868L186.723 162.383L186.769 162.132L183.989 161.616Z" fill="black"/>
<path d="M192.102 161.225L187.268 166.923L187.463 167.088L192.297 161.391L192.102 161.225Z" fill="black"/>
<path d="M168.219 151.504C167.24 151.632 167.666 150.976 167.666 150.976C167.129 150.993 167.052 150.806 167.078 150.652C167.095 150.541 167.172 150.439 167.274 150.388C167.598 150.218 168.586 149.698 169.225 149.417C169.497 149.059 168.824 148.667 168.398 148.556C168.177 148.505 167.921 148.292 168.501 148.138C168.969 148.019 170.042 148.155 170.042 148.155L171.516 146.093L173.884 148.658C173.884 148.658 171.967 150.797 171.678 151.121C171.388 151.445 170.068 152.212 169.489 152.297C168.449 152.442 168.748 152.041 168.748 152.041C167.657 152.092 168.219 151.504 168.219 151.504Z" fill="#FE9F73"/>
<path d="M168.698 150.659C168.715 150.642 168.715 150.617 168.707 150.6C168.69 150.574 168.664 150.565 168.638 150.574C168.281 150.753 167.659 150.915 167.659 150.915C167.633 150.923 167.616 150.949 167.625 150.974C167.633 151 167.659 151.017 167.684 151.009C167.71 151 168.315 150.847 168.69 150.659C168.69 150.668 168.698 150.668 168.698 150.659Z" fill="#F07162"/>
<path d="M169.168 151.137C169.185 151.12 169.185 151.094 169.177 151.069C169.16 151.043 169.126 151.035 169.109 151.052C168.7 151.325 168.231 151.444 168.223 151.452C168.197 151.461 168.18 151.486 168.189 151.512C168.197 151.538 168.223 151.555 168.248 151.546C168.265 151.546 168.742 151.427 169.168 151.137Z" fill="#F07162"/>
<path d="M169.605 151.75C169.622 151.733 169.622 151.708 169.614 151.682C169.597 151.657 169.563 151.648 169.546 151.665C169.188 151.895 168.754 151.98 168.745 151.98C168.719 151.989 168.702 152.014 168.702 152.04C168.711 152.066 168.736 152.083 168.762 152.083C168.779 152.083 169.222 151.989 169.597 151.75C169.605 151.759 169.605 151.75 169.605 151.75Z" fill="#F07162"/>
<path d="M173.553 149.133L172.906 149.849C172.906 149.849 170.504 147.779 170.333 147.506C170.376 147.463 171.057 146.466 171.057 146.466L173.553 149.133Z" fill="#E2F2F1"/>
<path d="M169.442 122.513C169.442 122.513 173.531 122.138 175.566 125.521C177.432 128.606 180.984 132.952 181.435 137.221C181.793 140.672 175.319 147.558 173.624 149.202L170.626 146.007C170.626 146.007 175.396 138.44 175.762 137.502C176.103 136.65 169.127 127.447 169.127 127.447L169.442 122.513Z" fill="#FF424D"/>
<path d="M173.62 149.295C173.637 149.295 173.663 149.286 173.671 149.278C173.706 149.244 173.714 149.193 173.68 149.159C172.999 148.375 171.056 146.347 170.724 146.006C172.394 143.441 175.844 137.57 175.844 137.399C175.844 137.357 175.81 137.314 175.758 137.314C175.716 137.314 175.682 137.34 175.673 137.382C175.58 137.638 172.343 143.219 170.545 145.972L170.511 146.031L170.554 146.082C170.579 146.108 172.803 148.426 173.544 149.278C173.578 149.286 173.595 149.295 173.62 149.295Z" fill="black"/>
<path d="M177.398 138.124C177.441 138.124 177.483 138.09 177.483 138.039C177.483 137.996 177.449 137.954 177.398 137.954C176.887 137.954 176.018 137.451 175.839 137.349C175.558 136.215 171.64 130.685 171.47 130.446C171.444 130.412 171.393 130.404 171.35 130.429C171.316 130.455 171.308 130.506 171.333 130.549C171.376 130.608 175.499 136.42 175.686 137.425L175.695 137.46L175.729 137.477C175.771 137.494 176.785 138.124 177.398 138.124Z" fill="black"/>
<path d="M179.402 131.665C179.419 131.665 179.436 131.656 179.444 131.648C179.487 131.622 179.495 131.571 179.47 131.528L174.972 124.566C172.672 122.104 169.853 122.436 169.827 122.436C169.785 122.444 169.75 122.487 169.75 122.53C169.759 122.572 169.802 122.606 169.844 122.606C169.87 122.606 172.604 122.291 174.836 124.677L179.316 131.622C179.35 131.656 179.376 131.665 179.402 131.665Z" fill="black"/>
<path d="M171.456 187.02H168.023L166.634 185.46L164.087 187.02H163.542C163.355 187.02 163.176 187.148 163.142 187.344C163.091 187.599 163.287 187.821 163.525 187.821H171.507C171.566 187.821 171.609 187.77 171.609 187.71V187.173C171.609 187.088 171.541 187.02 171.456 187.02Z" fill="#FEC786"/>
<path d="M171.422 187.028V185.579C171.422 185.579 170.843 184.778 169.966 185.187C169.966 185.187 168.637 186.159 167.461 184.983L164.548 186.312C164.548 186.312 163.747 186.585 163.534 187.028H171.422Z" fill="#4C222E"/>
<path d="M171.456 185.58H171.396V187.02H171.456V185.58Z" fill="black"/>
<path d="M168.77 185.596C168.659 185.596 168.591 185.587 168.591 185.587L168.6 185.528C168.608 185.528 169.298 185.63 169.945 185.17L169.98 185.221C169.511 185.545 169.025 185.596 168.77 185.596Z" fill="black"/>
<path d="M170.715 186.756L170.681 186.705L171.056 186.449L171.09 186.5L170.715 186.756Z" fill="black"/>
<path d="M170.445 186.679L170.411 186.637L170.786 186.372L170.812 186.423L170.445 186.679Z" fill="black"/>
<path d="M163.242 187.752C163.149 187.667 163.098 187.547 163.098 187.419C163.098 187.181 163.285 186.985 163.515 186.985H171.403C171.531 186.985 171.624 187.087 171.624 187.215V187.615H171.565V187.215C171.565 187.121 171.488 187.045 171.394 187.045H163.507C163.311 187.045 163.149 187.215 163.149 187.419C163.149 187.53 163.191 187.632 163.277 187.701L163.242 187.752Z" fill="black"/>
<path d="M163.554 187.038L163.502 187.012C163.511 186.995 163.673 186.663 164.269 186.399C164.857 186.143 167.429 184.967 167.455 184.958L167.48 185.01C167.455 185.018 164.874 186.194 164.286 186.45C163.715 186.705 163.554 187.038 163.554 187.038Z" fill="black"/>
<path d="M162.42 187.02H158.987L157.599 185.46L155.052 187.02H154.507C154.319 187.02 154.14 187.148 154.106 187.344C154.055 187.599 154.251 187.821 154.49 187.821H162.471C162.531 187.821 162.573 187.77 162.573 187.71V187.173C162.573 187.088 162.505 187.02 162.42 187.02Z" fill="#FEC786"/>
<path d="M162.389 187.028V185.579C162.389 185.579 161.809 184.778 160.932 185.187C160.932 185.187 159.603 186.159 158.428 184.983L155.514 186.312C155.514 186.312 154.714 186.585 154.501 187.028H162.389Z" fill="#4C222E"/>
<path d="M162.422 185.58H162.362V187.02H162.422V185.58Z" fill="black"/>
<path d="M159.737 185.596C159.626 185.596 159.558 185.588 159.558 185.588L159.567 185.528C159.575 185.528 160.265 185.631 160.913 185.17L160.947 185.222C160.478 185.545 159.993 185.596 159.737 185.596Z" fill="black"/>
<path d="M161.678 186.756L161.644 186.705L162.02 186.449L162.054 186.5L161.678 186.756Z" fill="black"/>
<path d="M161.414 186.68L161.38 186.637L161.755 186.373L161.789 186.424L161.414 186.68Z" fill="black"/>
<path d="M154.212 187.754C154.118 187.669 154.067 187.549 154.067 187.421C154.067 187.183 154.255 186.987 154.485 186.987H162.373C162.5 186.987 162.594 187.089 162.594 187.217V187.617H162.534V187.217C162.534 187.123 162.458 187.046 162.364 187.046H154.485C154.289 187.046 154.127 187.217 154.127 187.421C154.127 187.532 154.17 187.634 154.255 187.703L154.212 187.754Z" fill="black"/>
<path d="M154.517 187.037L154.466 187.011C154.474 186.994 154.636 186.662 155.232 186.398C155.82 186.142 158.393 184.966 158.418 184.958L158.444 185.009C158.418 185.017 155.837 186.193 155.249 186.449C154.679 186.704 154.517 187.037 154.517 187.037Z" fill="black"/>
</svg>
