<svg width="61" height="57" viewBox="0 0 61 57" fill="none" xmlns="http://www.w3.org/2000/svg">
<path d="M53 18H0.5L8.145 0H61L53 18Z" fill="#7A0F00"/>
<path d="M34.8562 0H8.71289V46.7692L34.8562 57L60.9996 46.7692V0H34.8562Z" fill="#E10813"/>
<path d="M14.2345 21.384V24.744C14.2345 25.08 14.3172 25.3387 14.4825 25.52C14.6479 25.7013 14.8905 25.792 15.2105 25.792C15.5305 25.792 15.7759 25.7013 15.9465 25.52C16.1172 25.3387 16.2025 25.08 16.2025 24.744V21.384H17.5705V24.736C17.5705 25.2373 17.4639 25.6613 17.2505 26.008C17.0372 26.3547 16.7492 26.616 16.3865 26.792C16.0292 26.968 15.6292 27.056 15.1865 27.056C14.7439 27.056 14.3465 26.9707 13.9945 26.8C13.6479 26.624 13.3732 26.3627 13.1705 26.016C12.9679 25.664 12.8665 25.2373 12.8665 24.736V21.384H14.2345ZM23.5552 27H22.1872L19.8992 23.536V27H18.5312V21.384H19.8992L22.1872 24.864V21.384H23.5552V27ZM28.2748 23.16C28.1734 22.9733 28.0268 22.832 27.8348 22.736C27.6481 22.6347 27.4268 22.584 27.1708 22.584C26.7281 22.584 26.3734 22.7307 26.1068 23.024C25.8401 23.312 25.7068 23.6987 25.7068 24.184C25.7068 24.7013 25.8454 25.1067 26.1228 25.4C26.4054 25.688 26.7921 25.832 27.2828 25.832C27.6188 25.832 27.9014 25.7467 28.1308 25.576C28.3654 25.4053 28.5361 25.16 28.6428 24.84H26.9068V23.832H29.8828V25.104C29.7814 25.4453 29.6081 25.7627 29.3628 26.056C29.1228 26.3493 28.8161 26.5867 28.4428 26.768C28.0694 26.9493 27.6481 27.04 27.1788 27.04C26.6241 27.04 26.1281 26.92 25.6908 26.68C25.2588 26.4347 24.9201 26.096 24.6748 25.664C24.4348 25.232 24.3148 24.7387 24.3148 24.184C24.3148 23.6293 24.4348 23.136 24.6748 22.704C24.9201 22.2667 25.2588 21.928 25.6908 21.688C26.1228 21.4427 26.6161 21.32 27.1708 21.32C27.8428 21.32 28.4081 21.4827 28.8668 21.808C29.3308 22.1333 29.6374 22.584 29.7868 23.16H28.2748ZM34.3685 23.16C34.2672 22.9733 34.1205 22.832 33.9285 22.736C33.7419 22.6347 33.5205 22.584 33.2645 22.584C32.8219 22.584 32.4672 22.7307 32.2005 23.024C31.9339 23.312 31.8005 23.6987 31.8005 24.184C31.8005 24.7013 31.9392 25.1067 32.2165 25.4C32.4992 25.688 32.8859 25.832 33.3765 25.832C33.7125 25.832 33.9952 25.7467 34.2245 25.576C34.4592 25.4053 34.6299 25.16 34.7365 24.84H33.0005V23.832H35.9765V25.104C35.8752 25.4453 35.7019 25.7627 35.4565 26.056C35.2165 26.3493 34.9099 26.5867 34.5365 26.768C34.1632 26.9493 33.7419 27.04 33.2725 27.04C32.7179 27.04 32.2219 26.92 31.7845 26.68C31.3525 26.4347 31.0139 26.096 30.7685 25.664C30.5285 25.232 30.4085 24.7387 30.4085 24.184C30.4085 23.6293 30.5285 23.136 30.7685 22.704C31.0139 22.2667 31.3525 21.928 31.7845 21.688C32.2165 21.4427 32.7099 21.32 33.2645 21.32C33.9365 21.32 34.5019 21.4827 34.9605 21.808C35.4245 22.1333 35.7312 22.584 35.8805 23.16H34.3685ZM38.0783 21.384V24.744C38.0783 25.08 38.1609 25.3387 38.3263 25.52C38.4916 25.7013 38.7343 25.792 39.0543 25.792C39.3743 25.792 39.6196 25.7013 39.7903 25.52C39.9609 25.3387 40.0463 25.08 40.0463 24.744V21.384H41.4143V24.736C41.4143 25.2373 41.3076 25.6613 41.0943 26.008C40.8809 26.3547 40.5929 26.616 40.2303 26.792C39.8729 26.968 39.4729 27.056 39.0303 27.056C38.5876 27.056 38.1903 26.9707 37.8383 26.8C37.4916 26.624 37.2169 26.3627 37.0143 26.016C36.8116 25.664 36.7103 25.2373 36.7103 24.736V21.384H38.0783ZM43.7429 25.944H45.5349V27H42.3749V21.384H43.7429V25.944ZM49.6834 26.008H47.5874L47.2514 27H45.8194L47.8514 21.384H49.4354L51.4674 27H50.0194L49.6834 26.008ZM49.3314 24.952L48.6354 22.896L47.9474 24.952H49.3314ZM57.1098 27H55.7418L53.4538 23.536V27H52.0858V21.384H53.4538L55.7418 24.864V21.384H57.1098V27Z" fill="white"/>
</svg>
