<svg width="48" height="48" viewBox="0 0 48 48" fill="none" xmlns="http://www.w3.org/2000/svg">
<circle cx="24" cy="24" r="24" fill="#D8FFE8"/>
<g clip-path="url(#clip0_928_5296)">
<path d="M22.5465 36.35C19.8957 33.0898 14 25.1883 14 20.75C14 15.3652 18.3652 11 23.75 11C29.1328 11 33.5 15.3652 33.5 20.75C33.5 25.1883 27.5586 33.0898 24.9535 36.35C24.3289 37.127 23.1711 37.127 22.5465 36.35ZM23.75 24C25.5426 24 27 22.5426 27 20.75C27 18.9574 25.5426 17.5 23.75 17.5C21.9574 17.5 20.5 18.9574 20.5 20.75C20.5 22.5426 21.9574 24 23.75 24Z" fill="#0EA44D"/>
</g>
<defs>
<clipPath id="clip0_928_5296">
<rect width="19.5" height="26" fill="white" transform="translate(14 11)"/>
</clipPath>
</defs>
</svg>
