<svg width="48" height="48" viewBox="0 0 48 48" fill="none" xmlns="http://www.w3.org/2000/svg">
<circle cx="24" cy="24" r="24" fill="#D8FFE8"/>
<path d="M14.8049 15H34.6799C36.5549 15 37.4999 15.885 37.4999 17.685V30.315C37.4999 32.1 36.5549 33 34.6799 33H14.8049C12.9299 33 11.9849 32.1 11.9849 30.315V17.685C11.9849 15.885 12.9299 15 14.8049 15ZM24.7349 27.9L34.8449 19.605C35.2049 19.305 35.4899 18.615 35.0399 18C34.6049 17.385 33.8099 17.37 33.2849 17.745L24.7349 23.535L16.1999 17.745C15.6749 17.37 14.8799 17.385 14.4449 18C13.9949 18.615 14.2799 19.305 14.6399 19.605L24.7349 27.9Z" fill="#0EA44D"/>
</svg>
