<svg width="48" height="48" viewBox="0 0 48 48" fill="none" xmlns="http://www.w3.org/2000/svg">
<circle cx="24" cy="24" r="24" fill="#D8FFE8"/>
<path d="M34.0003 22.7487H36.5003C36.5003 16.3362 31.659 11.5 25.2378 11.5V14C30.3153 14 34.0003 17.6787 34.0003 22.7487Z" fill="#0EA44D"/>
<path d="M25.2504 19.0008C27.8791 19.0008 29.0004 20.122 29.0004 22.7508H31.5004C31.5004 18.7195 29.2816 16.5008 25.2504 16.5008V19.0008ZM29.5279 25.8045C29.2877 25.5862 28.972 25.4698 28.6476 25.4798C28.3232 25.4899 28.0154 25.6256 27.7891 25.8583L24.7979 28.9345C24.0779 28.797 22.6304 28.3458 21.1404 26.8595C19.6504 25.3683 19.1991 23.917 19.0654 23.202L22.1391 20.2095C22.3721 19.9834 22.508 19.6756 22.5181 19.351C22.5281 19.0265 22.4115 18.7108 22.1929 18.4708L17.5741 13.392C17.3554 13.1512 17.0515 13.0052 16.7268 12.9849C16.4021 12.9646 16.0824 13.0716 15.8354 13.2833L13.1229 15.6095C12.9067 15.8264 12.7778 16.1151 12.7604 16.4208C12.7416 16.7333 12.3841 24.1358 18.1241 29.8783C23.1316 34.8845 29.4041 35.2508 31.1316 35.2508C31.3841 35.2508 31.5391 35.2433 31.5804 35.2408C31.886 35.2237 32.1745 35.0941 32.3904 34.877L34.7154 32.1633C34.9272 31.9164 35.0345 31.5968 35.0144 31.2721C34.9943 30.9474 34.8485 30.6434 34.6079 30.4245L29.5279 25.8045Z" fill="#0EA44D"/>
</svg>
