<svg width="48" height="48" viewBox="0 0 48 48" fill="none" xmlns="http://www.w3.org/2000/svg">
<circle cx="24" cy="24" r="24" fill="#D8FFE8"/>
<path d="M35.1999 16.5498C31.5999 10.9998 24.2499 9.34982 18.5499 12.7998C12.9999 16.2498 11.1999 23.7498 14.7999 29.2998L15.0999 29.7498L13.8999 34.2498L18.3999 33.0498L18.8499 33.3498C20.7999 34.3998 22.8999 34.9998 24.9999 34.9998C27.2499 34.9998 29.4999 34.3998 31.4499 33.1998C36.9999 29.5998 38.6499 22.2498 35.1999 16.5498ZM32.0499 28.0998C31.4499 28.9998 30.6999 29.5998 29.6499 29.7498C29.0499 29.7498 28.2999 30.0498 25.2999 28.8498C22.7499 27.6498 20.6499 25.6998 19.1499 23.4498C18.2499 22.3998 17.7999 21.0498 17.6499 19.6998C17.6499 18.4998 18.0999 17.4498 18.8499 16.6998C19.1499 16.3998 19.4499 16.2498 19.7499 16.2498H20.4999C20.7999 16.2498 21.0999 16.2498 21.2499 16.8498C21.5499 17.5998 22.2999 19.3998 22.2999 19.5498C22.4499 19.6998 22.4499 19.9998 22.2999 20.1498C22.4499 20.4498 22.2999 20.7498 22.1499 20.8998C21.9999 21.0498 21.8499 21.3498 21.6999 21.4998C21.3999 21.6498 21.2499 21.9498 21.3999 22.2498C21.9999 23.1498 22.7499 24.0498 23.4999 24.7998C24.3999 25.5498 25.2999 26.1498 26.3499 26.5998C26.6499 26.7498 26.9499 26.7498 27.0999 26.4498C27.2499 26.1498 27.9999 25.3998 28.2999 25.0998C28.5999 24.7998 28.7499 24.7998 29.0499 24.9498L31.4499 26.1498C31.7499 26.2998 32.0499 26.4498 32.1999 26.5998C32.3499 27.0498 32.3499 27.6498 32.0499 28.0998Z" fill="#0EA44D"/>
</svg>
