<svg width="48" height="48" viewBox="0 0 48 48" fill="none" xmlns="http://www.w3.org/2000/svg">
<rect width="48" height="48" rx="8" fill="#0EA44D" fill-opacity="0.1"/>
<g clip-path="url(#clip0_1102_2118)">
<path d="M19.1 23.8C20.1344 23.8 21.1264 23.3891 21.8578 22.6577C22.5892 21.9263 23 20.9343 23 19.9C23 18.8657 22.5892 17.8737 21.8578 17.1423C21.1264 16.4109 20.1344 16 19.1 16C18.0657 16 17.0737 16.4109 16.3423 17.1423C15.6109 17.8737 15.2 18.8657 15.2 19.9C15.2 20.9343 15.6109 21.9263 16.3423 22.6577C17.0737 23.3891 18.0657 23.8 19.1 23.8ZM31.4 20.8C31.4 21.5956 31.084 22.3587 30.5214 22.9213C29.9588 23.4839 29.1957 23.8 28.4 23.8C27.6044 23.8 26.8413 23.4839 26.2787 22.9213C25.7161 22.3587 25.4 21.5956 25.4 20.8C25.4 20.0044 25.7161 19.2413 26.2787 18.6787C26.8413 18.1161 27.6044 17.8 28.4 17.8C29.1957 17.8 29.9588 18.1161 30.5214 18.6787C31.084 19.2413 31.4 20.0044 31.4 20.8ZM21.8 30.4C21.8 28.3552 22.73 26.5264 24.1916 25.3156C23.8289 25.108 23.418 24.9992 23 25H15.2C14.5635 25 13.9531 25.2529 13.503 25.7029C13.0529 26.153 12.8 26.7635 12.8 27.4C12.8 27.4 12.8 32.2 19.1 32.2C20.2436 32.2 21.1796 32.0416 21.9452 31.7836C21.8484 31.3288 21.7998 30.865 21.8 30.4ZM33.8 30.4C33.8 31.8322 33.2311 33.2057 32.2184 34.2184C31.2057 35.2311 29.8322 35.8 28.4 35.8C26.9679 35.8 25.5944 35.2311 24.5817 34.2184C23.569 33.2057 23 31.8322 23 30.4C23 28.9678 23.569 27.5943 24.5817 26.5816C25.5944 25.5689 26.9679 25 28.4 25C29.8322 25 31.2057 25.5689 32.2184 26.5816C33.2311 27.5943 33.8 28.9678 33.8 30.4ZM29 28C29 27.8409 28.9368 27.6883 28.8243 27.5757C28.7118 27.4632 28.5592 27.4 28.4 27.4C28.2409 27.4 28.0883 27.4632 27.9758 27.5757C27.8633 27.6883 27.8 27.8409 27.8 28V29.8H26C25.8409 29.8 25.6883 29.8632 25.5758 29.9757C25.4633 30.0883 25.4 30.2409 25.4 30.4C25.4 30.5591 25.4633 30.7117 25.5758 30.8243C25.6883 30.9368 25.8409 31 26 31H27.8V32.8C27.8 32.9591 27.8633 33.1117 27.9758 33.2243C28.0883 33.3368 28.2409 33.4 28.4 33.4C28.5592 33.4 28.7118 33.3368 28.8243 33.2243C28.9368 33.1117 29 32.9591 29 32.8V31H30.8C30.9592 31 31.1118 30.9368 31.2243 30.8243C31.3368 30.7117 31.4 30.5591 31.4 30.4C31.4 30.2409 31.3368 30.0883 31.2243 29.9757C31.1118 29.8632 30.9592 29.8 30.8 29.8H29V28Z" fill="#0EA44D"/>
</g>
<defs>
<clipPath id="clip0_1102_2118">
<rect width="24" height="24" fill="white" transform="translate(12 12)"/>
</clipPath>
</defs>
</svg>
