<svg width="24" height="24" viewBox="0 0 24 24" fill="none" xmlns="http://www.w3.org/2000/svg">
<rect width="24" height="24" rx="12" fill="#0EA44D" fill-opacity="0.2"/>
<circle cx="12" cy="12" r="8" fill="#0EA44D"/>
<path d="M10.5215 14.0982L9.38097 12.0136H8.62522V14.0982H8V9H9.54586C9.90771 9 10.2123 9.06583 10.4596 9.19749C10.7116 9.32915 10.8994 9.50714 11.023 9.73145C11.1467 9.95576 11.2085 10.2118 11.2085 10.4995C11.2085 10.8506 11.1123 11.1602 10.92 11.4284C10.7322 11.6966 10.4482 11.8746 10.068 11.9624L11.2704 14.0982H10.5215ZM8.62522 11.4796H9.54586C9.88481 11.4796 10.139 11.3918 10.3085 11.2163C10.478 11.0359 10.5627 10.7969 10.5627 10.4995C10.5627 10.1971 10.478 9.96308 10.3085 9.79728C10.1436 9.63149 9.88939 9.54859 9.54586 9.54859H8.62522V11.4796Z" fill="white"/>
<path d="M12.8052 10.8286C12.9289 10.5994 13.1121 10.4093 13.3549 10.2581C13.6022 10.1021 13.8885 10.024 14.2137 10.024C14.548 10.024 14.8503 10.1094 15.1206 10.28C15.3954 10.4507 15.6107 10.6921 15.7664 11.0042C15.9221 11.3114 16 11.6698 16 12.0794C16 12.4842 15.9221 12.845 15.7664 13.162C15.6107 13.4789 15.3954 13.7252 15.1206 13.9007C14.8503 14.0763 14.548 14.1641 14.2137 14.1641C13.893 14.1641 13.6091 14.0885 13.3617 13.9373C13.119 13.7813 12.9335 13.5886 12.8052 13.3595V16H12.18V10.0899H12.8052V10.8286ZM15.361 12.0794C15.361 11.7771 15.3038 11.5138 15.1893 11.2894C15.0748 11.0651 14.919 10.8945 14.7221 10.7774C14.5297 10.6604 14.3167 10.6019 14.0831 10.6019C13.8541 10.6019 13.6411 10.6628 13.4442 10.7847C13.2518 10.9018 13.0961 11.0749 12.977 11.3041C12.8625 11.5284 12.8052 11.7893 12.8052 12.0867C12.8052 12.3891 12.8625 12.6548 12.977 12.884C13.0961 13.1083 13.2518 13.2814 13.4442 13.4033C13.6411 13.5204 13.8541 13.5789 14.0831 13.5789C14.3167 13.5789 14.5297 13.5204 14.7221 13.4033C14.919 13.2814 15.0748 13.1083 15.1893 12.884C15.3038 12.6548 15.361 12.3866 15.361 12.0794Z" fill="white"/>
</svg>
