<svg width="24" height="24" viewBox="0 0 24 24" fill="none" xmlns="http://www.w3.org/2000/svg">
<rect width="24" height="24" rx="12" fill="#0EA44D" fill-opacity="0.2"/>
<path d="M13.2268 13.9662C13.7737 13.9662 14.2628 13.5427 14.2628 12.9337C14.2628 12.2057 13.8017 11.8574 13.2478 11.8574C12.7351 11.8574 12.2258 12.196 12.2258 12.9162C12.2258 13.631 12.701 13.9662 13.2268 13.9662Z" fill="#0EA44D"/>
<path d="M8.0625 5C8.17853 5 8.28981 5.04609 8.37186 5.12814C8.45391 5.21019 8.5 5.32147 8.5 5.4375V5.875H15.5V5.4375C15.5 5.32147 15.5461 5.21019 15.6281 5.12814C15.7102 5.04609 15.8215 5 15.9375 5C16.0535 5 16.1648 5.04609 16.2469 5.12814C16.3289 5.21019 16.375 5.32147 16.375 5.4375V5.875H17.25C17.7141 5.875 18.1592 6.05937 18.4874 6.38756C18.8156 6.71575 19 7.16087 19 7.625V17.25C19 17.7141 18.8156 18.1592 18.4874 18.4874C18.1592 18.8156 17.7141 19 17.25 19H6.75C6.28587 19 5.84075 18.8156 5.51256 18.4874C5.18437 18.1592 5 17.7141 5 17.25V7.625C5 7.16087 5.18437 6.71575 5.51256 6.38756C5.84075 6.05937 6.28587 5.875 6.75 5.875H7.625V5.4375C7.625 5.32147 7.67109 5.21019 7.75314 5.12814C7.83519 5.04609 7.94647 5 8.0625 5V5ZM16.7723 7.625H7.22688C6.96438 7.625 6.75 7.821 6.75 8.0625V8.9375C6.75 9.179 6.9635 9.375 7.22688 9.375H16.7731C17.0356 9.375 17.25 9.179 17.25 8.9375V8.0625C17.25 7.821 17.0365 7.625 16.7723 7.625ZM13.169 16.1912C14.2698 16.1912 14.919 15.2576 14.919 13.6783C14.919 11.986 14.2356 11.3438 13.2101 11.3438C12.3999 11.3438 11.6378 11.9317 11.6378 12.9266C11.6378 13.9416 12.3587 14.4754 13.1042 14.4754C13.757 14.4754 14.1805 14.1464 14.3144 13.7841H14.338C14.3345 14.9356 13.9346 15.6776 13.1961 15.6776C12.6151 15.6776 12.3141 15.2839 12.2774 14.9601H11.6789C11.72 15.5201 12.1986 16.1904 13.169 16.1904V16.1912ZM10.6403 11.4356H10.0864C9.68941 11.6468 9.30574 11.882 8.9375 12.14V12.7481C9.26562 12.5232 9.78538 12.2056 10.0382 12.0683H10.0487V16.102H10.6394V11.4348L10.6403 11.4356Z" fill="#0EA44D"/>
</svg>
