<svg width="24" height="24" viewBox="0 0 24 24" fill="none" xmlns="http://www.w3.org/2000/svg">
<rect width="24" height="24" rx="12" fill="#0EA44D" fill-opacity="0.2"/>
<path d="M14.2999 6.52085C14.2733 6.68752 14.2599 6.85418 14.2599 7.02085C14.2599 8.52085 15.4733 9.73352 16.9666 9.73352C17.1333 9.73352 17.2933 9.71418 17.4599 9.68752V15.0669C17.4599 17.3275 16.1266 18.6675 13.8599 18.6675H8.93392C6.66659 18.6675 5.33325 17.3275 5.33325 15.0669V10.1342C5.33325 7.86752 6.66659 6.52085 8.93392 6.52085H14.2999ZM14.4339 10.5742C14.2533 10.5542 14.0739 10.6342 13.9666 10.7809L12.3539 12.8675L10.5066 11.4142C10.3933 11.3275 10.2599 11.2935 10.1266 11.3075C9.99392 11.3275 9.87392 11.4002 9.79325 11.5069L7.82059 14.0742L7.77992 14.1342C7.66659 14.3469 7.71992 14.6202 7.91992 14.7675C8.01325 14.8275 8.11325 14.8675 8.22659 14.8675C8.38059 14.8742 8.52659 14.7935 8.61992 14.6675L10.2933 12.5135L12.1933 13.9409L12.2533 13.9802C12.4666 14.0935 12.7333 14.0409 12.8866 13.8402L14.8133 11.3542L14.7866 11.3675C14.8933 11.2209 14.9133 11.0342 14.8399 10.8675C14.7673 10.7009 14.6066 10.5875 14.4339 10.5742ZM17.06 5.33398C17.9467 5.33398 18.6667 6.05398 18.6667 6.94065C18.6667 7.82732 17.9467 8.54732 17.06 8.54732C16.1733 8.54732 15.4533 7.82732 15.4533 6.94065C15.4533 6.05398 16.1733 5.33398 17.06 5.33398Z" fill="#0EA44D"/>
</svg>
