<svg width="24" height="24" viewBox="0 0 24 24" fill="none" xmlns="http://www.w3.org/2000/svg">
<rect width="24" height="24" rx="12" fill="#0EA44D" fill-opacity="0.2"/>
<path d="M10.6915 16.5017C10.6915 16.5017 9.84985 16.5017 9.84985 15.6601C9.84985 14.8185 10.6915 12.2936 14.0579 12.2936C17.4244 12.2936 18.266 14.8185 18.266 15.6601C18.266 16.5017 17.4244 16.5017 17.4244 16.5017H10.6915ZM14.0579 11.452C14.7276 11.452 15.3698 11.186 15.8433 10.7125C16.3168 10.239 16.5828 9.59682 16.5828 8.92719C16.5828 8.25756 16.3168 7.61535 15.8433 7.14185C15.3698 6.66835 14.7276 6.40234 14.0579 6.40234C13.3883 6.40234 12.7461 6.66835 12.2726 7.14185C11.7991 7.61535 11.5331 8.25756 11.5331 8.92719C11.5331 9.59682 11.7991 10.239 12.2726 10.7125C12.7461 11.186 13.3883 11.452 14.0579 11.452Z" fill="#0EA44D"/>
<path fill-rule="evenodd" clip-rule="evenodd" d="M9.18991 16.5014C9.06514 16.2387 9.00292 15.9506 9.00812 15.6598C9.00812 14.5194 9.58042 13.3453 10.6375 12.529C10.1099 12.3664 9.56018 12.2869 9.00812 12.2933C5.64166 12.2933 4.80005 14.8182 4.80005 15.6598C4.80005 16.5014 5.64166 16.5014 5.64166 16.5014H9.18991Z" fill="#0EA44D"/>
<path d="M8.58743 11.4503C9.14546 11.4503 9.68063 11.2286 10.0752 10.834C10.4698 10.4394 10.6915 9.90425 10.6915 9.34622C10.6915 8.7882 10.4698 8.25303 10.0752 7.85845C9.68063 7.46386 9.14546 7.24219 8.58743 7.24219C8.02941 7.24219 7.49424 7.46386 7.09966 7.85845C6.70507 8.25303 6.4834 8.7882 6.4834 9.34622C6.4834 9.90425 6.70507 10.4394 7.09966 10.834C7.49424 11.2286 8.02941 11.4503 8.58743 11.4503Z" fill="#0EA44D"/>
</svg>
