<svg width="48" height="48" viewBox="0 0 48 48" fill="none" xmlns="http://www.w3.org/2000/svg">
<rect width="48" height="48" rx="8" fill="#0EA44D" fill-opacity="0.1"/>
<path d="M18 12.75C18 12.5511 17.921 12.3603 17.7803 12.2197C17.6397 12.079 17.4489 12 17.25 12C17.0511 12 16.8603 12.079 16.7197 12.2197C16.579 12.3603 16.5 12.5511 16.5 12.75V13.5H15C14.2044 13.5 13.4413 13.8161 12.8787 14.3787C12.3161 14.9413 12 15.7044 12 16.5V18H36V16.5C36 15.7044 35.6839 14.9413 35.1213 14.3787C34.5587 13.8161 33.7956 13.5 33 13.5H31.5V12.75C31.5 12.5511 31.421 12.3603 31.2803 12.2197C31.1397 12.079 30.9489 12 30.75 12C30.5511 12 30.3603 12.079 30.2197 12.2197C30.079 12.3603 30 12.5511 30 12.75V13.5H18V12.75ZM26.103 27.369C27.0405 27.369 27.879 26.643 27.879 25.599C27.879 24.351 27.0885 23.754 26.139 23.754C25.26 23.754 24.387 24.3345 24.387 25.569C24.387 26.7945 25.2015 27.369 26.103 27.369Z" fill="#0EA44D"/>
<path d="M36 33V19.5H12V33C12 33.7956 12.3161 34.5587 12.8787 35.1213C13.4413 35.6839 14.2044 36 15 36H33C33.7956 36 34.5587 35.6839 35.1213 35.1213C35.6839 34.5587 36 33.7956 36 33ZM26.004 31.185C24.339 31.185 23.52 30.0345 23.4495 29.0745H24.474C24.5385 29.6295 25.0545 30.3045 26.0505 30.3045C27.3165 30.3045 28.002 29.0325 28.008 27.0585H27.9675C27.738 27.6795 27.012 28.2435 25.893 28.2435C24.615 28.2435 23.379 27.3285 23.379 25.5885C23.379 23.883 24.6855 22.875 26.0745 22.875C27.8325 22.875 29.004 23.976 29.004 26.877C29.004 29.5845 27.891 31.1835 26.004 31.1835V31.185ZM21.669 23.0325V31.0305H20.655V24.1185H20.637C20.202 24.3525 19.3125 24.8985 18.75 25.284V24.24C19.3813 23.7977 20.039 23.3945 20.7195 23.0325H21.6675H21.669Z" fill="#0EA44D"/>
</svg>
