<svg width="24" height="24" viewBox="0 0 24 24" fill="none" xmlns="http://www.w3.org/2000/svg">
<rect width="24" height="24" rx="12" fill="#0EA44D" fill-opacity="0.2"/>
<path d="M15.1128 5.33398C17.3802 5.33398 18.6602 6.61998 18.6668 8.88732V15.114C18.6668 17.3807 17.3802 18.6673 15.1128 18.6673H8.88683C6.6195 18.6673 5.3335 17.3807 5.3335 15.114V8.88732C5.3335 6.61998 6.6195 5.33398 8.88683 5.33398H15.1128ZM12.3335 8.08732C12.1462 7.97398 11.9195 7.97398 11.7402 8.08732C11.5595 8.19998 11.4602 8.40732 11.4795 8.61398V15.4073C11.5135 15.694 11.7528 15.9073 12.0328 15.9073C12.3202 15.9073 12.5595 15.694 12.5862 15.4073V8.61398C12.6128 8.40732 12.5135 8.19998 12.3335 8.08732ZM9.22016 10.274C9.04016 10.1607 8.81283 10.1607 8.6335 10.274C8.45283 10.3873 8.3535 10.5933 8.3735 10.8007V15.4073C8.3995 15.694 8.6395 15.9073 8.92616 15.9073C9.2135 15.9073 9.45283 15.694 9.4795 15.4073V10.8007C9.50016 10.5933 9.3995 10.3873 9.22016 10.274ZM15.3928 12.694C15.2135 12.5807 14.9868 12.5807 14.8002 12.694C14.6195 12.8073 14.5202 13.0067 14.5468 13.2207V15.4073C14.5735 15.694 14.8128 15.9073 15.1002 15.9073C15.3802 15.9073 15.6195 15.694 15.6535 15.4073V13.2207C15.6728 13.0067 15.5735 12.8073 15.3928 12.694Z" fill="#0EA44D"/>
</svg>
