<svg width="56" height="56" viewBox="0 0 56 56" fill="none" xmlns="http://www.w3.org/2000/svg">
<rect width="56" height="56" rx="8" fill="#0EA44D" fill-opacity="0.1"/>
<g clip-path="url(#clip0_1102_1896)">
<path d="M22.75 34C22.5511 34 22.3603 33.921 22.2197 33.7803C22.079 33.6397 22 33.4489 22 33.25V30.25C22 30.0511 22.079 29.8603 22.2197 29.7197C22.3603 29.579 22.5511 29.5 22.75 29.5H24.25C24.4489 29.5 24.6397 29.579 24.7803 29.7197C24.921 29.8603 25 30.0511 25 30.25V33.25C25 33.4489 24.921 33.6397 24.7803 33.7803C24.6397 33.921 24.4489 34 24.25 34H22.75ZM27.25 34C27.0511 34 26.8603 33.921 26.7197 33.7803C26.579 33.6397 26.5 33.4489 26.5 33.25V27.25C26.5 27.0511 26.579 26.8603 26.7197 26.7197C26.8603 26.579 27.0511 26.5 27.25 26.5H28.75C28.9489 26.5 29.1397 26.579 29.2803 26.7197C29.421 26.8603 29.5 27.0511 29.5 27.25V33.25C29.5 33.4489 29.421 33.6397 29.2803 33.7803C29.1397 33.921 28.9489 34 28.75 34H27.25ZM31.75 34C31.5511 34 31.3603 33.921 31.2197 33.7803C31.079 33.6397 31 33.4489 31 33.25V24.25C31 24.0511 31.079 23.8603 31.2197 23.7197C31.3603 23.579 31.5511 23.5 31.75 23.5H33.25C33.4489 23.5 33.6397 23.579 33.7803 23.7197C33.921 23.8603 34 24.0511 34 24.25V33.25C34 33.4489 33.921 33.6397 33.7803 33.7803C33.6397 33.921 33.4489 34 33.25 34H31.75Z" fill="#0EA44D"/>
<path d="M22 16C21.2044 16 20.4413 16.3161 19.8787 16.8787C19.3161 17.4413 19 18.2044 19 19V37C19 37.7956 19.3161 38.5587 19.8787 39.1213C20.4413 39.6839 21.2044 40 22 40H34C34.7956 40 35.5587 39.6839 36.1213 39.1213C36.6839 38.5587 37 37.7956 37 37V19C37 18.2044 36.6839 17.4413 36.1213 16.8787C35.5587 16.3161 34.7956 16 34 16H22ZM22 17.5H34C34.3978 17.5 34.7794 17.658 35.0607 17.9393C35.342 18.2206 35.5 18.6022 35.5 19V37C35.5 37.3978 35.342 37.7794 35.0607 38.0607C34.7794 38.342 34.3978 38.5 34 38.5H22C21.6022 38.5 21.2206 38.342 20.9393 38.0607C20.658 37.7794 20.5 37.3978 20.5 37V19C20.5 18.6022 20.658 18.2206 20.9393 17.9393C21.2206 17.658 21.6022 17.5 22 17.5Z" fill="#0EA44D"/>
</g>
<defs>
<clipPath id="clip0_1102_1896">
<rect width="24" height="24" fill="white" transform="translate(16 16)"/>
</clipPath>
</defs>
</svg>
